  0
SECTION
  2
HEADER
  9
$ACADVER
  1
AC1009
  9
$DWGCODEPAGE
  3
ansi_1252
  9
$INSBASE
 10
0.0
 20
0.0
 30
0.0
  9
$EXTMIN
 10
4.0
 20
3.000000000000001
 30
0.0
  9
$EXTMAX
 10
16.0
 20
27.0
 30
0.0
  9
$LIMMIN
 10
0.0
 20
0.0
  9
$LIMMAX
 10
12.0
 20
9.0
  9
$ORTHOMODE
 70
     0
  9
$REGENMODE
 70
     1
  9
$FILLMODE
 70
     1
  9
$QTEXTMODE
 70
     0
  9
$MIRRTEXT
 70
     1
  9
$DRAGMODE
 70
     2
  9
$LTSCALE
 40
1.0
  9
$OSMODE
 70
    37
  9
$ATTMODE
 70
     1
  9
$TEXTSIZE
 40
0.2
  9
$TRACEWID
 40
0.05
  9
$TEXTSTYLE
  7
STANDARD
  9
$CLAYER
  8
0
  9
$CELTYPE
  6
BYLAYER
  9
$CECOLOR
 62
   256
  9
$DIMSCALE
 40
1.0
  9
$DIMASZ
 40
0.18
  9
$DIMEXO
 40
0.0625
  9
$DIMDLI
 40
0.38
  9
$DIMRND
 40
0.0
  9
$DIMDLE
 40
0.0
  9
$DIMEXE
 40
0.18
  9
$DIMTP
 40
0.0
  9
$DIMTM
 40
0.0
  9
$DIMTXT
 40
0.18
  9
$DIMCEN
 40
0.09
  9
$DIMTSZ
 40
0.0
  9
$DIMTOL
 70
     0
  9
$DIMLIM
 70
     0
  9
$DIMTIH
 70
     1
  9
$DIMTOH
 70
     1
  9
$DIMSE1
 70
     0
  9
$DIMSE2
 70
     0
  9
$DIMTAD
 70
     0
  9
$DIMZIN
 70
     0
  9
$DIMBLK
  1

  9
$DIMASO
 70
     1
  9
$DIMSHO
 70
     1
  9
$DIMPOST
  1

  9
$DIMAPOST
  1

  9
$DIMALT
 70
     0
  9
$DIMALTD
 70
     2
  9
$DIMALTF
 40
25.4
  9
$DIMLFAC
 40
1.0
  9
$DIMTOFL
 70
     0
  9
$DIMTVP
 40
0.0
  9
$DIMTIX
 70
     0
  9
$DIMSOXD
 70
     0
  9
$DIMSAH
 70
     0
  9
$DIMBLK1
  1

  9
$DIMBLK2
  1

  9
$DIMSTYLE
  2
STANDARD
  9
$DIMCLRD
 70
     0
  9
$DIMCLRE
 70
     0
  9
$DIMCLRT
 70
     0
  9
$DIMTFAC
 40
1.0
  9
$DIMGAP
 40
0.09
  9
$LUNITS
 70
     2
  9
$LUPREC
 70
     4
  9
$SKETCHINC
 40
0.1
  9
$FILLETRAD
 40
0.5
  9
$AUNITS
 70
     0
  9
$AUPREC
 70
     0
  9
$MENU
  1
.
  9
$ELEVATION
 40
0.0
  9
$PELEVATION
 40
0.0
  9
$THICKNESS
 40
0.0
  9
$LIMCHECK
 70
     0
  9
$CHAMFERA
 40
0.0
  9
$CHAMFERB
 40
0.0
  9
$SKPOLY
 70
     0
  9
$TDCREATE
 40
2454910.5
  9
$TDUPDATE
 40
2456825.068488958
  9
$TDINDWG
 40
0.0000000116
  9
$TDUSRTIMER
 40
0.0000000116
  9
$USRTIMER
 70
     1
  9
$ANGBASE
 50
0.0
  9
$ANGDIR
 70
     0
  9
$PDMODE
 70
     0
  9
$PDSIZE
 40
0.0
  9
$PLINEWID
 40
0.0
  9
$COORDS
 70
     1
  9
$SPLFRAME
 70
     0
  9
$SPLINETYPE
 70
     6
  9
$SPLINESEGS
 70
     8
  9
$ATTDIA
 70
     0
  9
$ATTREQ
 70
     1
  9
$HANDLING
 70
     1
  9
$HANDSEED
  5
6E4
  9
$SURFTAB1
 70
     6
  9
$SURFTAB2
 70
     6
  9
$SURFTYPE
 70
     6
  9
$SURFU
 70
     6
  9
$SURFV
 70
     6
  9
$UCSNAME
  2

  9
$UCSORG
 10
0.0
 20
0.0
 30
0.0
  9
$UCSXDIR
 10
1.0
 20
0.0
 30
0.0
  9
$UCSYDIR
 10
0.0
 20
1.0
 30
0.0
  9
$PUCSNAME
  2

  9
$PUCSORG
 10
0.0
 20
0.0
 30
0.0
  9
$PUCSXDIR
 10
1.0
 20
0.0
 30
0.0
  9
$PUCSYDIR
 10
0.0
 20
1.0
 30
0.0
  9
$USERI1
 70
     0
  9
$USERI2
 70
     0
  9
$USERI3
 70
     0
  9
$USERI4
 70
     0
  9
$USERI5
 70
     0
  9
$USERR1
 40
0.0
  9
$USERR2
 40
0.0
  9
$USERR3
 40
0.0
  9
$USERR4
 40
0.0
  9
$USERR5
 40
0.0
  9
$WORLDVIEW
 70
     1
  9
$SHADEDGE
 70
     3
  9
$SHADEDIF
 70
    70
  9
$TILEMODE
 70
     1
  9
$MAXACTVP
 70
    64
  9
$PLIMCHECK
 70
     0
  9
$PEXTMIN
 10
1.000000000000000E+20
 20
1.000000000000000E+20
 30
1.000000000000000E+20
  9
$PEXTMAX
 10
-1.000000000000000E+20
 20
-1.000000000000000E+20
 30
-1.000000000000000E+20
  9
$PLIMMIN
 10
0.0
 20
0.0
  9
$PLIMMAX
 10
12.0
 20
9.0
  9
$UNITMODE
 70
     0
  9
$VISRETAIN
 70
     1
  9
$PLINEGEN
 70
     0
  9
$PSLTSCALE
 70
     1
  0
ENDSEC
  0
SECTION
  2
TABLES
  0
TABLE
  2
VPORT
 70
     1
  0
VPORT
  2
*ACTIVE
 70
     0
 10
0.0
 20
0.0
 11
1.0
 21
1.0
 12
10.42990654205607
 22
4.5
 13
0.0
 23
0.0
 14
0.5
 24
0.5
 15
0.5
 25
0.5
 16
0.0
 26
0.0
 36
1.0
 17
0.0
 27
0.0
 37
0.0
 40
9.0
 41
1.972972972850329
 42
50.0
 43
0.0
 44
0.0
 50
0.0
 51
0.0
 71
     0
 72
   100
 73
     1
 74
     3
 75
     0
 76
     0
 77
     0
 78
     0
  0
ENDTAB
  0
TABLE
  2
LTYPE
 70
     2
  0
LTYPE
  2
CONTINUOUS
 70
     0
  3
Solid line
 72
    65
 73
     0
 40
0.0
  0
LTYPE
  2
CONTINUOUS2
 70
     0
  3
Solid Line
 72
    65
 73
     0
 40
0.0
  0
ENDTAB
  0
TABLE
  2
LAYER
 70
     6
  0
LAYER
  2
0
 70
     0
 62
     7
  6
CONTINUOUS
  0
LAYER
  2
IMPORT_-_FOLDAQUAD_HALF_1
 70
     0
 62
    18
  6
CONTINUOUS
  0
LAYER
  2
LAYER_2
 70
     0
 62
    18
  6
CONTINUOUS
  0
LAYER
  2
LAYER_3
 70
     0
 62
    18
  6
CONTINUOUS
  0
LAYER
  2
LAYER_6
 70
     0
 62
    18
  6
CONTINUOUS
  0
LAYER
  2
LAYER_7
 70
     0
 62
    18
  6
CONTINUOUS
  0
ENDTAB
  0
TABLE
  2
STYLE
 70
     1
  0
STYLE
  2
STANDARD
 70
     0
 40
0.0
 41
1.0
 50
0.0
 71
     0
 42
0.2
  3
txt
  4

  0
ENDTAB
  0
TABLE
  2
VIEW
 70
     0
  0
ENDTAB
  0
TABLE
  2
UCS
 70
     0
  0
ENDTAB
  0
TABLE
  2
APPID
 70
     1
  0
APPID
  2
ACAD
 70
     0
  0
ENDTAB
  0
TABLE
  2
DIMSTYLE
 70
     1
  0
DIMSTYLE
  2
STANDARD
 70
     0
  3

  4

  5

  6

  7

 40
1.0
 41
0.18
 42
0.0625
 43
0.38
 44
0.18
 45
0.0
 46
0.0
 47
0.0
 48
0.0
140
0.18
141
0.09
142
0.0
143
25.4
144
1.0
145
0.0
146
1.0
147
0.09
 71
     0
 72
     0
 73
     1
 74
     1
 75
     0
 76
     0
 77
     0
 78
     0
170
     0
171
     2
172
     0
173
     0
174
     0
175
     0
176
     0
177
     0
178
     0
  0
ENDTAB
  0
ENDSEC
  0
SECTION
  2
BLOCKS
  0
BLOCK
  8
0
  2
$MODEL_SPACE
 70
     0
 10
0.0
 20
0.0
 30
0.0
  3
$MODEL_SPACE
  1

  0
ENDBLK
  5
21
  8
0
  0
BLOCK
 67
     1
  8
0
  2
$PAPER_SPACE
 70
     0
 10
0.0
 20
0.0
 30
0.0
  3
$PAPER_SPACE
  1

  0
ENDBLK
  5
1D
 67
     1
  8
0
  0
ENDSEC
  0
SECTION
  2
ENTITIES
  0
POLYLINE
  5
6C
  8
IMPORT_-_FOLDAQUAD_HALF_1
 66
     1
 10
0.0
 20
0.0
 30
0.0
 70
     1
  0
VERTEX
  5
1AE
  8
IMPORT_-_FOLDAQUAD_HALF_1
 10
4.836025206659386
 20
22.16706611414632
 30
0.0
 42
0.4142135623730951
  0
VERTEX
  5
1AF
  8
IMPORT_-_FOLDAQUAD_HALF_1
 10
4.898525206659386
 20
22.22956611414632
 30
0.0
 42
0.4142135623730951
  0
VERTEX
  5
1B0
  8
IMPORT_-_FOLDAQUAD_HALF_1
 10
4.836025206659386
 20
22.29206611414632
 30
0.0
 42
0.4142135623730951
  0
VERTEX
  5
1B1
  8
IMPORT_-_FOLDAQUAD_HALF_1
 10
4.773525206659386
 20
22.22956611414632
 30
0.0
 42
0.4142135623730951
  0
SEQEND
  5
5AD
  8
IMPORT_-_FOLDAQUAD_HALF_1
  0
POLYLINE
  5
6D
  8
IMPORT_-_FOLDAQUAD_HALF_1
 66
     1
 10
0.0
 20
0.0
 30
0.0
 70
     1
  0
VERTEX
  5
1B2
  8
IMPORT_-_FOLDAQUAD_HALF_1
 10
4.836025206659386
 20
21.16756611414633
 30
0.0
 42
0.4142135623730951
  0
VERTEX
  5
1B3
  8
IMPORT_-_FOLDAQUAD_HALF_1
 10
4.898525206659386
 20
21.23006611414633
 30
0.0
 42
0.4142135623730951
  0
VERTEX
  5
1B4
  8
IMPORT_-_FOLDAQUAD_HALF_1
 10
4.836025206659386
 20
21.29256611414633
 30
0.0
 42
0.4142135623730951
  0
VERTEX
  5
1B5
  8
IMPORT_-_FOLDAQUAD_HALF_1
 10
4.773525206659386
 20
21.23006611414632
 30
0.0
 42
0.4142135623730951
  0
SEQEND
  5
5AE
  8
IMPORT_-_FOLDAQUAD_HALF_1
  0
POLYLINE
  5
6E
  8
IMPORT_-_FOLDAQUAD_HALF_1
 66
     1
 10
0.0
 20
0.0
 30
0.0
 70
     1
  0
VERTEX
  5
1B6
  8
IMPORT_-_FOLDAQUAD_HALF_1
 10
5.05692520665939
 20
20.38896611414632
 30
0.0
 42
0.4142135623730951
  0
VERTEX
  5
1B7
  8
IMPORT_-_FOLDAQUAD_HALF_1
 10
5.119425206659386
 20
20.45146611414632
 30
0.0
 42
0.4142135623730951
  0
VERTEX
  5
1B8
  8
IMPORT_-_FOLDAQUAD_HALF_1
 10
5.056925206659386
 20
20.51396611414632
 30
0.0
 42
0.4142135623730951
  0
VERTEX
  5
1B9
  8
IMPORT_-_FOLDAQUAD_HALF_1
 10
4.994425206659383
 20
20.45146611414632
 30
0.0
 42
0.4142135623730951
  0
SEQEND
  5
5AF
  8
IMPORT_-_FOLDAQUAD_HALF_1
  0
POLYLINE
  5
6F
  8
IMPORT_-_FOLDAQUAD_HALF_1
 66
     1
 10
0.0
 20
0.0
 30
0.0
 70
     1
  0
VERTEX
  5
1BA
  8
IMPORT_-_FOLDAQUAD_HALF_1
 10
4.615025206659386
 20
19.94716611414632
 30
0.0
 42
0.4142135623730951
  0
VERTEX
  5
1BB
  8
IMPORT_-_FOLDAQUAD_HALF_1
 10
4.677525206659386
 20
20.00966611414632
 30
0.0
 42
0.4142135623730951
  0
VERTEX
  5
1BC
  8
IMPORT_-_FOLDAQUAD_HALF_1
 10
4.615025206659386
 20
20.07216611414632
 30
0.0
 42
0.4142135623730951
  0
VERTEX
  5
1BD
  8
IMPORT_-_FOLDAQUAD_HALF_1
 10
4.552525206659389
 20
20.00966611414632
 30
0.0
 42
0.4142135623730951
  0
SEQEND
  5
5B0
  8
IMPORT_-_FOLDAQUAD_HALF_1
  0
POLYLINE
  5
70
  8
IMPORT_-_FOLDAQUAD_HALF_1
 66
     1
 10
0.0
 20
0.0
 30
0.0
 70
     1
  0
VERTEX
  5
1BE
  8
IMPORT_-_FOLDAQUAD_HALF_1
 10
4.835925206659386
 20
20.03086611414633
 30
0.0
 42
0.4142135623730951
  0
VERTEX
  5
1BF
  8
IMPORT_-_FOLDAQUAD_HALF_1
 10
5.035925206659385
 20
20.23086611414632
 30
0.0
 42
0.4142135623730951
  0
VERTEX
  5
1C0
  8
IMPORT_-_FOLDAQUAD_HALF_1
 10
4.835925206659386
 20
20.43086611414633
 30
0.0
 42
0.4142135623730951
  0
VERTEX
  5
1C1
  8
IMPORT_-_FOLDAQUAD_HALF_1
 10
4.635925206659387
 20
20.23086611414632
 30
0.0
 42
0.4142135623730951
  0
SEQEND
  5
5B1
  8
IMPORT_-_FOLDAQUAD_HALF_1
  0
POLYLINE
  5
71
  8
IMPORT_-_FOLDAQUAD_HALF_1
 66
     1
 10
0.0
 20
0.0
 30
0.0
 70
     1
  0
VERTEX
  5
1C2
  8
IMPORT_-_FOLDAQUAD_HALF_1
 10
4.835925206659383
 20
21.53086611414633
 30
0.0
 42
0.4142135623730951
  0
VERTEX
  5
1C3
  8
IMPORT_-_FOLDAQUAD_HALF_1
 10
5.035925206659389
 20
21.73086611414632
 30
0.0
 42
0.4142135623730951
  0
VERTEX
  5
1C4
  8
IMPORT_-_FOLDAQUAD_HALF_1
 10
4.835925206659386
 20
21.93086611414633
 30
0.0
 42
0.4142135623730951
  0
VERTEX
  5
1C5
  8
IMPORT_-_FOLDAQUAD_HALF_1
 10
4.635925206659387
 20
21.73086611414632
 30
0.0
 42
0.4142135623730951
  0
SEQEND
  5
5B2
  8
IMPORT_-_FOLDAQUAD_HALF_1
  0
POLYLINE
  5
72
  8
IMPORT_-_FOLDAQUAD_HALF_1
 66
     1
 10
0.0
 20
0.0
 30
0.0
 70
     1
  0
VERTEX
  5
1C6
  8
IMPORT_-_FOLDAQUAD_HALF_1
 10
4.881367444413293
 20
24.0456253896734
 30
0.0
 42
0.4142135623730951
  0
VERTEX
  5
1C7
  8
IMPORT_-_FOLDAQUAD_HALF_1
 10
4.818867444413293
 20
23.9831253896734
 30
0.0
 42
0.4142135623730951
  0
VERTEX
  5
1C8
  8
IMPORT_-_FOLDAQUAD_HALF_1
 10
4.881367444413293
 20
23.9206253896734
 30
0.0
 42
0.4142135623730951
  0
VERTEX
  5
1C9
  8
IMPORT_-_FOLDAQUAD_HALF_1
 10
4.943867444413293
 20
23.9831253896734
 30
0.0
 42
0.4142135623730951
  0
SEQEND
  5
5B3
  8
IMPORT_-_FOLDAQUAD_HALF_1
  0
POLYLINE
  5
73
  8
IMPORT_-_FOLDAQUAD_HALF_1
 66
     1
 10
0.0
 20
0.0
 30
0.0
 70
     1
  0
VERTEX
  5
1CA
  8
IMPORT_-_FOLDAQUAD_HALF_1
 10
4.881367444413293
 20
25.0451253896734
 30
0.0
 42
0.4142135623730951
  0
VERTEX
  5
1CB
  8
IMPORT_-_FOLDAQUAD_HALF_1
 10
4.818867444413293
 20
24.9826253896734
 30
0.0
 42
0.4142135623730951
  0
VERTEX
  5
1CC
  8
IMPORT_-_FOLDAQUAD_HALF_1
 10
4.881367444413293
 20
24.9201253896734
 30
0.0
 42
0.4142135623730951
  0
VERTEX
  5
1CD
  8
IMPORT_-_FOLDAQUAD_HALF_1
 10
4.943867444413293
 20
24.9826253896734
 30
0.0
 42
0.4142135623730951
  0
SEQEND
  5
5B4
  8
IMPORT_-_FOLDAQUAD_HALF_1
  0
POLYLINE
  5
74
  8
IMPORT_-_FOLDAQUAD_HALF_1
 66
     1
 10
0.0
 20
0.0
 30
0.0
 70
     1
  0
VERTEX
  5
1CE
  8
IMPORT_-_FOLDAQUAD_HALF_1
 10
4.660467444413289
 20
25.8237253896734
 30
0.0
 42
0.4142135623730951
  0
VERTEX
  5
1CF
  8
IMPORT_-_FOLDAQUAD_HALF_1
 10
4.597967444413293
 20
25.7612253896734
 30
0.0
 42
0.4142135623730951
  0
VERTEX
  5
1D0
  8
IMPORT_-_FOLDAQUAD_HALF_1
 10
4.660467444413293
 20
25.6987253896734
 30
0.0
 42
0.4142135623730951
  0
VERTEX
  5
1D1
  8
IMPORT_-_FOLDAQUAD_HALF_1
 10
4.722967444413296
 20
25.7612253896734
 30
0.0
 42
0.4142135623730951
  0
SEQEND
  5
5B5
  8
IMPORT_-_FOLDAQUAD_HALF_1
  0
POLYLINE
  5
75
  8
IMPORT_-_FOLDAQUAD_HALF_1
 66
     1
 10
0.0
 20
0.0
 30
0.0
 70
     1
  0
VERTEX
  5
1D2
  8
IMPORT_-_FOLDAQUAD_HALF_1
 10
5.102367444413293
 20
26.2655253896734
 30
0.0
 42
0.4142135623730951
  0
VERTEX
  5
1D3
  8
IMPORT_-_FOLDAQUAD_HALF_1
 10
5.039867444413293
 20
26.2030253896734
 30
0.0
 42
0.4142135623730951
  0
VERTEX
  5
1D4
  8
IMPORT_-_FOLDAQUAD_HALF_1
 10
5.102367444413293
 20
26.1405253896734
 30
0.0
 42
0.4142135623730951
  0
VERTEX
  5
1D5
  8
IMPORT_-_FOLDAQUAD_HALF_1
 10
5.164867444413289
 20
26.2030253896734
 30
0.0
 42
0.4142135623730951
  0
SEQEND
  5
5B6
  8
IMPORT_-_FOLDAQUAD_HALF_1
  0
POLYLINE
  5
76
  8
IMPORT_-_FOLDAQUAD_HALF_1
 66
     1
 10
0.0
 20
0.0
 30
0.0
 70
     1
  0
VERTEX
  5
1D6
  8
IMPORT_-_FOLDAQUAD_HALF_1
 10
4.881467444413293
 20
26.1818253896734
 30
0.0
 42
0.4142135623730951
  0
VERTEX
  5
1D7
  8
IMPORT_-_FOLDAQUAD_HALF_1
 10
4.681467444413293
 20
25.9818253896734
 30
0.0
 42
0.4142135623730951
  0
VERTEX
  5
1D8
  8
IMPORT_-_FOLDAQUAD_HALF_1
 10
4.881467444413293
 20
25.7818253896734
 30
0.0
 42
0.4142135623730951
  0
VERTEX
  5
1D9
  8
IMPORT_-_FOLDAQUAD_HALF_1
 10
5.081467444413292
 20
25.9818253896734
 30
0.0
 42
0.4142135623730951
  0
SEQEND
  5
5B7
  8
IMPORT_-_FOLDAQUAD_HALF_1
  0
POLYLINE
  5
77
  8
IMPORT_-_FOLDAQUAD_HALF_1
 66
     1
 10
0.0
 20
0.0
 30
0.0
 70
     1
  0
VERTEX
  5
1DA
  8
IMPORT_-_FOLDAQUAD_HALF_1
 10
4.881467444413296
 20
24.6818253896734
 30
0.0
 42
0.4142135623730951
  0
VERTEX
  5
1DB
  8
IMPORT_-_FOLDAQUAD_HALF_1
 10
4.68146744441329
 20
24.4818253896734
 30
0.0
 42
0.4142135623730951
  0
VERTEX
  5
1DC
  8
IMPORT_-_FOLDAQUAD_HALF_1
 10
4.881467444413293
 20
24.2818253896734
 30
0.0
 42
0.4142135623730951
  0
VERTEX
  5
1DD
  8
IMPORT_-_FOLDAQUAD_HALF_1
 10
5.081467444413292
 20
24.4818253896734
 30
0.0
 42
0.4142135623730951
  0
SEQEND
  5
5B8
  8
IMPORT_-_FOLDAQUAD_HALF_1
  0
POLYLINE
  5
78
  8
IMPORT_-_FOLDAQUAD_HALF_1
 66
     1
 10
0.0
 20
0.0
 30
0.0
 70
     1
  0
VERTEX
  5
1DE
  8
IMPORT_-_FOLDAQUAD_HALF_1
 10
9.368746109950557
 20
18.26813595278873
 30
0.0
  0
VERTEX
  5
1DF
  8
IMPORT_-_FOLDAQUAD_HALF_1
 10
9.368658170321112
 20
18.26813595278873
 30
0.0
  0
SEQEND
  5
5B9
  8
IMPORT_-_FOLDAQUAD_HALF_1
  0
POLYLINE
  5
79
  8
IMPORT_-_FOLDAQUAD_HALF_1
 66
     1
 10
0.0
 20
0.0
 30
0.0
 70
     1
  0
VERTEX
  5
1E0
  8
IMPORT_-_FOLDAQUAD_HALF_1
 10
9.243830210089538
 20
14.51818541883029
 30
0.0
 42
0.4142135623730951
  0
VERTEX
  5
1E1
  8
IMPORT_-_FOLDAQUAD_HALF_1
 10
9.181330210089538
 20
14.58068541883029
 30
0.0
 42
0.4142135623730951
  0
VERTEX
  5
1E2
  8
IMPORT_-_FOLDAQUAD_HALF_1
 10
9.118830210089538
 20
14.51818541883029
 30
0.0
 42
0.4142135623730951
  0
VERTEX
  5
1E3
  8
IMPORT_-_FOLDAQUAD_HALF_1
 10
9.181330210089538
 20
14.45568541883029
 30
0.0
 42
0.4142135623730951
  0
SEQEND
  5
5BA
  8
IMPORT_-_FOLDAQUAD_HALF_1
  0
POLYLINE
  5
7A
  8
IMPORT_-_FOLDAQUAD_HALF_1
 66
     1
 10
0.0
 20
0.0
 30
0.0
 70
     1
  0
VERTEX
  5
1E4
  8
IMPORT_-_FOLDAQUAD_HALF_1
 10
9.243830210089538
 20
11.26818541883029
 30
0.0
 42
0.4142135623730951
  0
VERTEX
  5
1E5
  8
IMPORT_-_FOLDAQUAD_HALF_1
 10
9.181330210089538
 20
11.33068541883029
 30
0.0
 42
0.4142135623730951
  0
VERTEX
  5
1E6
  8
IMPORT_-_FOLDAQUAD_HALF_1
 10
9.118830210089538
 20
11.26818541883029
 30
0.0
 42
0.4142135623730951
  0
VERTEX
  5
1E7
  8
IMPORT_-_FOLDAQUAD_HALF_1
 10
9.181330210089538
 20
11.20568541883029
 30
0.0
 42
0.4142135623730951
  0
SEQEND
  5
5BB
  8
IMPORT_-_FOLDAQUAD_HALF_1
  0
POLYLINE
  5
7B
  8
IMPORT_-_FOLDAQUAD_HALF_1
 66
     1
 10
0.0
 20
0.0
 30
0.0
 70
     1
  0
VERTEX
  5
1E8
  8
IMPORT_-_FOLDAQUAD_HALF_1
 10
7.369730210089535
 20
18.89318541883029
 30
0.0
 42
0.4142135623730951
  0
VERTEX
  5
1E9
  8
IMPORT_-_FOLDAQUAD_HALF_1
 10
7.307230210089535
 20
18.95568541883029
 30
0.0
 42
0.4142135623730951
  0
VERTEX
  5
1EA
  8
IMPORT_-_FOLDAQUAD_HALF_1
 10
7.244730210089535
 20
18.89318541883029
 30
0.0
 42
0.4142135623730951
  0
VERTEX
  5
1EB
  8
IMPORT_-_FOLDAQUAD_HALF_1
 10
7.307230210089535
 20
18.83068541883029
 30
0.0
 42
0.4142135623730951
  0
SEQEND
  5
5BC
  8
IMPORT_-_FOLDAQUAD_HALF_1
  0
POLYLINE
  5
7C
  8
IMPORT_-_FOLDAQUAD_HALF_1
 66
     1
 10
0.0
 20
0.0
 30
0.0
 70
     1
  0
VERTEX
  5
1EC
  8
IMPORT_-_FOLDAQUAD_HALF_1
 10
5.495630210089536
 20
14.51818541883029
 30
0.0
 42
0.4142135623730951
  0
VERTEX
  5
1ED
  8
IMPORT_-_FOLDAQUAD_HALF_1
 10
5.433130210089536
 20
14.58068541883029
 30
0.0
 42
0.4142135623730951
  0
VERTEX
  5
1EE
  8
IMPORT_-_FOLDAQUAD_HALF_1
 10
5.370630210089538
 20
14.51818541883029
 30
0.0
 42
0.4142135623730951
  0
VERTEX
  5
1EF
  8
IMPORT_-_FOLDAQUAD_HALF_1
 10
5.433130210089536
 20
14.45568541883029
 30
0.0
 42
0.4142135623730951
  0
SEQEND
  5
5BD
  8
IMPORT_-_FOLDAQUAD_HALF_1
  0
POLYLINE
  5
7D
  8
IMPORT_-_FOLDAQUAD_HALF_1
 66
     1
 10
0.0
 20
0.0
 30
0.0
 70
     1
  0
VERTEX
  5
1F0
  8
IMPORT_-_FOLDAQUAD_HALF_1
 10
5.495630210089536
 20
11.26818541883029
 30
0.0
 42
0.4142135623730951
  0
VERTEX
  5
1F1
  8
IMPORT_-_FOLDAQUAD_HALF_1
 10
5.433130210089536
 20
11.33068541883029
 30
0.0
 42
0.4142135623730951
  0
VERTEX
  5
1F2
  8
IMPORT_-_FOLDAQUAD_HALF_1
 10
5.370630210089536
 20
11.26818541883029
 30
0.0
 42
0.4142135623730951
  0
VERTEX
  5
1F3
  8
IMPORT_-_FOLDAQUAD_HALF_1
 10
5.433130210089536
 20
11.20568541883029
 30
0.0
 42
0.4142135623730951
  0
SEQEND
  5
5BE
  8
IMPORT_-_FOLDAQUAD_HALF_1
  0
POLYLINE
  5
7E
  8
IMPORT_-_FOLDAQUAD_HALF_1
 66
     1
 10
0.0
 20
0.0
 30
0.0
 70
     1
  0
VERTEX
  5
1F4
  8
IMPORT_-_FOLDAQUAD_HALF_1
 10
6.486230210089537
 20
11.26818541883029
 30
0.0
 42
0.4142135623730951
  0
VERTEX
  5
1F5
  8
IMPORT_-_FOLDAQUAD_HALF_1
 10
6.423730210089537
 20
11.33068541883029
 30
0.0
 42
0.4142135623730951
  0
VERTEX
  5
1F6
  8
IMPORT_-_FOLDAQUAD_HALF_1
 10
6.361230210089537
 20
11.26818541883029
 30
0.0
 42
0.4142135623730951
  0
VERTEX
  5
1F7
  8
IMPORT_-_FOLDAQUAD_HALF_1
 10
6.423730210089537
 20
11.20568541883029
 30
0.0
 42
0.4142135623730951
  0
SEQEND
  5
5BF
  8
IMPORT_-_FOLDAQUAD_HALF_1
  0
POLYLINE
  5
7F
  8
IMPORT_-_FOLDAQUAD_HALF_1
 66
     1
 10
0.0
 20
0.0
 30
0.0
 70
     1
  0
VERTEX
  5
1F8
  8
IMPORT_-_FOLDAQUAD_HALF_1
 10
7.369730210089535
 20
10.38548541883029
 30
0.0
 42
0.4142135623730951
  0
VERTEX
  5
1F9
  8
IMPORT_-_FOLDAQUAD_HALF_1
 10
7.307230210089535
 20
10.44798541883029
 30
0.0
 42
0.4142135623730951
  0
VERTEX
  5
1FA
  8
IMPORT_-_FOLDAQUAD_HALF_1
 10
7.244730210089535
 20
10.38548541883029
 30
0.0
 42
0.4142135623730951
  0
VERTEX
  5
1FB
  8
IMPORT_-_FOLDAQUAD_HALF_1
 10
7.307230210089535
 20
10.32298541883029
 30
0.0
 42
0.4142135623730951
  0
SEQEND
  5
5C0
  8
IMPORT_-_FOLDAQUAD_HALF_1
  0
POLYLINE
  5
80
  8
IMPORT_-_FOLDAQUAD_HALF_1
 66
     1
 10
0.0
 20
0.0
 30
0.0
 70
     1
  0
VERTEX
  5
1FC
  8
IMPORT_-_FOLDAQUAD_HALF_1
 10
8.251930210089537
 20
11.26818541883029
 30
0.0
 42
0.4142135623730951
  0
VERTEX
  5
1FD
  8
IMPORT_-_FOLDAQUAD_HALF_1
 10
8.189430210089537
 20
11.33068541883029
 30
0.0
 42
0.4142135623730951
  0
VERTEX
  5
1FE
  8
IMPORT_-_FOLDAQUAD_HALF_1
 10
8.126930210089537
 20
11.26818541883029
 30
0.0
 42
0.4142135623730951
  0
VERTEX
  5
1FF
  8
IMPORT_-_FOLDAQUAD_HALF_1
 10
8.189430210089537
 20
11.20568541883029
 30
0.0
 42
0.4142135623730951
  0
SEQEND
  5
5C1
  8
IMPORT_-_FOLDAQUAD_HALF_1
  0
POLYLINE
  5
81
  8
IMPORT_-_FOLDAQUAD_HALF_1
 66
     1
 10
0.0
 20
0.0
 30
0.0
 70
     1
  0
VERTEX
  5
200
  8
IMPORT_-_FOLDAQUAD_HALF_1
 10
7.369730210089535
 20
12.15208541883029
 30
0.0
 42
0.4142135623730951
  0
VERTEX
  5
201
  8
IMPORT_-_FOLDAQUAD_HALF_1
 10
7.307230210089535
 20
12.21458541883029
 30
0.0
 42
0.4142135623730951
  0
VERTEX
  5
202
  8
IMPORT_-_FOLDAQUAD_HALF_1
 10
7.244730210089535
 20
12.15208541883029
 30
0.0
 42
0.4142135623730951
  0
VERTEX
  5
203
  8
IMPORT_-_FOLDAQUAD_HALF_1
 10
7.307230210089535
 20
12.08958541883029
 30
0.0
 42
0.4142135623730951
  0
SEQEND
  5
5C2
  8
IMPORT_-_FOLDAQUAD_HALF_1
  0
POLYLINE
  5
82
  8
IMPORT_-_FOLDAQUAD_HALF_1
 66
     1
 10
0.0
 20
0.0
 30
0.0
 70
     1
  0
VERTEX
  5
204
  8
IMPORT_-_FOLDAQUAD_HALF_1
 10
5.494930210089534
 20
8.018185418830285
 30
0.0
 42
0.4142135623730951
  0
VERTEX
  5
205
  8
IMPORT_-_FOLDAQUAD_HALF_1
 10
5.432430210089534
 20
8.080685418830285
 30
0.0
 42
0.4142135623730951
  0
VERTEX
  5
206
  8
IMPORT_-_FOLDAQUAD_HALF_1
 10
5.369930210089534
 20
8.018185418830285
 30
0.0
 42
0.4142135623730951
  0
VERTEX
  5
207
  8
IMPORT_-_FOLDAQUAD_HALF_1
 10
5.432430210089534
 20
7.955685418830285
 30
0.0
 42
0.4142135623730951
  0
SEQEND
  5
5C3
  8
IMPORT_-_FOLDAQUAD_HALF_1
  0
POLYLINE
  5
83
  8
IMPORT_-_FOLDAQUAD_HALF_1
 66
     1
 10
0.0
 20
0.0
 30
0.0
 70
     1
  0
VERTEX
  5
208
  8
IMPORT_-_FOLDAQUAD_HALF_1
 10
9.243830210089538
 20
8.018185418830285
 30
0.0
 42
0.4142135623730951
  0
VERTEX
  5
209
  8
IMPORT_-_FOLDAQUAD_HALF_1
 10
9.181330210089538
 20
8.080685418830285
 30
0.0
 42
0.4142135623730951
  0
VERTEX
  5
20A
  8
IMPORT_-_FOLDAQUAD_HALF_1
 10
9.118830210089538
 20
8.018185418830285
 30
0.0
 42
0.4142135623730951
  0
VERTEX
  5
20B
  8
IMPORT_-_FOLDAQUAD_HALF_1
 10
9.181330210089538
 20
7.955685418830285
 30
0.0
 42
0.4142135623730951
  0
SEQEND
  5
5C4
  8
IMPORT_-_FOLDAQUAD_HALF_1
  0
POLYLINE
  5
84
  8
IMPORT_-_FOLDAQUAD_HALF_1
 66
     1
 10
0.0
 20
0.0
 30
0.0
 70
     1
  0
VERTEX
  5
20C
  8
IMPORT_-_FOLDAQUAD_HALF_1
 10
7.369730210089535
 20
3.643185418830285
 30
0.0
 42
0.4142135623730951
  0
VERTEX
  5
20D
  8
IMPORT_-_FOLDAQUAD_HALF_1
 10
7.307230210089535
 20
3.705685418830285
 30
0.0
 42
0.4142135623730951
  0
VERTEX
  5
20E
  8
IMPORT_-_FOLDAQUAD_HALF_1
 10
7.244730210089535
 20
3.643185418830285
 30
0.0
 42
0.4142135623730951
  0
VERTEX
  5
20F
  8
IMPORT_-_FOLDAQUAD_HALF_1
 10
7.307230210089535
 20
3.580685418830285
 30
0.0
 42
0.4142135623730951
  0
SEQEND
  5
5C5
  8
IMPORT_-_FOLDAQUAD_HALF_1
  0
POLYLINE
  5
85
  8
IMPORT_-_FOLDAQUAD_HALF_1
 66
     1
 10
0.0
 20
0.0
 30
0.0
 70
     1
  0
VERTEX
  5
210
  8
IMPORT_-_FOLDAQUAD_HALF_1
 10
7.807130210089535
 20
5.268185418830285
 30
0.0
 42
0.4142135623730951
  0
VERTEX
  5
211
  8
IMPORT_-_FOLDAQUAD_HALF_1
 10
7.307130210089535
 20
5.768185418830285
 30
0.0
 42
0.4142135623730951
  0
VERTEX
  5
212
  8
IMPORT_-_FOLDAQUAD_HALF_1
 10
6.807130210089535
 20
5.268185418830285
 30
0.0
 42
0.4142135623730951
  0
VERTEX
  5
213
  8
IMPORT_-_FOLDAQUAD_HALF_1
 10
7.307130210089535
 20
4.768185418830285
 30
0.0
 42
0.4142135623730951
  0
SEQEND
  5
5C6
  8
IMPORT_-_FOLDAQUAD_HALF_1
  0
POLYLINE
  5
86
  8
IMPORT_-_FOLDAQUAD_HALF_1
 66
     1
 10
0.0
 20
0.0
 30
0.0
 70
     1
  0
VERTEX
  5
214
  8
IMPORT_-_FOLDAQUAD_HALF_1
 10
7.807130210089535
 20
7.268185418830285
 30
0.0
 42
0.4142135623730951
  0
VERTEX
  5
215
  8
IMPORT_-_FOLDAQUAD_HALF_1
 10
7.307130210089535
 20
7.768185418830285
 30
0.0
 42
0.4142135623730951
  0
VERTEX
  5
216
  8
IMPORT_-_FOLDAQUAD_HALF_1
 10
6.807130210089535
 20
7.268185418830285
 30
0.0
 42
0.4142135623730951
  0
VERTEX
  5
217
  8
IMPORT_-_FOLDAQUAD_HALF_1
 10
7.307130210089535
 20
6.768185418830285
 30
0.0
 42
0.4142135623730951
  0
SEQEND
  5
5C7
  8
IMPORT_-_FOLDAQUAD_HALF_1
  0
POLYLINE
  5
87
  8
IMPORT_-_FOLDAQUAD_HALF_1
 66
     1
 10
0.0
 20
0.0
 30
0.0
 70
     1
  0
VERTEX
  5
218
  8
IMPORT_-_FOLDAQUAD_HALF_1
 10
7.807130210089535
 20
9.268185418830285
 30
0.0
 42
0.4142135623730951
  0
VERTEX
  5
219
  8
IMPORT_-_FOLDAQUAD_HALF_1
 10
7.307130210089535
 20
9.768185418830285
 30
0.0
 42
0.4142135623730951
  0
VERTEX
  5
21A
  8
IMPORT_-_FOLDAQUAD_HALF_1
 10
6.807130210089535
 20
9.268185418830285
 30
0.0
 42
0.4142135623730951
  0
VERTEX
  5
21B
  8
IMPORT_-_FOLDAQUAD_HALF_1
 10
7.307130210089535
 20
8.768185418830285
 30
0.0
 42
0.4142135623730951
  0
SEQEND
  5
5C8
  8
IMPORT_-_FOLDAQUAD_HALF_1
  0
POLYLINE
  5
88
  8
IMPORT_-_FOLDAQUAD_HALF_1
 66
     1
 10
0.0
 20
0.0
 30
0.0
 70
     1
  0
VERTEX
  5
21C
  8
IMPORT_-_FOLDAQUAD_HALF_1
 10
7.807230210089535
 20
17.14318541883029
 30
0.0
 42
0.4142135623730951
  0
VERTEX
  5
21D
  8
IMPORT_-_FOLDAQUAD_HALF_1
 10
7.307230210089535
 20
17.64318541883029
 30
0.0
 42
0.4142135623730951
  0
VERTEX
  5
21E
  8
IMPORT_-_FOLDAQUAD_HALF_1
 10
6.807230210089535
 20
17.14318541883029
 30
0.0
 42
0.4142135623730951
  0
VERTEX
  5
21F
  8
IMPORT_-_FOLDAQUAD_HALF_1
 10
7.307230210089535
 20
16.64318541883029
 30
0.0
 42
0.4142135623730951
  0
SEQEND
  5
5C9
  8
IMPORT_-_FOLDAQUAD_HALF_1
  0
POLYLINE
  5
89
  8
IMPORT_-_FOLDAQUAD_HALF_1
 66
     1
 10
0.0
 20
0.0
 30
0.0
 70
     1
  0
VERTEX
  5
220
  8
IMPORT_-_FOLDAQUAD_HALF_1
 10
7.807130210089535
 20
15.26818541883029
 30
0.0
 42
0.4142135623730951
  0
VERTEX
  5
221
  8
IMPORT_-_FOLDAQUAD_HALF_1
 10
7.307130210089535
 20
15.76818541883029
 30
0.0
 42
0.4142135623730951
  0
VERTEX
  5
222
  8
IMPORT_-_FOLDAQUAD_HALF_1
 10
6.807130210089535
 20
15.26818541883029
 30
0.0
 42
0.4142135623730951
  0
VERTEX
  5
223
  8
IMPORT_-_FOLDAQUAD_HALF_1
 10
7.307130210089535
 20
14.76818541883029
 30
0.0
 42
0.4142135623730951
  0
SEQEND
  5
5CA
  8
IMPORT_-_FOLDAQUAD_HALF_1
  0
POLYLINE
  5
8A
  8
IMPORT_-_FOLDAQUAD_HALF_1
 66
     1
 10
0.0
 20
0.0
 30
0.0
 70
     1
  0
VERTEX
  5
224
  8
IMPORT_-_FOLDAQUAD_HALF_1
 10
7.807130210089535
 20
13.26818541883029
 30
0.0
 42
0.4142135623730951
  0
VERTEX
  5
225
  8
IMPORT_-_FOLDAQUAD_HALF_1
 10
7.307130210089535
 20
13.76818541883029
 30
0.0
 42
0.4142135623730951
  0
VERTEX
  5
226
  8
IMPORT_-_FOLDAQUAD_HALF_1
 10
6.807130210089535
 20
13.26818541883029
 30
0.0
 42
0.4142135623730951
  0
VERTEX
  5
227
  8
IMPORT_-_FOLDAQUAD_HALF_1
 10
7.307130210089535
 20
12.76818541883029
 30
0.0
 42
0.4142135623730951
  0
SEQEND
  5
5CB
  8
IMPORT_-_FOLDAQUAD_HALF_1
  0
POLYLINE
  5
8B
  8
IMPORT_-_FOLDAQUAD_HALF_1
 66
     1
 10
0.0
 20
0.0
 30
0.0
 70
     1
  0
VERTEX
  5
228
  8
IMPORT_-_FOLDAQUAD_HALF_1
 10
12.20149502458542
 20
25.85404996350781
 30
0.0
 42
0.4142135623730951
  0
VERTEX
  5
229
  8
IMPORT_-_FOLDAQUAD_HALF_1
 10
12.13899502458542
 20
25.91654996350781
 30
0.0
 42
0.4142135623730951
  0
VERTEX
  5
22A
  8
IMPORT_-_FOLDAQUAD_HALF_1
 10
12.07649502458542
 20
25.85404996350781
 30
0.0
 42
0.4142135623730951
  0
VERTEX
  5
22B
  8
IMPORT_-_FOLDAQUAD_HALF_1
 10
12.13899502458542
 20
25.79154996350781
 30
0.0
 42
0.4142135623730951
  0
SEQEND
  5
5CC
  8
IMPORT_-_FOLDAQUAD_HALF_1
  0
POLYLINE
  5
8C
  8
IMPORT_-_FOLDAQUAD_HALF_1
 66
     1
 10
0.0
 20
0.0
 30
0.0
 70
     1
  0
VERTEX
  5
22C
  8
IMPORT_-_FOLDAQUAD_HALF_1
 10
14.42139502458542
 20
25.63304996350781
 30
0.0
 42
0.4142135623730951
  0
VERTEX
  5
22D
  8
IMPORT_-_FOLDAQUAD_HALF_1
 10
14.35889502458542
 20
25.69554996350781
 30
0.0
 42
0.4142135623730951
  0
VERTEX
  5
22E
  8
IMPORT_-_FOLDAQUAD_HALF_1
 10
14.29639502458542
 20
25.63304996350781
 30
0.0
 42
0.4142135623730951
  0
VERTEX
  5
22F
  8
IMPORT_-_FOLDAQUAD_HALF_1
 10
14.35889502458542
 20
25.57054996350781
 30
0.0
 42
0.4142135623730951
  0
SEQEND
  5
5CD
  8
IMPORT_-_FOLDAQUAD_HALF_1
  0
POLYLINE
  5
8D
  8
IMPORT_-_FOLDAQUAD_HALF_1
 66
     1
 10
0.0
 20
0.0
 30
0.0
 70
     1
  0
VERTEX
  5
230
  8
IMPORT_-_FOLDAQUAD_HALF_1
 10
13.97969502458542
 20
26.07494996350781
 30
0.0
 42
0.4142135623730951
  0
VERTEX
  5
231
  8
IMPORT_-_FOLDAQUAD_HALF_1
 10
13.91719502458542
 20
26.13744996350781
 30
0.0
 42
0.4142135623730951
  0
VERTEX
  5
232
  8
IMPORT_-_FOLDAQUAD_HALF_1
 10
13.85469502458542
 20
26.07494996350781
 30
0.0
 42
0.4142135623730951
  0
VERTEX
  5
233
  8
IMPORT_-_FOLDAQUAD_HALF_1
 10
13.91719502458542
 20
26.01244996350781
 30
0.0
 42
0.4142135623730951
  0
SEQEND
  5
5CE
  8
IMPORT_-_FOLDAQUAD_HALF_1
  0
POLYLINE
  5
8E
  8
IMPORT_-_FOLDAQUAD_HALF_1
 66
     1
 10
0.0
 20
0.0
 30
0.0
 70
     1
  0
VERTEX
  5
234
  8
IMPORT_-_FOLDAQUAD_HALF_1
 10
13.20109502458542
 20
25.85404996350781
 30
0.0
 42
0.4142135623730951
  0
VERTEX
  5
235
  8
IMPORT_-_FOLDAQUAD_HALF_1
 10
13.13859502458542
 20
25.91654996350781
 30
0.0
 42
0.4142135623730951
  0
VERTEX
  5
236
  8
IMPORT_-_FOLDAQUAD_HALF_1
 10
13.07609502458542
 20
25.85404996350781
 30
0.0
 42
0.4142135623730951
  0
VERTEX
  5
237
  8
IMPORT_-_FOLDAQUAD_HALF_1
 10
13.13859502458542
 20
25.79154996350781
 30
0.0
 42
0.4142135623730951
  0
SEQEND
  5
5CF
  8
IMPORT_-_FOLDAQUAD_HALF_1
  0
POLYLINE
  5
8F
  8
IMPORT_-_FOLDAQUAD_HALF_1
 66
     1
 10
0.0
 20
0.0
 30
0.0
 70
     1
  0
VERTEX
  5
238
  8
IMPORT_-_FOLDAQUAD_HALF_1
 10
14.33769502458542
 20
25.85404996350781
 30
0.0
 42
0.4142135623730951
  0
VERTEX
  5
239
  8
IMPORT_-_FOLDAQUAD_HALF_1
 10
14.13769502458542
 20
26.05404996350781
 30
0.0
 42
0.4142135623730951
  0
VERTEX
  5
23A
  8
IMPORT_-_FOLDAQUAD_HALF_1
 10
13.93769502458542
 20
25.85404996350781
 30
0.0
 42
0.4142135623730951
  0
VERTEX
  5
23B
  8
IMPORT_-_FOLDAQUAD_HALF_1
 10
14.13769502458542
 20
25.65404996350781
 30
0.0
 42
0.4142135623730951
  0
SEQEND
  5
5D0
  8
IMPORT_-_FOLDAQUAD_HALF_1
  0
POLYLINE
  5
90
  8
IMPORT_-_FOLDAQUAD_HALF_1
 66
     1
 10
0.0
 20
0.0
 30
0.0
 70
     1
  0
VERTEX
  5
23C
  8
IMPORT_-_FOLDAQUAD_HALF_1
 10
12.83769502458542
 20
25.85404996350781
 30
0.0
 42
0.4142135623730951
  0
VERTEX
  5
23D
  8
IMPORT_-_FOLDAQUAD_HALF_1
 10
12.63769502458542
 20
26.05404996350781
 30
0.0
 42
0.4142135623730951
  0
VERTEX
  5
23E
  8
IMPORT_-_FOLDAQUAD_HALF_1
 10
12.43769502458542
 20
25.85404996350781
 30
0.0
 42
0.4142135623730951
  0
VERTEX
  5
23F
  8
IMPORT_-_FOLDAQUAD_HALF_1
 10
12.63769502458542
 20
25.65404996350781
 30
0.0
 42
0.4142135623730951
  0
SEQEND
  5
5D1
  8
IMPORT_-_FOLDAQUAD_HALF_1
  0
POLYLINE
  5
91
  8
IMPORT_-_FOLDAQUAD_HALF_1
 66
     1
 10
0.0
 20
0.0
 30
0.0
 70
     1
  0
VERTEX
  5
240
  8
IMPORT_-_FOLDAQUAD_HALF_1
 10
12.38315592423939
 20
4.009326780116826
 30
0.0
 42
0.4142135623730951
  0
VERTEX
  5
241
  8
IMPORT_-_FOLDAQUAD_HALF_1
 10
12.32065592423939
 20
4.071826780116826
 30
0.0
 42
0.4142135623730951
  0
VERTEX
  5
242
  8
IMPORT_-_FOLDAQUAD_HALF_1
 10
12.25815592423939
 20
4.009326780116826
 30
0.0
 42
0.4142135623730951
  0
VERTEX
  5
243
  8
IMPORT_-_FOLDAQUAD_HALF_1
 10
12.32065592423939
 20
3.946826780116826
 30
0.0
 42
0.4142135623730951
  0
SEQEND
  5
5D2
  8
IMPORT_-_FOLDAQUAD_HALF_1
  0
POLYLINE
  5
92
  8
IMPORT_-_FOLDAQUAD_HALF_1
 66
     1
 10
0.0
 20
0.0
 30
0.0
 70
     1
  0
VERTEX
  5
244
  8
IMPORT_-_FOLDAQUAD_HALF_1
 10
14.6030559242394
 20
3.788326780116826
 30
0.0
 42
0.4142135623730951
  0
VERTEX
  5
245
  8
IMPORT_-_FOLDAQUAD_HALF_1
 10
14.5405559242394
 20
3.850826780116826
 30
0.0
 42
0.4142135623730951
  0
VERTEX
  5
246
  8
IMPORT_-_FOLDAQUAD_HALF_1
 10
14.4780559242394
 20
3.788326780116826
 30
0.0
 42
0.4142135623730951
  0
VERTEX
  5
247
  8
IMPORT_-_FOLDAQUAD_HALF_1
 10
14.5405559242394
 20
3.725826780116826
 30
0.0
 42
0.4142135623730951
  0
SEQEND
  5
5D3
  8
IMPORT_-_FOLDAQUAD_HALF_1
  0
POLYLINE
  5
93
  8
IMPORT_-_FOLDAQUAD_HALF_1
 66
     1
 10
0.0
 20
0.0
 30
0.0
 70
     1
  0
VERTEX
  5
248
  8
IMPORT_-_FOLDAQUAD_HALF_1
 10
14.1613559242394
 20
4.230226780116826
 30
0.0
 42
0.4142135623730951
  0
VERTEX
  5
249
  8
IMPORT_-_FOLDAQUAD_HALF_1
 10
14.0988559242394
 20
4.292726780116826
 30
0.0
 42
0.4142135623730951
  0
VERTEX
  5
24A
  8
IMPORT_-_FOLDAQUAD_HALF_1
 10
14.0363559242394
 20
4.230226780116826
 30
0.0
 42
0.4142135623730951
  0
VERTEX
  5
24B
  8
IMPORT_-_FOLDAQUAD_HALF_1
 10
14.0988559242394
 20
4.167726780116826
 30
0.0
 42
0.4142135623730951
  0
SEQEND
  5
5D4
  8
IMPORT_-_FOLDAQUAD_HALF_1
  0
POLYLINE
  5
94
  8
IMPORT_-_FOLDAQUAD_HALF_1
 66
     1
 10
0.0
 20
0.0
 30
0.0
 70
     1
  0
VERTEX
  5
24C
  8
IMPORT_-_FOLDAQUAD_HALF_1
 10
13.3827559242394
 20
4.009326780116826
 30
0.0
 42
0.4142135623730951
  0
VERTEX
  5
24D
  8
IMPORT_-_FOLDAQUAD_HALF_1
 10
13.3202559242394
 20
4.071826780116826
 30
0.0
 42
0.4142135623730951
  0
VERTEX
  5
24E
  8
IMPORT_-_FOLDAQUAD_HALF_1
 10
13.2577559242394
 20
4.009326780116826
 30
0.0
 42
0.4142135623730951
  0
VERTEX
  5
24F
  8
IMPORT_-_FOLDAQUAD_HALF_1
 10
13.3202559242394
 20
3.946826780116826
 30
0.0
 42
0.4142135623730951
  0
SEQEND
  5
5D5
  8
IMPORT_-_FOLDAQUAD_HALF_1
  0
POLYLINE
  5
95
  8
IMPORT_-_FOLDAQUAD_HALF_1
 66
     1
 10
0.0
 20
0.0
 30
0.0
 70
     1
  0
VERTEX
  5
250
  8
IMPORT_-_FOLDAQUAD_HALF_1
 10
14.5193559242394
 20
4.009326780116826
 30
0.0
 42
0.4142135623730951
  0
VERTEX
  5
251
  8
IMPORT_-_FOLDAQUAD_HALF_1
 10
14.31935592423939
 20
4.209326780116825
 30
0.0
 42
0.4142135623730951
  0
VERTEX
  5
252
  8
IMPORT_-_FOLDAQUAD_HALF_1
 10
14.1193559242394
 20
4.009326780116826
 30
0.0
 42
0.4142135623730951
  0
VERTEX
  5
253
  8
IMPORT_-_FOLDAQUAD_HALF_1
 10
14.31935592423939
 20
3.809326780116823
 30
0.0
 42
0.4142135623730951
  0
SEQEND
  5
5D6
  8
IMPORT_-_FOLDAQUAD_HALF_1
  0
POLYLINE
  5
96
  8
IMPORT_-_FOLDAQUAD_HALF_1
 66
     1
 10
0.0
 20
0.0
 30
0.0
 70
     1
  0
VERTEX
  5
254
  8
IMPORT_-_FOLDAQUAD_HALF_1
 10
13.0193559242394
 20
4.009326780116826
 30
0.0
 42
0.4142135623730951
  0
VERTEX
  5
255
  8
IMPORT_-_FOLDAQUAD_HALF_1
 10
12.81935592423939
 20
4.209326780116825
 30
0.0
 42
0.4142135623730951
  0
VERTEX
  5
256
  8
IMPORT_-_FOLDAQUAD_HALF_1
 10
12.6193559242394
 20
4.009326780116826
 30
0.0
 42
0.4142135623730951
  0
VERTEX
  5
257
  8
IMPORT_-_FOLDAQUAD_HALF_1
 10
12.81935592423939
 20
3.809326780116827
 30
0.0
 42
0.4142135623730951
  0
SEQEND
  5
5D7
  8
IMPORT_-_FOLDAQUAD_HALF_1
  0
POLYLINE
  5
98
  8
LAYER_2
 66
     1
 10
0.0
 20
0.0
 30
0.0
 70
     1
  0
VERTEX
  5
258
  8
LAYER_2
 10
5.266189482803729
 20
15.05545050631198
 30
0.0
  0
VERTEX
  5
259
  8
LAYER_2
 10
4.225584703854413
 20
15.9808213471216
 30
0.0
 42
-0.2141737949642629
  0
VERTEX
  5
25A
  8
LAYER_2
 10
4.183649678650647
 20
16.07423017947754
 30
0.0
  0
VERTEX
  5
25B
  8
LAYER_2
 10
4.183649678650647
 20
19.14318541883028
 30
0.0
 42
-0.4142135623731313
  0
VERTEX
  5
25C
  8
LAYER_2
 10
4.308649678650647
 20
19.26818541883028
 30
0.0
  0
VERTEX
  5
25D
  8
LAYER_2
 10
10.30570507512098
 20
19.26818541883028
 30
0.0
 42
-0.4142135623732745
  0
VERTEX
  5
25E
  8
LAYER_2
 10
10.43070507512098
 20
19.14318541883028
 30
0.0
  0
VERTEX
  5
25F
  8
LAYER_2
 10
10.43070507512097
 20
16.07431483976188
 30
0.0
 42
-0.2141623770402245
  0
VERTEX
  5
260
  8
LAYER_2
 10
10.3887741288809
 20
15.98090963483502
 30
0.0
  0
VERTEX
  5
261
  8
LAYER_2
 10
9.348151979655665
 20
15.05544196603159
 30
0.0
 42
0.2141623770392231
  0
VERTEX
  5
262
  8
LAYER_2
 10
9.3062210334156
 20
14.96203676110473
 30
0.0
  0
VERTEX
  5
263
  8
LAYER_2
 10
9.306221033415603
 20
7.574334076555829
 30
0.0
 42
0.2141623770393757
  0
VERTEX
  5
264
  8
LAYER_2
 10
9.348151979655668
 20
7.480928871628969
 30
0.0
  0
VERTEX
  5
265
  8
LAYER_2
 10
10.38877412888091
 20
6.555461202825541
 30
0.0
 42
-0.2141623770405423
  0
VERTEX
  5
266
  8
LAYER_2
 10
10.43070507512098
 20
6.462055997898677
 30
0.0
  0
VERTEX
  5
267
  8
LAYER_2
 10
10.43070507512097
 20
3.393185418830285
 30
0.0
 42
-0.4142135623756218
  0
VERTEX
  5
268
  8
LAYER_2
 10
10.30570507512097
 20
3.268185418830285
 30
0.0
  0
VERTEX
  5
269
  8
LAYER_2
 10
4.308649678650643
 20
3.268185418830284
 30
0.0
 42
-0.4142135623708114
  0
VERTEX
  5
26A
  8
LAYER_2
 10
4.183649678650643
 20
3.393185418830284
 30
0.0
  0
VERTEX
  5
26B
  8
LAYER_2
 10
4.183649678650645
 20
6.462096846269605
 30
0.0
 42
-0.2140201381230837
  0
VERTEX
  5
26C
  8
LAYER_2
 10
4.225529822844165
 20
6.555456846112743
 30
0.0
  0
VERTEX
  5
26D
  8
LAYER_2
 10
5.265031625776643
 20
7.480941423185318
 30
0.0
 42
0.2139772198623353
  0
VERTEX
  5
26E
  8
LAYER_2
 10
5.306911768285974
 20
7.574280903593891
 30
0.0
  0
VERTEX
  5
26F
  8
LAYER_2
 10
5.308124506323307
 20
14.96202115452147
 30
0.0
 42
0.2142167166807919
  0
SEQEND
  5
5D8
  8
LAYER_2
  0
POLYLINE
  5
9A
  8
LAYER_3
 66
     1
 10
0.0
 20
0.0
 30
0.0
 70
     1
  0
VERTEX
  5
270
  8
LAYER_3
 10
5.273494552820615
 20
19.48087692265001
 30
0.0
  0
VERTEX
  5
271
  8
LAYER_3
 10
4.398482873338569
 20
19.48087692265001
 30
0.0
 42
-0.4142135623717849
  0
VERTEX
  5
272
  8
LAYER_3
 10
4.273482873338565
 20
19.60587692265001
 30
0.0
  0
VERTEX
  5
273
  8
LAYER_3
 10
4.273482873338576
 20
23.20069909745216
 30
0.0
 42
-0.6470505614569019
  0
VERTEX
  5
274
  8
LAYER_3
 10
4.481505681647601
 20
23.29414540984855
 30
0.0
  0
VERTEX
  5
275
  8
LAYER_3
 10
5.356517361129633
 20
22.51673723748922
 30
0.0
 42
-0.2142918054869432
  0
VERTEX
  5
276
  8
LAYER_3
 10
5.398494552820608
 20
22.42329092509284
 30
0.0
  0
VERTEX
  5
277
  8
LAYER_3
 10
5.398494552820619
 20
19.60587692265
 30
0.0
 42
-0.4142135623736556
  0
SEQEND
  5
5D9
  8
LAYER_3
  0
POLYLINE
  5
9B
  8
LAYER_3
 66
     1
 10
0.0
 20
0.0
 30
0.0
 70
     1
  0
VERTEX
  5
278
  8
LAYER_3
 10
4.443898098252063
 20
26.73181458116971
 30
0.0
  0
VERTEX
  5
279
  8
LAYER_3
 10
5.31890977773411
 20
26.73181458116971
 30
0.0
 42
-0.4142135623717849
  0
VERTEX
  5
27A
  8
LAYER_3
 10
5.443909777734113
 20
26.60681458116971
 30
0.0
  0
VERTEX
  5
27B
  8
LAYER_3
 10
5.443909777734103
 20
23.01199240636756
 30
0.0
 42
-0.6470505614569019
  0
VERTEX
  5
27C
  8
LAYER_3
 10
5.235886969425078
 20
22.91854609397117
 30
0.0
  0
VERTEX
  5
27D
  8
LAYER_3
 10
4.360875289943046
 20
23.69595426633051
 30
0.0
 42
-0.2142918054869432
  0
VERTEX
  5
27E
  8
LAYER_3
 10
4.31889809825207
 20
23.78940057872689
 30
0.0
  0
VERTEX
  5
27F
  8
LAYER_3
 10
4.31889809825206
 20
26.60681458116972
 30
0.0
 42
-0.4142135623736556
  0
SEQEND
  5
5DA
  8
LAYER_3
  0
POLYLINE
  5
9C
  8
LAYER_3
 66
     1
 10
0.0
 20
0.0
 30
0.0
 70
     1
  0
VERTEX
  5
280
  8
LAYER_3
 10
11.16788969279681
 20
26.41647269891731
 30
0.0
  0
VERTEX
  5
281
  8
LAYER_3
 10
14.76271186759897
 20
26.41647269891732
 30
0.0
 42
-0.4142135623718701
  0
VERTEX
  5
282
  8
LAYER_3
 10
14.88771186759897
 20
26.29147269891732
 30
0.0
  0
VERTEX
  5
283
  8
LAYER_3
 10
14.88771186759897
 20
25.41646101943528
 30
0.0
 42
-0.4142135623721614
  0
VERTEX
  5
284
  8
LAYER_3
 10
14.76271186759897
 20
25.29146101943528
 30
0.0
  0
VERTEX
  5
285
  8
LAYER_3
 10
11.94529786515613
 20
25.29146101943528
 30
0.0
 42
-0.2142918054869754
  0
VERTEX
  5
286
  8
LAYER_3
 10
11.85185155275975
 20
25.33343821112626
 30
0.0
  0
VERTEX
  5
287
  8
LAYER_3
 10
11.07444338040042
 20
26.20844989060829
 30
0.0
 42
-0.6470505614572672
  0
SEQEND
  5
5DB
  8
LAYER_3
  0
POLYLINE
  5
9D
  8
LAYER_3
 66
     1
 10
0.0
 20
0.0
 30
0.0
 70
     1
  0
VERTEX
  5
288
  8
LAYER_3
 10
11.34955059245079
 20
4.571749515526331
 30
0.0
  0
VERTEX
  5
289
  8
LAYER_3
 10
14.94437276725295
 20
4.571749515526335
 30
0.0
 42
-0.4142135623718701
  0
VERTEX
  5
28A
  8
LAYER_3
 10
15.06937276725295
 20
4.446749515526335
 30
0.0
  0
VERTEX
  5
28B
  8
LAYER_3
 10
15.06937276725295
 20
3.571737836044296
 30
0.0
 42
-0.4142135623721614
  0
VERTEX
  5
28C
  8
LAYER_3
 10
14.94437276725295
 20
3.446737836044296
 30
0.0
  0
VERTEX
  5
28D
  8
LAYER_3
 10
12.12695876481011
 20
3.446737836044299
 30
0.0
 42
-0.2142918054869754
  0
VERTEX
  5
28E
  8
LAYER_3
 10
12.03351245241372
 20
3.488715027735275
 30
0.0
  0
VERTEX
  5
28F
  8
LAYER_3
 10
11.2561042800544
 20
4.36372670721731
 30
0.0
 42
-0.6470505614572672
  0
SEQEND
  5
5DC
  8
LAYER_3
  0
POLYLINE
  5
9F
  8
LAYER_6
 66
     1
 10
0.0
 20
0.0
 30
0.0
 70
     1
  0
VERTEX
  5
290
  8
LAYER_6
 10
7.242866458388797
 20
21.09794320429184
 30
0.0
 42
0.4142135623730951
  0
VERTEX
  5
291
  8
LAYER_6
 10
7.742866458388797
 20
20.59794320429184
 30
0.0
 42
0.4142135623730951
  0
VERTEX
  5
292
  8
LAYER_6
 10
8.242866458388797
 20
21.09794320429184
 30
0.0
 42
0.4142135623730951
  0
VERTEX
  5
293
  8
LAYER_6
 10
7.742866458388797
 20
21.59794320429184
 30
0.0
 42
0.4142135623730951
  0
SEQEND
  5
5DD
  8
LAYER_6
  0
POLYLINE
  5
A0
  8
LAYER_6
 66
     1
 10
0.0
 20
0.0
 30
0.0
 70
     1
  0
VERTEX
  5
294
  8
LAYER_6
 10
7.242866458388797
 20
23.09794320429184
 30
0.0
 42
0.4142135623730951
  0
VERTEX
  5
295
  8
LAYER_6
 10
7.742866458388797
 20
22.59794320429184
 30
0.0
 42
0.4142135623730951
  0
VERTEX
  5
296
  8
LAYER_6
 10
8.242866458388797
 20
23.09794320429184
 30
0.0
 42
0.4142135623730951
  0
VERTEX
  5
297
  8
LAYER_6
 10
7.742866458388797
 20
23.59794320429184
 30
0.0
 42
0.4142135623730951
  0
SEQEND
  5
5DE
  8
LAYER_6
  0
POLYLINE
  5
A1
  8
LAYER_6
 66
     1
 10
0.0
 20
0.0
 30
0.0
 70
     1
  0
VERTEX
  5
298
  8
LAYER_6
 10
5.806166458388795
 20
19.84794320429184
 30
0.0
 42
0.4142135623730951
  0
VERTEX
  5
299
  8
LAYER_6
 10
5.868666458388795
 20
19.78544320429184
 30
0.0
 42
0.4142135623730951
  0
VERTEX
  5
29A
  8
LAYER_6
 10
5.931166458388795
 20
19.84794320429184
 30
0.0
 42
0.4142135623730951
  0
VERTEX
  5
29B
  8
LAYER_6
 10
5.868666458388795
 20
19.91044320429184
 30
0.0
 42
0.4142135623730951
  0
SEQEND
  5
5DF
  8
LAYER_6
  0
POLYLINE
  5
A2
  8
LAYER_6
 66
     1
 10
0.0
 20
0.0
 30
0.0
 70
     1
  0
VERTEX
  5
29C
  8
LAYER_6
 10
9.554366458388795
 20
19.84794320429184
 30
0.0
 42
0.4142135623730951
  0
VERTEX
  5
29D
  8
LAYER_6
 10
9.616866458388795
 20
19.78544320429184
 30
0.0
 42
0.4142135623730951
  0
VERTEX
  5
29E
  8
LAYER_6
 10
9.679366458388795
 20
19.84794320429184
 30
0.0
 42
0.4142135623730951
  0
VERTEX
  5
29F
  8
LAYER_6
 10
9.616866458388795
 20
19.91044320429184
 30
0.0
 42
0.4142135623730951
  0
SEQEND
  5
5E0
  8
LAYER_6
  0
POLYLINE
  5
A3
  8
LAYER_6
 66
     1
 10
0.0
 20
0.0
 30
0.0
 70
     1
  0
VERTEX
  5
2A0
  8
LAYER_6
 10
9.555066458388794
 20
26.34794320429184
 30
0.0
 42
0.4142135623730951
  0
VERTEX
  5
2A1
  8
LAYER_6
 10
9.617566458388794
 20
26.28544320429184
 30
0.0
 42
0.4142135623730951
  0
VERTEX
  5
2A2
  8
LAYER_6
 10
9.680066458388794
 20
26.34794320429184
 30
0.0
 42
0.4142135623730951
  0
VERTEX
  5
2A3
  8
LAYER_6
 10
9.617566458388794
 20
26.41044320429184
 30
0.0
 42
0.4142135623730951
  0
SEQEND
  5
5E1
  8
LAYER_6
  0
POLYLINE
  5
A4
  8
LAYER_6
 66
     1
 10
0.0
 20
0.0
 30
0.0
 70
     1
  0
VERTEX
  5
2A4
  8
LAYER_6
 10
5.806166458388795
 20
26.34794320429184
 30
0.0
 42
0.4142135623730951
  0
VERTEX
  5
2A5
  8
LAYER_6
 10
5.868666458388795
 20
26.28544320429184
 30
0.0
 42
0.4142135623730951
  0
VERTEX
  5
2A6
  8
LAYER_6
 10
5.931166458388795
 20
26.34794320429184
 30
0.0
 42
0.4142135623730951
  0
VERTEX
  5
2A7
  8
LAYER_6
 10
5.868666458388795
 20
26.41044320429184
 30
0.0
 42
0.4142135623730951
  0
SEQEND
  5
5E2
  8
LAYER_6
  0
POLYLINE
  5
A5
  8
LAYER_6
 66
     1
 10
0.0
 20
0.0
 30
0.0
 70
     1
  0
VERTEX
  5
2A8
  8
LAYER_6
 10
9.930977287761138
 20
3.580685418830278
 30
0.0
 42
0.4142135623730951
  0
VERTEX
  5
2A9
  8
LAYER_6
 10
9.868477287761138
 20
3.643185418830278
 30
0.0
 42
0.4142135623730951
  0
VERTEX
  5
2AA
  8
LAYER_6
 10
9.805977287761138
 20
3.580685418830278
 30
0.0
 42
0.4142135623730951
  0
VERTEX
  5
2AB
  8
LAYER_6
 10
9.868477287761138
 20
3.518185418830278
 30
0.0
 42
0.4142135623730951
  0
SEQEND
  5
5E3
  8
LAYER_6
  0
POLYLINE
  5
A6
  8
LAYER_6
 66
     1
 10
0.0
 20
0.0
 30
0.0
 70
     1
  0
VERTEX
  5
2AC
  8
LAYER_6
 10
4.808477287761138
 20
3.580685418830279
 30
0.0
 42
0.4142135623730951
  0
VERTEX
  5
2AD
  8
LAYER_6
 10
4.745977287761138
 20
3.643185418830281
 30
0.0
 42
0.4142135623730951
  0
VERTEX
  5
2AE
  8
LAYER_6
 10
4.683477287761138
 20
3.580685418830281
 30
0.0
 42
0.4142135623730951
  0
VERTEX
  5
2AF
  8
LAYER_6
 10
4.745977287761138
 20
3.518185418830281
 30
0.0
 42
0.4142135623730951
  0
SEQEND
  5
5E4
  8
LAYER_6
  0
POLYLINE
  5
A7
  8
LAYER_6
 66
     1
 10
0.0
 20
0.0
 30
0.0
 70
     1
  0
VERTEX
  5
2B0
  8
LAYER_6
 10
9.930977287761142
 20
18.95568541883028
 30
0.0
 42
0.4142135623730951
  0
VERTEX
  5
2B1
  8
LAYER_6
 10
9.868477287761142
 20
19.01818541883028
 30
0.0
 42
0.4142135623730951
  0
VERTEX
  5
2B2
  8
LAYER_6
 10
9.805977287761142
 20
18.95568541883028
 30
0.0
 42
0.4142135623730951
  0
VERTEX
  5
2B3
  8
LAYER_6
 10
9.868477287761142
 20
18.89318541883028
 30
0.0
 42
0.4142135623730951
  0
SEQEND
  5
5E5
  8
LAYER_6
  0
POLYLINE
  5
A8
  8
LAYER_6
 66
     1
 10
0.0
 20
0.0
 30
0.0
 70
     1
  0
VERTEX
  5
2B4
  8
LAYER_6
 10
4.80847728776114
 20
18.95568541883028
 30
0.0
 42
0.4142135623730951
  0
VERTEX
  5
2B5
  8
LAYER_6
 10
4.74597728776114
 20
19.01818541883028
 30
0.0
 42
0.4142135623730951
  0
VERTEX
  5
2B6
  8
LAYER_6
 10
4.68347728776114
 20
18.95568541883028
 30
0.0
 42
0.4142135623730951
  0
VERTEX
  5
2B7
  8
LAYER_6
 10
4.74597728776114
 20
18.89318541883028
 30
0.0
 42
0.4142135623730951
  0
SEQEND
  5
5E6
  8
LAYER_6
  0
POLYLINE
  5
A9
  8
LAYER_6
 66
     1
 10
0.0
 20
0.0
 30
0.0
 70
     1
  0
VERTEX
  5
2B8
  8
LAYER_6
 10
8.99397728776114
 20
18.51818541883028
 30
0.0
 42
0.4142135623730951
  0
VERTEX
  5
2B9
  8
LAYER_6
 10
8.93147728776114
 20
18.58068541883028
 30
0.0
 42
0.4142135623730951
  0
VERTEX
  5
2BA
  8
LAYER_6
 10
8.86897728776114
 20
18.51818541883028
 30
0.0
 42
0.4142135623730951
  0
VERTEX
  5
2BB
  8
LAYER_6
 10
8.93147728776114
 20
18.45568541883028
 30
0.0
 42
0.4142135623730951
  0
SEQEND
  5
5E7
  8
LAYER_6
  0
POLYLINE
  5
AA
  8
LAYER_6
 66
     1
 10
0.0
 20
0.0
 30
0.0
 70
     1
  0
VERTEX
  5
2BC
  8
LAYER_6
 10
5.74547728776114
 20
18.51818541883028
 30
0.0
 42
0.4142135623730951
  0
VERTEX
  5
2BD
  8
LAYER_6
 10
5.68297728776114
 20
18.58068541883028
 30
0.0
 42
0.4142135623730951
  0
VERTEX
  5
2BE
  8
LAYER_6
 10
5.62047728776114
 20
18.51818541883028
 30
0.0
 42
0.4142135623730951
  0
VERTEX
  5
2BF
  8
LAYER_6
 10
5.68297728776114
 20
18.45568541883028
 30
0.0
 42
0.4142135623730951
  0
SEQEND
  5
5E8
  8
LAYER_6
  0
POLYLINE
  5
AB
  8
LAYER_6
 66
     1
 10
0.0
 20
0.0
 30
0.0
 70
     1
  0
VERTEX
  5
2C0
  8
LAYER_6
 10
8.99397728776114
 20
4.018185418830278
 30
0.0
 42
0.4142135623730951
  0
VERTEX
  5
2C1
  8
LAYER_6
 10
8.93147728776114
 20
4.080685418830278
 30
0.0
 42
0.4142135623730951
  0
VERTEX
  5
2C2
  8
LAYER_6
 10
8.86897728776114
 20
4.018185418830278
 30
0.0
 42
0.4142135623730951
  0
VERTEX
  5
2C3
  8
LAYER_6
 10
8.93147728776114
 20
3.955685418830278
 30
0.0
 42
0.4142135623730951
  0
SEQEND
  5
5E9
  8
LAYER_6
  0
POLYLINE
  5
AC
  8
LAYER_6
 66
     1
 10
0.0
 20
0.0
 30
0.0
 70
     1
  0
VERTEX
  5
2C4
  8
LAYER_6
 10
5.74547728776114
 20
4.018185418830279
 30
0.0
 42
0.4142135623730951
  0
VERTEX
  5
2C5
  8
LAYER_6
 10
5.68297728776114
 20
4.080685418830279
 30
0.0
 42
0.4142135623730951
  0
VERTEX
  5
2C6
  8
LAYER_6
 10
5.62047728776114
 20
4.018185418830279
 30
0.0
 42
0.4142135623730951
  0
VERTEX
  5
2C7
  8
LAYER_6
 10
5.68297728776114
 20
3.955685418830279
 30
0.0
 42
0.4142135623730951
  0
SEQEND
  5
5EA
  8
LAYER_6
  0
POLYLINE
  5
AD
  8
LAYER_6
 66
     1
 10
0.0
 20
0.0
 30
0.0
 70
     1
  0
VERTEX
  5
2C8
  8
LAYER_6
 10
9.493677287761141
 20
15.67438541883028
 30
0.0
 42
0.4142135623730951
  0
VERTEX
  5
2C9
  8
LAYER_6
 10
9.431177287761141
 20
15.73688541883028
 30
0.0
 42
0.4142135623730951
  0
VERTEX
  5
2CA
  8
LAYER_6
 10
9.368677287761141
 20
15.67438541883028
 30
0.0
 42
0.4142135623730951
  0
VERTEX
  5
2CB
  8
LAYER_6
 10
9.431177287761141
 20
15.61188541883028
 30
0.0
 42
0.4142135623730951
  0
SEQEND
  5
5EB
  8
LAYER_6
  0
POLYLINE
  5
AE
  8
LAYER_6
 66
     1
 10
0.0
 20
0.0
 30
0.0
 70
     1
  0
VERTEX
  5
2CC
  8
LAYER_6
 10
9.493677287761141
 20
17.26818541883028
 30
0.0
 42
0.4142135623730951
  0
VERTEX
  5
2CD
  8
LAYER_6
 10
9.431177287761141
 20
17.33068541883028
 30
0.0
 42
0.4142135623730951
  0
VERTEX
  5
2CE
  8
LAYER_6
 10
9.368677287761141
 20
17.26818541883028
 30
0.0
 42
0.4142135623730951
  0
VERTEX
  5
2CF
  8
LAYER_6
 10
9.431177287761141
 20
17.20568541883028
 30
0.0
 42
0.4142135623730951
  0
SEQEND
  5
5EC
  8
LAYER_6
  0
POLYLINE
  5
AF
  8
LAYER_6
 66
     1
 10
0.0
 20
0.0
 30
0.0
 70
     1
  0
VERTEX
  5
2D0
  8
LAYER_6
 10
5.245777287761141
 20
17.26818541883028
 30
0.0
 42
0.4142135623730951
  0
VERTEX
  5
2D1
  8
LAYER_6
 10
5.183277287761141
 20
17.33068541883028
 30
0.0
 42
0.4142135623730951
  0
VERTEX
  5
2D2
  8
LAYER_6
 10
5.120777287761141
 20
17.26818541883028
 30
0.0
 42
0.4142135623730951
  0
VERTEX
  5
2D3
  8
LAYER_6
 10
5.183277287761141
 20
17.20568541883028
 30
0.0
 42
0.4142135623730951
  0
SEQEND
  5
5ED
  8
LAYER_6
  0
POLYLINE
  5
B0
  8
LAYER_6
 66
     1
 10
0.0
 20
0.0
 30
0.0
 70
     1
  0
VERTEX
  5
2D4
  8
LAYER_6
 10
5.24597728776114
 20
15.67438541883028
 30
0.0
 42
0.4142135623730951
  0
VERTEX
  5
2D5
  8
LAYER_6
 10
5.18347728776114
 20
15.73688541883028
 30
0.0
 42
0.4142135623730951
  0
VERTEX
  5
2D6
  8
LAYER_6
 10
5.12097728776114
 20
15.67438541883028
 30
0.0
 42
0.4142135623730951
  0
VERTEX
  5
2D7
  8
LAYER_6
 10
5.18347728776114
 20
15.61188541883028
 30
0.0
 42
0.4142135623730951
  0
SEQEND
  5
5EE
  8
LAYER_6
  0
POLYLINE
  5
B1
  8
LAYER_6
 66
     1
 10
0.0
 20
0.0
 30
0.0
 70
     1
  0
VERTEX
  5
2D8
  8
LAYER_6
 10
9.493477287761138
 20
6.851485418830279
 30
0.0
 42
0.4142135623730951
  0
VERTEX
  5
2D9
  8
LAYER_6
 10
9.430977287761138
 20
6.913985418830279
 30
0.0
 42
0.4142135623730951
  0
VERTEX
  5
2DA
  8
LAYER_6
 10
9.368477287761138
 20
6.851485418830279
 30
0.0
 42
0.4142135623730951
  0
VERTEX
  5
2DB
  8
LAYER_6
 10
9.430977287761138
 20
6.788985418830279
 30
0.0
 42
0.4142135623730951
  0
SEQEND
  5
5EF
  8
LAYER_6
  0
POLYLINE
  5
B2
  8
LAYER_6
 66
     1
 10
0.0
 20
0.0
 30
0.0
 70
     1
  0
VERTEX
  5
2DC
  8
LAYER_6
 10
9.493477287761138
 20
5.268185418830278
 30
0.0
 42
0.4142135623730951
  0
VERTEX
  5
2DD
  8
LAYER_6
 10
9.430977287761138
 20
5.330685418830278
 30
0.0
 42
0.4142135623730951
  0
VERTEX
  5
2DE
  8
LAYER_6
 10
9.368477287761138
 20
5.268185418830278
 30
0.0
 42
0.4142135623730951
  0
VERTEX
  5
2DF
  8
LAYER_6
 10
9.430977287761138
 20
5.205685418830278
 30
0.0
 42
0.4142135623730951
  0
SEQEND
  5
5F0
  8
LAYER_6
  0
POLYLINE
  5
B3
  8
LAYER_6
 66
     1
 10
0.0
 20
0.0
 30
0.0
 70
     1
  0
VERTEX
  5
2E0
  8
LAYER_6
 10
5.245977287761138
 20
6.85148541883028
 30
0.0
 42
0.4142135623730951
  0
VERTEX
  5
2E1
  8
LAYER_6
 10
5.183477287761138
 20
6.91398541883028
 30
0.0
 42
0.4142135623730951
  0
VERTEX
  5
2E2
  8
LAYER_6
 10
5.120977287761138
 20
6.85148541883028
 30
0.0
 42
0.4142135623730951
  0
VERTEX
  5
2E3
  8
LAYER_6
 10
5.183477287761138
 20
6.78898541883028
 30
0.0
 42
0.4142135623730951
  0
SEQEND
  5
5F1
  8
LAYER_6
  0
POLYLINE
  5
B4
  8
LAYER_6
 66
     1
 10
0.0
 20
0.0
 30
0.0
 70
     1
  0
VERTEX
  5
2E4
  8
LAYER_6
 10
5.234177287761137
 20
5.262185418830279
 30
0.0
 42
0.4142135623730951
  0
VERTEX
  5
2E5
  8
LAYER_6
 10
5.171677287761137
 20
5.324685418830279
 30
0.0
 42
0.4142135623730951
  0
VERTEX
  5
2E6
  8
LAYER_6
 10
5.109177287761137
 20
5.262185418830279
 30
0.0
 42
0.4142135623730951
  0
VERTEX
  5
2E7
  8
LAYER_6
 10
5.171677287761137
 20
5.199685418830279
 30
0.0
 42
0.4142135623730951
  0
SEQEND
  5
5F2
  8
LAYER_6
  0
POLYLINE
  5
B6
  8
LAYER_7
 66
     1
 10
0.0
 20
0.0
 30
0.0
 70
     1
  0
VERTEX
  5
2E8
  8
LAYER_7
 10
11.14538787926719
 20
5.153087620422035
 30
0.0
  0
VERTEX
  5
2E9
  8
LAYER_7
 10
14.60379640720806
 20
5.153087620421978
 30
0.0
 42
0.3641574543026077
  0
VERTEX
  5
2EA
  8
LAYER_7
 10
14.72691170226877
 20
5.256463001994952
 30
0.0
  0
VERTEX
  5
2EB
  8
LAYER_7
 10
15.27032301811342
 20
8.350263001994968
 30
0.0
 42
0.4661064187918355
  0
VERTEX
  5
2EC
  8
LAYER_7
 10
15.14720772305269
 20
8.496887620421997
 30
0.0
  0
VERTEX
  5
2ED
  8
LAYER_7
 10
10.60175898131449
 20
8.496887620420974
 30
0.0
 42
0.4661271801034433
  0
VERTEX
  5
2EE
  8
LAYER_7
 10
10.47864516183301
 20
8.350254602770349
 30
0.0
  0
VERTEX
  5
2EF
  8
LAYER_7
 10
11.02227405978567
 20
5.256454602771409
 30
0.0
 42
0.3641381369495253
  0
SEQEND
  5
5F3
  8
LAYER_7
  0
POLYLINE
  5
B7
  8
LAYER_7
 66
     1
 10
0.0
 20
0.0
 30
0.0
 70
     1
  0
VERTEX
  5
2F0
  8
LAYER_7
 10
14.93585819349041
 20
8.24689259941454
 30
0.0
 42
0.4142135623730951
  0
VERTEX
  5
2F1
  8
LAYER_7
 10
14.99835819349041
 20
8.18439259941454
 30
0.0
 42
0.4142135623730951
  0
VERTEX
  5
2F2
  8
LAYER_7
 10
15.06085819349041
 20
8.24689259941454
 30
0.0
 42
0.4142135623730951
  0
VERTEX
  5
2F3
  8
LAYER_7
 10
14.99835819349041
 20
8.30939259941454
 30
0.0
 42
0.4142135623730951
  0
SEQEND
  5
5F4
  8
LAYER_7
  0
POLYLINE
  5
B8
  8
LAYER_7
 66
     1
 10
0.0
 20
0.0
 30
0.0
 70
     1
  0
VERTEX
  5
2F4
  8
LAYER_7
 10
14.43635819349041
 20
5.403092599414542
 30
0.0
 42
0.4142135623730951
  0
VERTEX
  5
2F5
  8
LAYER_7
 10
14.49885819349041
 20
5.340592599414542
 30
0.0
 42
0.4142135623730951
  0
VERTEX
  5
2F6
  8
LAYER_7
 10
14.56135819349041
 20
5.403092599414542
 30
0.0
 42
0.4142135623730951
  0
VERTEX
  5
2F7
  8
LAYER_7
 10
14.49885819349041
 20
5.465592599414542
 30
0.0
 42
0.4142135623730951
  0
SEQEND
  5
5F5
  8
LAYER_7
  0
POLYLINE
  5
B9
  8
LAYER_7
 66
     1
 10
0.0
 20
0.0
 30
0.0
 70
     1
  0
VERTEX
  5
2F8
  8
LAYER_7
 10
11.69913413930629
 20
5.385229627356289
 30
0.0
  0
VERTEX
  5
2F9
  8
LAYER_7
 10
11.44913413930628
 20
5.385229627357294
 30
0.0
  0
VERTEX
  5
2FA
  8
LAYER_7
 10
10.94943413933028
 20
8.229029627329904
 30
0.0
  0
VERTEX
  5
2FB
  8
LAYER_7
 10
11.69913413930628
 20
8.229029627327147
 30
0.0
  0
VERTEX
  5
2FC
  8
LAYER_7
 10
11.69913413930628
 20
5.385229627357294
 30
0.0
  0
VERTEX
  5
2FD
  8
LAYER_7
 10
11.44913413930628
 20
5.385229627357294
 30
0.0
  0
SEQEND
  5
5F6
  8
LAYER_7
  0
POLYLINE
  5
BA
  8
LAYER_7
 66
     1
 10
0.0
 20
0.0
 30
0.0
 70
     1
  0
VERTEX
  5
2FE
  8
LAYER_7
 10
14.30003290618861
 20
5.420945613514842
 30
0.0
  0
VERTEX
  5
2FF
  8
LAYER_7
 10
14.05003290618861
 20
5.420945613514842
 30
0.0
  0
VERTEX
  5
300
  8
LAYER_7
 10
14.05003290618861
 20
8.260945613514842
 30
0.0
  0
VERTEX
  5
301
  8
LAYER_7
 10
14.05003290618743
 20
8.264745613487683
 30
0.0
  0
VERTEX
  5
302
  8
LAYER_7
 10
14.79953290620605
 20
8.26474561348493
 30
0.0
  0
VERTEX
  5
303
  8
LAYER_7
 10
14.30003290618861
 20
5.420945613514842
 30
0.0
  0
VERTEX
  5
304
  8
LAYER_7
 10
14.05003290618861
 20
5.420945613515848
 30
0.0
  0
SEQEND
  5
5F7
  8
LAYER_7
  0
POLYLINE
  5
BB
  8
LAYER_7
 66
     1
 10
0.0
 20
0.0
 30
0.0
 70
     1
  0
VERTEX
  5
305
  8
LAYER_7
 10
10.68815819349041
 20
8.24689259941454
 30
0.0
 42
0.4142135623730951
  0
VERTEX
  5
306
  8
LAYER_7
 10
10.75065819349041
 20
8.18439259941454
 30
0.0
 42
0.4142135623730951
  0
VERTEX
  5
307
  8
LAYER_7
 10
10.81315819349041
 20
8.24689259941454
 30
0.0
 42
0.4142135623730951
  0
VERTEX
  5
308
  8
LAYER_7
 10
10.75065819349041
 20
8.30939259941454
 30
0.0
 42
0.4142135623730951
  0
SEQEND
  5
5F8
  8
LAYER_7
  0
POLYLINE
  5
BC
  8
LAYER_7
 66
     1
 10
0.0
 20
0.0
 30
0.0
 70
     1
  0
VERTEX
  5
309
  8
LAYER_7
 10
11.18785819349041
 20
5.403092599414542
 30
0.0
 42
0.4142135623730951
  0
VERTEX
  5
30A
  8
LAYER_7
 10
11.25035819349041
 20
5.340592599414542
 30
0.0
 42
0.4142135623730951
  0
VERTEX
  5
30B
  8
LAYER_7
 10
11.31285819349041
 20
5.403092599414542
 30
0.0
 42
0.4142135623730951
  0
VERTEX
  5
30C
  8
LAYER_7
 10
11.25035819349041
 20
5.465592599414542
 30
0.0
 42
0.4142135623730951
  0
SEQEND
  5
5F9
  8
LAYER_7
  0
POLYLINE
  5
BD
  8
LAYER_7
 66
     1
 10
0.0
 20
0.0
 30
0.0
  0
VERTEX
  5
30D
  8
LAYER_7
 10
6.05757040973777
 20
13.76818541883034
 30
0.0
  0
VERTEX
  5
30E
  8
LAYER_7
 10
6.057570409737763
 20
14.76818541883034
 30
0.0
  0
SEQEND
  5
5FA
  8
LAYER_7
  0
POLYLINE
  5
BE
  8
LAYER_7
 66
     1
 10
0.0
 20
0.0
 30
0.0
  0
VERTEX
  5
30F
  8
LAYER_7
 10
6.557570409737767
 20
14.76818541883033
 30
0.0
  0
VERTEX
  5
310
  8
LAYER_7
 10
6.55757040973777
 20
13.76818541883034
 30
0.0
  0
SEQEND
  5
5FB
  8
LAYER_7
  0
POLYLINE
  5
BF
  8
LAYER_7
 66
     1
 10
0.0
 20
0.0
 30
0.0
  0
VERTEX
  5
311
  8
LAYER_7
 10
6.307570409737767
 20
14.76818541883035
 30
0.0
  0
VERTEX
  5
312
  8
LAYER_7
 10
6.307570409737767
 20
13.76818541883035
 30
0.0
  0
SEQEND
  5
5FC
  8
LAYER_7
  0
POLYLINE
  5
C0
  8
LAYER_7
 66
     1
 10
0.0
 20
0.0
 30
0.0
  0
VERTEX
  5
313
  8
LAYER_7
 10
8.056675621752579
 20
13.76818541883034
 30
0.0
  0
VERTEX
  5
314
  8
LAYER_7
 10
8.056675621752571
 20
14.76818541883034
 30
0.0
  0
SEQEND
  5
5FD
  8
LAYER_7
  0
POLYLINE
  5
C1
  8
LAYER_7
 66
     1
 10
0.0
 20
0.0
 30
0.0
  0
VERTEX
  5
315
  8
LAYER_7
 10
8.556675621752575
 20
14.76818541883033
 30
0.0
  0
VERTEX
  5
316
  8
LAYER_7
 10
8.556675621752579
 20
13.76818541883034
 30
0.0
  0
SEQEND
  5
5FE
  8
LAYER_7
  0
POLYLINE
  5
C2
  8
LAYER_7
 66
     1
 10
0.0
 20
0.0
 30
0.0
  0
VERTEX
  5
317
  8
LAYER_7
 10
8.306675621752575
 20
14.76818541883035
 30
0.0
  0
VERTEX
  5
318
  8
LAYER_7
 10
8.306675621752575
 20
13.76818541883035
 30
0.0
  0
SEQEND
  5
5FF
  8
LAYER_7
  0
POLYLINE
  5
C3
  8
LAYER_7
 66
     1
 10
0.0
 20
0.0
 30
0.0
  0
VERTEX
  5
319
  8
LAYER_7
 10
6.057130210089569
 20
7.768185418830333
 30
0.0
  0
VERTEX
  5
31A
  8
LAYER_7
 10
6.057130210089562
 20
8.768185418830333
 30
0.0
  0
SEQEND
  5
600
  8
LAYER_7
  0
POLYLINE
  5
C4
  8
LAYER_7
 66
     1
 10
0.0
 20
0.0
 30
0.0
  0
VERTEX
  5
31B
  8
LAYER_7
 10
6.557130210089565
 20
8.768185418830326
 30
0.0
  0
VERTEX
  5
31C
  8
LAYER_7
 10
6.557130210089569
 20
7.768185418830333
 30
0.0
  0
SEQEND
  5
601
  8
LAYER_7
  0
POLYLINE
  5
C5
  8
LAYER_7
 66
     1
 10
0.0
 20
0.0
 30
0.0
  0
VERTEX
  5
31D
  8
LAYER_7
 10
6.307130210089565
 20
8.768185418830344
 30
0.0
  0
VERTEX
  5
31E
  8
LAYER_7
 10
6.307130210089565
 20
7.768185418830344
 30
0.0
  0
SEQEND
  5
602
  8
LAYER_7
  0
POLYLINE
  5
C6
  8
LAYER_7
 66
     1
 10
0.0
 20
0.0
 30
0.0
  0
VERTEX
  5
31F
  8
LAYER_7
 10
8.057130210089568
 20
7.768185418830333
 30
0.0
  0
VERTEX
  5
320
  8
LAYER_7
 10
8.05713021008956
 20
8.768185418830333
 30
0.0
  0
SEQEND
  5
603
  8
LAYER_7
  0
POLYLINE
  5
C7
  8
LAYER_7
 66
     1
 10
0.0
 20
0.0
 30
0.0
  0
VERTEX
  5
321
  8
LAYER_7
 10
8.557130210089564
 20
8.768185418830326
 30
0.0
  0
VERTEX
  5
322
  8
LAYER_7
 10
8.557130210089568
 20
7.768185418830333
 30
0.0
  0
SEQEND
  5
604
  8
LAYER_7
  0
POLYLINE
  5
C8
  8
LAYER_7
 66
     1
 10
0.0
 20
0.0
 30
0.0
  0
VERTEX
  5
323
  8
LAYER_7
 10
8.307130210089564
 20
8.768185418830344
 30
0.0
  0
VERTEX
  5
324
  8
LAYER_7
 10
8.307130210089564
 20
7.768185418830344
 30
0.0
  0
SEQEND
  5
605
  8
LAYER_7
  0
POLYLINE
  5
C9
  8
LAYER_7
 66
     1
 10
0.0
 20
0.0
 30
0.0
  0
VERTEX
  5
325
  8
LAYER_7
 10
8.056675621752579
 20
13.76818541883035
 30
0.0
  0
VERTEX
  5
326
  8
LAYER_7
 10
8.056675621752571
 20
14.76818541883035
 30
0.0
  0
SEQEND
  5
606
  8
LAYER_7
  0
POLYLINE
  5
CA
  8
LAYER_7
 66
     1
 10
0.0
 20
0.0
 30
0.0
  0
VERTEX
  5
327
  8
LAYER_7
 10
8.556675621752575
 20
14.76818541883034
 30
0.0
  0
VERTEX
  5
328
  8
LAYER_7
 10
8.556675621752579
 20
13.76818541883035
 30
0.0
  0
SEQEND
  5
607
  8
LAYER_7
  0
POLYLINE
  5
CB
  8
LAYER_7
 66
     1
 10
0.0
 20
0.0
 30
0.0
  0
VERTEX
  5
329
  8
LAYER_7
 10
8.306675621752575
 20
14.76818541883036
 30
0.0
  0
VERTEX
  5
32A
  8
LAYER_7
 10
8.306675621752575
 20
13.76818541883036
 30
0.0
  0
SEQEND
  5
608
  8
LAYER_7
  0
POLYLINE
  5
CC
  8
LAYER_7
 66
     1
 10
0.0
 20
0.0
 30
0.0
  0
VERTEX
  5
32B
  8
LAYER_7
 10
7.806675621752575
 20
14.01818541883036
 30
0.0
  0
VERTEX
  5
32C
  8
LAYER_7
 10
7.806675621752575
 20
14.51818541883036
 30
0.0
  0
SEQEND
  5
609
  8
LAYER_7
  0
POLYLINE
  5
CD
  8
LAYER_7
 66
     1
 10
0.0
 20
0.0
 30
0.0
  0
VERTEX
  5
32D
  8
LAYER_7
 10
7.806675621752575
 20
14.01818541883036
 30
0.0
  0
VERTEX
  5
32E
  8
LAYER_7
 10
7.806675621752575
 20
14.26818541883036
 30
0.0
  0
VERTEX
  5
32F
  8
LAYER_7
 10
7.806675621752575
 20
14.51818541883036
 30
0.0
  0
SEQEND
  5
60A
  8
LAYER_7
  0
POLYLINE
  5
CE
  8
LAYER_7
 66
     1
 10
0.0
 20
0.0
 30
0.0
  0
VERTEX
  5
330
  8
LAYER_7
 10
8.806675621752575
 20
14.01818541883036
 30
0.0
  0
VERTEX
  5
331
  8
LAYER_7
 10
8.806675621752575
 20
14.51818541883036
 30
0.0
  0
SEQEND
  5
60B
  8
LAYER_7
  0
POLYLINE
  5
CF
  8
LAYER_7
 66
     1
 10
0.0
 20
0.0
 30
0.0
  0
VERTEX
  5
332
  8
LAYER_7
 10
8.806675621752575
 20
14.01818541883036
 30
0.0
  0
VERTEX
  5
333
  8
LAYER_7
 10
8.806675621752575
 20
14.26818541883036
 30
0.0
  0
VERTEX
  5
334
  8
LAYER_7
 10
8.806675621752575
 20
14.51818541883036
 30
0.0
  0
SEQEND
  5
60C
  8
LAYER_7
  0
POLYLINE
  5
D0
  8
LAYER_7
 66
     1
 10
0.0
 20
0.0
 30
0.0
  0
VERTEX
  5
335
  8
LAYER_7
 10
6.05757040973777
 20
13.76818541883034
 30
0.0
  0
VERTEX
  5
336
  8
LAYER_7
 10
6.057570409737763
 20
14.76818541883034
 30
0.0
  0
SEQEND
  5
60D
  8
LAYER_7
  0
POLYLINE
  5
D1
  8
LAYER_7
 66
     1
 10
0.0
 20
0.0
 30
0.0
  0
VERTEX
  5
337
  8
LAYER_7
 10
6.557570409737767
 20
14.76818541883033
 30
0.0
  0
VERTEX
  5
338
  8
LAYER_7
 10
6.55757040973777
 20
13.76818541883034
 30
0.0
  0
SEQEND
  5
60E
  8
LAYER_7
  0
POLYLINE
  5
D2
  8
LAYER_7
 66
     1
 10
0.0
 20
0.0
 30
0.0
  0
VERTEX
  5
339
  8
LAYER_7
 10
6.307570409737767
 20
14.76818541883035
 30
0.0
  0
VERTEX
  5
33A
  8
LAYER_7
 10
6.307570409737767
 20
13.76818541883035
 30
0.0
  0
SEQEND
  5
60F
  8
LAYER_7
  0
POLYLINE
  5
D3
  8
LAYER_7
 66
     1
 10
0.0
 20
0.0
 30
0.0
  0
VERTEX
  5
33B
  8
LAYER_7
 10
6.05757040973777
 20
13.76818541883035
 30
0.0
  0
VERTEX
  5
33C
  8
LAYER_7
 10
6.057570409737763
 20
14.76818541883035
 30
0.0
  0
SEQEND
  5
610
  8
LAYER_7
  0
POLYLINE
  5
D4
  8
LAYER_7
 66
     1
 10
0.0
 20
0.0
 30
0.0
  0
VERTEX
  5
33D
  8
LAYER_7
 10
6.557570409737767
 20
14.76818541883034
 30
0.0
  0
VERTEX
  5
33E
  8
LAYER_7
 10
6.55757040973777
 20
13.76818541883035
 30
0.0
  0
SEQEND
  5
611
  8
LAYER_7
  0
POLYLINE
  5
D5
  8
LAYER_7
 66
     1
 10
0.0
 20
0.0
 30
0.0
  0
VERTEX
  5
33F
  8
LAYER_7
 10
6.307570409737767
 20
14.76818541883036
 30
0.0
  0
VERTEX
  5
340
  8
LAYER_7
 10
6.307570409737767
 20
13.76818541883036
 30
0.0
  0
SEQEND
  5
612
  8
LAYER_7
  0
POLYLINE
  5
D6
  8
LAYER_7
 66
     1
 10
0.0
 20
0.0
 30
0.0
  0
VERTEX
  5
341
  8
LAYER_7
 10
5.807570409737767
 20
14.01818541883036
 30
0.0
  0
VERTEX
  5
342
  8
LAYER_7
 10
5.807570409737767
 20
14.51818541883037
 30
0.0
  0
SEQEND
  5
613
  8
LAYER_7
  0
POLYLINE
  5
D7
  8
LAYER_7
 66
     1
 10
0.0
 20
0.0
 30
0.0
  0
VERTEX
  5
343
  8
LAYER_7
 10
5.807570409737767
 20
14.01818541883036
 30
0.0
  0
VERTEX
  5
344
  8
LAYER_7
 10
5.807570409737767
 20
14.26818541883036
 30
0.0
  0
VERTEX
  5
345
  8
LAYER_7
 10
5.807570409737767
 20
14.51818541883037
 30
0.0
  0
SEQEND
  5
614
  8
LAYER_7
  0
POLYLINE
  5
D8
  8
LAYER_7
 66
     1
 10
0.0
 20
0.0
 30
0.0
  0
VERTEX
  5
346
  8
LAYER_7
 10
6.807570409737767
 20
14.01818541883036
 30
0.0
  0
VERTEX
  5
347
  8
LAYER_7
 10
6.807570409737767
 20
14.51818541883037
 30
0.0
  0
SEQEND
  5
615
  8
LAYER_7
  0
POLYLINE
  5
D9
  8
LAYER_7
 66
     1
 10
0.0
 20
0.0
 30
0.0
  0
VERTEX
  5
348
  8
LAYER_7
 10
6.807570409737767
 20
14.01818541883036
 30
0.0
  0
VERTEX
  5
349
  8
LAYER_7
 10
6.807570409737767
 20
14.26818541883036
 30
0.0
  0
VERTEX
  5
34A
  8
LAYER_7
 10
6.807570409737767
 20
14.51818541883037
 30
0.0
  0
SEQEND
  5
616
  8
LAYER_7
  0
POLYLINE
  5
DA
  8
LAYER_7
 66
     1
 10
0.0
 20
0.0
 30
0.0
  0
VERTEX
  5
34B
  8
LAYER_7
 10
6.057130210089569
 20
7.768185418830335
 30
0.0
  0
VERTEX
  5
34C
  8
LAYER_7
 10
6.057130210089562
 20
8.768185418830335
 30
0.0
  0
SEQEND
  5
617
  8
LAYER_7
  0
POLYLINE
  5
DB
  8
LAYER_7
 66
     1
 10
0.0
 20
0.0
 30
0.0
  0
VERTEX
  5
34D
  8
LAYER_7
 10
6.557130210089565
 20
8.768185418830328
 30
0.0
  0
VERTEX
  5
34E
  8
LAYER_7
 10
6.557130210089569
 20
7.768185418830335
 30
0.0
  0
SEQEND
  5
618
  8
LAYER_7
  0
POLYLINE
  5
DC
  8
LAYER_7
 66
     1
 10
0.0
 20
0.0
 30
0.0
  0
VERTEX
  5
34F
  8
LAYER_7
 10
6.307130210089565
 20
8.768185418830345
 30
0.0
  0
VERTEX
  5
350
  8
LAYER_7
 10
6.307130210089565
 20
7.768185418830345
 30
0.0
  0
SEQEND
  5
619
  8
LAYER_7
  0
POLYLINE
  5
DD
  8
LAYER_7
 66
     1
 10
0.0
 20
0.0
 30
0.0
  0
VERTEX
  5
351
  8
LAYER_7
 10
6.057130210089569
 20
7.768185418830342
 30
0.0
  0
VERTEX
  5
352
  8
LAYER_7
 10
6.057130210089562
 20
8.768185418830342
 30
0.0
  0
SEQEND
  5
61A
  8
LAYER_7
  0
POLYLINE
  5
DE
  8
LAYER_7
 66
     1
 10
0.0
 20
0.0
 30
0.0
  0
VERTEX
  5
353
  8
LAYER_7
 10
6.557130210089565
 20
8.768185418830335
 30
0.0
  0
VERTEX
  5
354
  8
LAYER_7
 10
6.557130210089569
 20
7.768185418830342
 30
0.0
  0
SEQEND
  5
61B
  8
LAYER_7
  0
POLYLINE
  5
DF
  8
LAYER_7
 66
     1
 10
0.0
 20
0.0
 30
0.0
  0
VERTEX
  5
355
  8
LAYER_7
 10
6.307130210089565
 20
8.768185418830353
 30
0.0
  0
VERTEX
  5
356
  8
LAYER_7
 10
6.307130210089565
 20
7.768185418830353
 30
0.0
  0
SEQEND
  5
61C
  8
LAYER_7
  0
POLYLINE
  5
E0
  8
LAYER_7
 66
     1
 10
0.0
 20
0.0
 30
0.0
  0
VERTEX
  5
357
  8
LAYER_7
 10
5.807130210089565
 20
8.018185418830353
 30
0.0
  0
VERTEX
  5
358
  8
LAYER_7
 10
5.807130210089565
 20
8.51818541883036
 30
0.0
  0
SEQEND
  5
61D
  8
LAYER_7
  0
POLYLINE
  5
E1
  8
LAYER_7
 66
     1
 10
0.0
 20
0.0
 30
0.0
  0
VERTEX
  5
359
  8
LAYER_7
 10
5.807130210089565
 20
8.018185418830353
 30
0.0
  0
VERTEX
  5
35A
  8
LAYER_7
 10
5.807130210089565
 20
8.268185418830353
 30
0.0
  0
VERTEX
  5
35B
  8
LAYER_7
 10
5.807130210089565
 20
8.51818541883036
 30
0.0
  0
SEQEND
  5
61E
  8
LAYER_7
  0
POLYLINE
  5
E2
  8
LAYER_7
 66
     1
 10
0.0
 20
0.0
 30
0.0
  0
VERTEX
  5
35C
  8
LAYER_7
 10
6.807130210089565
 20
8.018185418830353
 30
0.0
  0
VERTEX
  5
35D
  8
LAYER_7
 10
6.807130210089565
 20
8.51818541883036
 30
0.0
  0
SEQEND
  5
61F
  8
LAYER_7
  0
POLYLINE
  5
E3
  8
LAYER_7
 66
     1
 10
0.0
 20
0.0
 30
0.0
  0
VERTEX
  5
35E
  8
LAYER_7
 10
6.807130210089565
 20
8.018185418830353
 30
0.0
  0
VERTEX
  5
35F
  8
LAYER_7
 10
6.807130210089565
 20
8.268185418830353
 30
0.0
  0
VERTEX
  5
360
  8
LAYER_7
 10
6.807130210089565
 20
8.51818541883036
 30
0.0
  0
SEQEND
  5
620
  8
LAYER_7
  0
POLYLINE
  5
E4
  8
LAYER_7
 66
     1
 10
0.0
 20
0.0
 30
0.0
  0
VERTEX
  5
361
  8
LAYER_7
 10
8.057130210089568
 20
7.768185418830335
 30
0.0
  0
VERTEX
  5
362
  8
LAYER_7
 10
8.05713021008956
 20
8.768185418830335
 30
0.0
  0
SEQEND
  5
621
  8
LAYER_7
  0
POLYLINE
  5
E5
  8
LAYER_7
 66
     1
 10
0.0
 20
0.0
 30
0.0
  0
VERTEX
  5
363
  8
LAYER_7
 10
8.557130210089564
 20
8.768185418830328
 30
0.0
  0
VERTEX
  5
364
  8
LAYER_7
 10
8.557130210089568
 20
7.768185418830335
 30
0.0
  0
SEQEND
  5
622
  8
LAYER_7
  0
POLYLINE
  5
E6
  8
LAYER_7
 66
     1
 10
0.0
 20
0.0
 30
0.0
  0
VERTEX
  5
365
  8
LAYER_7
 10
8.307130210089564
 20
8.768185418830345
 30
0.0
  0
VERTEX
  5
366
  8
LAYER_7
 10
8.307130210089564
 20
7.768185418830345
 30
0.0
  0
SEQEND
  5
623
  8
LAYER_7
  0
POLYLINE
  5
E7
  8
LAYER_7
 66
     1
 10
0.0
 20
0.0
 30
0.0
  0
VERTEX
  5
367
  8
LAYER_7
 10
8.057130210089568
 20
7.768185418830342
 30
0.0
  0
VERTEX
  5
368
  8
LAYER_7
 10
8.05713021008956
 20
8.768185418830342
 30
0.0
  0
SEQEND
  5
624
  8
LAYER_7
  0
POLYLINE
  5
E8
  8
LAYER_7
 66
     1
 10
0.0
 20
0.0
 30
0.0
  0
VERTEX
  5
369
  8
LAYER_7
 10
8.557130210089564
 20
8.768185418830335
 30
0.0
  0
VERTEX
  5
36A
  8
LAYER_7
 10
8.557130210089568
 20
7.768185418830342
 30
0.0
  0
SEQEND
  5
625
  8
LAYER_7
  0
POLYLINE
  5
E9
  8
LAYER_7
 66
     1
 10
0.0
 20
0.0
 30
0.0
  0
VERTEX
  5
36B
  8
LAYER_7
 10
8.307130210089564
 20
8.768185418830353
 30
0.0
  0
VERTEX
  5
36C
  8
LAYER_7
 10
8.307130210089564
 20
7.768185418830353
 30
0.0
  0
SEQEND
  5
626
  8
LAYER_7
  0
POLYLINE
  5
EA
  8
LAYER_7
 66
     1
 10
0.0
 20
0.0
 30
0.0
  0
VERTEX
  5
36D
  8
LAYER_7
 10
7.807130210089565
 20
8.018185418830353
 30
0.0
  0
VERTEX
  5
36E
  8
LAYER_7
 10
7.807130210089565
 20
8.51818541883036
 30
0.0
  0
SEQEND
  5
627
  8
LAYER_7
  0
POLYLINE
  5
EB
  8
LAYER_7
 66
     1
 10
0.0
 20
0.0
 30
0.0
  0
VERTEX
  5
36F
  8
LAYER_7
 10
7.807130210089565
 20
8.018185418830353
 30
0.0
  0
VERTEX
  5
370
  8
LAYER_7
 10
7.807130210089565
 20
8.268185418830353
 30
0.0
  0
VERTEX
  5
371
  8
LAYER_7
 10
7.807130210089565
 20
8.51818541883036
 30
0.0
  0
SEQEND
  5
628
  8
LAYER_7
  0
POLYLINE
  5
EC
  8
LAYER_7
 66
     1
 10
0.0
 20
0.0
 30
0.0
  0
VERTEX
  5
372
  8
LAYER_7
 10
8.807130210089564
 20
8.018185418830353
 30
0.0
  0
VERTEX
  5
373
  8
LAYER_7
 10
8.807130210089564
 20
8.51818541883036
 30
0.0
  0
SEQEND
  5
629
  8
LAYER_7
  0
POLYLINE
  5
ED
  8
LAYER_7
 66
     1
 10
0.0
 20
0.0
 30
0.0
  0
VERTEX
  5
374
  8
LAYER_7
 10
8.807130210089564
 20
8.018185418830353
 30
0.0
  0
VERTEX
  5
375
  8
LAYER_7
 10
8.807130210089564
 20
8.268185418830353
 30
0.0
  0
VERTEX
  5
376
  8
LAYER_7
 10
8.807130210089564
 20
8.51818541883036
 30
0.0
  0
SEQEND
  5
62A
  8
LAYER_7
  0
POLYLINE
  5
EE
  8
LAYER_7
 66
     1
 10
0.0
 20
0.0
 30
0.0
  0
VERTEX
  5
377
  8
LAYER_7
 10
8.056675621752579
 20
13.76818541883034
 30
0.0
  0
VERTEX
  5
378
  8
LAYER_7
 10
8.056675621752571
 20
14.76818541883034
 30
0.0
  0
SEQEND
  5
62B
  8
LAYER_7
  0
POLYLINE
  5
EF
  8
LAYER_7
 66
     1
 10
0.0
 20
0.0
 30
0.0
  0
VERTEX
  5
379
  8
LAYER_7
 10
8.556675621752575
 20
14.76818541883033
 30
0.0
  0
VERTEX
  5
37A
  8
LAYER_7
 10
8.556675621752579
 20
13.76818541883034
 30
0.0
  0
SEQEND
  5
62C
  8
LAYER_7
  0
POLYLINE
  5
F0
  8
LAYER_7
 66
     1
 10
0.0
 20
0.0
 30
0.0
  0
VERTEX
  5
37B
  8
LAYER_7
 10
8.306675621752575
 20
14.76818541883035
 30
0.0
  0
VERTEX
  5
37C
  8
LAYER_7
 10
8.306675621752575
 20
13.76818541883035
 30
0.0
  0
SEQEND
  5
62D
  8
LAYER_7
  0
POLYLINE
  5
F1
  8
LAYER_7
 66
     1
 10
0.0
 20
0.0
 30
0.0
  0
VERTEX
  5
37D
  8
LAYER_7
 10
8.056675621752579
 20
13.76818541883035
 30
0.0
  0
VERTEX
  5
37E
  8
LAYER_7
 10
8.056675621752571
 20
14.76818541883035
 30
0.0
  0
SEQEND
  5
62E
  8
LAYER_7
  0
POLYLINE
  5
F2
  8
LAYER_7
 66
     1
 10
0.0
 20
0.0
 30
0.0
  0
VERTEX
  5
37F
  8
LAYER_7
 10
8.556675621752575
 20
14.76818541883034
 30
0.0
  0
VERTEX
  5
380
  8
LAYER_7
 10
8.556675621752579
 20
13.76818541883035
 30
0.0
  0
SEQEND
  5
62F
  8
LAYER_7
  0
POLYLINE
  5
F3
  8
LAYER_7
 66
     1
 10
0.0
 20
0.0
 30
0.0
  0
VERTEX
  5
381
  8
LAYER_7
 10
8.306675621752575
 20
14.76818541883036
 30
0.0
  0
VERTEX
  5
382
  8
LAYER_7
 10
8.306675621752575
 20
13.76818541883036
 30
0.0
  0
SEQEND
  5
630
  8
LAYER_7
  0
POLYLINE
  5
F4
  8
LAYER_7
 66
     1
 10
0.0
 20
0.0
 30
0.0
  0
VERTEX
  5
383
  8
LAYER_7
 10
7.806675621752575
 20
14.01818541883036
 30
0.0
  0
VERTEX
  5
384
  8
LAYER_7
 10
7.806675621752575
 20
14.51818541883036
 30
0.0
  0
SEQEND
  5
631
  8
LAYER_7
  0
POLYLINE
  5
F5
  8
LAYER_7
 66
     1
 10
0.0
 20
0.0
 30
0.0
  0
VERTEX
  5
385
  8
LAYER_7
 10
7.806675621752575
 20
14.01818541883036
 30
0.0
  0
VERTEX
  5
386
  8
LAYER_7
 10
7.806675621752575
 20
14.26818541883036
 30
0.0
  0
VERTEX
  5
387
  8
LAYER_7
 10
7.806675621752575
 20
14.51818541883036
 30
0.0
  0
SEQEND
  5
632
  8
LAYER_7
  0
POLYLINE
  5
F6
  8
LAYER_7
 66
     1
 10
0.0
 20
0.0
 30
0.0
  0
VERTEX
  5
388
  8
LAYER_7
 10
8.806675621752575
 20
14.01818541883036
 30
0.0
  0
VERTEX
  5
389
  8
LAYER_7
 10
8.806675621752575
 20
14.51818541883036
 30
0.0
  0
SEQEND
  5
633
  8
LAYER_7
  0
POLYLINE
  5
F7
  8
LAYER_7
 66
     1
 10
0.0
 20
0.0
 30
0.0
  0
VERTEX
  5
38A
  8
LAYER_7
 10
8.806675621752575
 20
14.01818541883036
 30
0.0
  0
VERTEX
  5
38B
  8
LAYER_7
 10
8.806675621752575
 20
14.26818541883036
 30
0.0
  0
VERTEX
  5
38C
  8
LAYER_7
 10
8.806675621752575
 20
14.51818541883036
 30
0.0
  0
SEQEND
  5
634
  8
LAYER_7
  0
POLYLINE
  5
F8
  8
LAYER_7
 66
     1
 10
0.0
 20
0.0
 30
0.0
  0
VERTEX
  5
38D
  8
LAYER_7
 10
6.593880061356931
 20
17.52959890166339
 30
0.0
  0
VERTEX
  5
38E
  8
LAYER_7
 10
5.88677328017038
 20
18.23670568284994
 30
0.0
  0
SEQEND
  5
635
  8
LAYER_7
  0
POLYLINE
  5
F9
  8
LAYER_7
 66
     1
 10
0.0
 20
0.0
 30
0.0
  0
VERTEX
  5
38F
  8
LAYER_7
 10
6.063549975467013
 20
18.41348237814658
 30
0.0
  0
VERTEX
  5
390
  8
LAYER_7
 10
6.770656756653559
 20
17.70637559696004
 30
0.0
  0
SEQEND
  5
636
  8
LAYER_7
  0
POLYLINE
  5
FA
  8
LAYER_7
 66
     1
 10
0.0
 20
0.0
 30
0.0
  0
VERTEX
  5
391
  8
LAYER_7
 10
6.593880061356928
 20
17.5295989016634
 30
0.0
  0
VERTEX
  5
392
  8
LAYER_7
 10
5.886773280170375
 20
18.23670568284994
 30
0.0
  0
SEQEND
  5
637
  8
LAYER_7
  0
POLYLINE
  5
FB
  8
LAYER_7
 66
     1
 10
0.0
 20
0.0
 30
0.0
  0
VERTEX
  5
393
  8
LAYER_7
 10
6.063549975467006
 20
18.41348237814659
 30
0.0
  0
VERTEX
  5
394
  8
LAYER_7
 10
6.770656756653556
 20
17.70637559696004
 30
0.0
  0
SEQEND
  5
638
  8
LAYER_7
  0
POLYLINE
  5
FC
  8
LAYER_7
 66
     1
 10
0.0
 20
0.0
 30
0.0
  0
VERTEX
  5
395
  8
LAYER_7
 10
8.056675621752579
 20
13.76818541883034
 30
0.0
  0
VERTEX
  5
396
  8
LAYER_7
 10
8.056675621752571
 20
14.76818541883034
 30
0.0
  0
SEQEND
  5
639
  8
LAYER_7
  0
POLYLINE
  5
FD
  8
LAYER_7
 66
     1
 10
0.0
 20
0.0
 30
0.0
  0
VERTEX
  5
397
  8
LAYER_7
 10
8.556675621752575
 20
14.76818541883033
 30
0.0
  0
VERTEX
  5
398
  8
LAYER_7
 10
8.556675621752579
 20
13.76818541883034
 30
0.0
  0
SEQEND
  5
63A
  8
LAYER_7
  0
POLYLINE
  5
FE
  8
LAYER_7
 66
     1
 10
0.0
 20
0.0
 30
0.0
  0
VERTEX
  5
399
  8
LAYER_7
 10
8.306675621752575
 20
14.76818541883035
 30
0.0
  0
VERTEX
  5
39A
  8
LAYER_7
 10
8.306675621752575
 20
13.76818541883035
 30
0.0
  0
SEQEND
  5
63B
  8
LAYER_7
  0
POLYLINE
  5
FF
  8
LAYER_7
 66
     1
 10
0.0
 20
0.0
 30
0.0
  0
VERTEX
  5
39B
  8
LAYER_7
 10
8.056675621752579
 20
13.76818541883035
 30
0.0
  0
VERTEX
  5
39C
  8
LAYER_7
 10
8.056675621752571
 20
14.76818541883035
 30
0.0
  0
SEQEND
  5
63C
  8
LAYER_7
  0
POLYLINE
  5
100
  8
LAYER_7
 66
     1
 10
0.0
 20
0.0
 30
0.0
  0
VERTEX
  5
39D
  8
LAYER_7
 10
8.556675621752575
 20
14.76818541883034
 30
0.0
  0
VERTEX
  5
39E
  8
LAYER_7
 10
8.556675621752579
 20
13.76818541883035
 30
0.0
  0
SEQEND
  5
63D
  8
LAYER_7
  0
POLYLINE
  5
101
  8
LAYER_7
 66
     1
 10
0.0
 20
0.0
 30
0.0
  0
VERTEX
  5
39F
  8
LAYER_7
 10
8.306675621752575
 20
14.76818541883036
 30
0.0
  0
VERTEX
  5
3A0
  8
LAYER_7
 10
8.306675621752575
 20
13.76818541883036
 30
0.0
  0
SEQEND
  5
63E
  8
LAYER_7
  0
POLYLINE
  5
102
  8
LAYER_7
 66
     1
 10
0.0
 20
0.0
 30
0.0
  0
VERTEX
  5
3A1
  8
LAYER_7
 10
7.806675621752575
 20
14.01818541883036
 30
0.0
  0
VERTEX
  5
3A2
  8
LAYER_7
 10
7.806675621752575
 20
14.51818541883036
 30
0.0
  0
SEQEND
  5
63F
  8
LAYER_7
  0
POLYLINE
  5
103
  8
LAYER_7
 66
     1
 10
0.0
 20
0.0
 30
0.0
  0
VERTEX
  5
3A3
  8
LAYER_7
 10
7.806675621752575
 20
14.01818541883036
 30
0.0
  0
VERTEX
  5
3A4
  8
LAYER_7
 10
7.806675621752575
 20
14.26818541883036
 30
0.0
  0
VERTEX
  5
3A5
  8
LAYER_7
 10
7.806675621752575
 20
14.51818541883036
 30
0.0
  0
SEQEND
  5
640
  8
LAYER_7
  0
POLYLINE
  5
104
  8
LAYER_7
 66
     1
 10
0.0
 20
0.0
 30
0.0
  0
VERTEX
  5
3A6
  8
LAYER_7
 10
8.806675621752575
 20
14.01818541883036
 30
0.0
  0
VERTEX
  5
3A7
  8
LAYER_7
 10
8.806675621752575
 20
14.51818541883036
 30
0.0
  0
SEQEND
  5
641
  8
LAYER_7
  0
POLYLINE
  5
105
  8
LAYER_7
 66
     1
 10
0.0
 20
0.0
 30
0.0
  0
VERTEX
  5
3A8
  8
LAYER_7
 10
8.806675621752575
 20
14.01818541883036
 30
0.0
  0
VERTEX
  5
3A9
  8
LAYER_7
 10
8.806675621752575
 20
14.26818541883036
 30
0.0
  0
VERTEX
  5
3AA
  8
LAYER_7
 10
8.806675621752575
 20
14.51818541883036
 30
0.0
  0
SEQEND
  5
642
  8
LAYER_7
  0
POLYLINE
  5
106
  8
LAYER_7
 66
     1
 10
0.0
 20
0.0
 30
0.0
  0
VERTEX
  5
3AB
  8
LAYER_7
 10
8.557427362169566
 20
4.068145147740623
 30
0.0
  0
VERTEX
  5
3AC
  8
LAYER_7
 10
7.850320580983015
 20
4.775251928927165
 30
0.0
  0
SEQEND
  5
643
  8
LAYER_7
  0
POLYLINE
  5
107
  8
LAYER_7
 66
     1
 10
0.0
 20
0.0
 30
0.0
  0
VERTEX
  5
3AD
  8
LAYER_7
 10
8.027097276279648
 20
4.952028624223811
 30
0.0
  0
VERTEX
  5
3AE
  8
LAYER_7
 10
8.734204057466194
 20
4.244921843037265
 30
0.0
  0
SEQEND
  5
644
  8
LAYER_7
  0
POLYLINE
  5
108
  8
LAYER_7
 66
     1
 10
0.0
 20
0.0
 30
0.0
  0
VERTEX
  5
3AF
  8
LAYER_7
 10
8.557427362169562
 20
4.068145147740626
 30
0.0
  0
VERTEX
  5
3B0
  8
LAYER_7
 10
7.850320580983009
 20
4.775251928927171
 30
0.0
  0
SEQEND
  5
645
  8
LAYER_7
  0
POLYLINE
  5
109
  8
LAYER_7
 66
     1
 10
0.0
 20
0.0
 30
0.0
  0
VERTEX
  5
3B1
  8
LAYER_7
 10
8.02709727627964
 20
4.952028624223818
 30
0.0
  0
VERTEX
  5
3B2
  8
LAYER_7
 10
8.73420405746619
 20
4.244921843037268
 30
0.0
  0
SEQEND
  5
646
  8
LAYER_7
  0
POLYLINE
  5
10A
  8
LAYER_7
 66
     1
 10
0.0
 20
0.0
 30
0.0
  0
VERTEX
  5
3B3
  8
LAYER_7
 10
8.727683967658828
 20
18.23670597803804
 30
0.0
  0
VERTEX
  5
3B4
  8
LAYER_7
 10
8.020577186472288
 20
17.52959919685149
 30
0.0
  0
SEQEND
  5
647
  8
LAYER_7
  0
POLYLINE
  5
10B
  8
LAYER_7
 66
     1
 10
0.0
 20
0.0
 30
0.0
  0
VERTEX
  5
3B5
  8
LAYER_7
 10
7.843800491175641
 20
17.70637589214812
 30
0.0
  0
VERTEX
  5
3B6
  8
LAYER_7
 10
8.550907272362188
 20
18.41348267333466
 30
0.0
  0
SEQEND
  5
648
  8
LAYER_7
  0
POLYLINE
  5
10C
  8
LAYER_7
 66
     1
 10
0.0
 20
0.0
 30
0.0
  0
VERTEX
  5
3B7
  8
LAYER_7
 10
8.727683967658825
 20
18.23670597803804
 30
0.0
  0
VERTEX
  5
3B8
  8
LAYER_7
 10
8.02057718647228
 20
17.52959919685148
 30
0.0
  0
SEQEND
  5
649
  8
LAYER_7
  0
POLYLINE
  5
10D
  8
LAYER_7
 66
     1
 10
0.0
 20
0.0
 30
0.0
  0
VERTEX
  5
3B9
  8
LAYER_7
 10
7.843800491175634
 20
17.70637589214811
 30
0.0
  0
VERTEX
  5
3BA
  8
LAYER_7
 10
8.550907272362185
 20
18.41348267333466
 30
0.0
  0
SEQEND
  5
64A
  8
LAYER_7
  0
POLYLINE
  5
10E
  8
LAYER_7
 66
     1
 10
0.0
 20
0.0
 30
0.0
  0
VERTEX
  5
3BB
  8
LAYER_7
 10
6.764045075137391
 20
4.775242296857495
 30
0.0
  0
VERTEX
  5
3BC
  8
LAYER_7
 10
6.056938293950848
 20
4.068135515670945
 30
0.0
  0
SEQEND
  5
64B
  8
LAYER_7
  0
POLYLINE
  5
10F
  8
LAYER_7
 66
     1
 10
0.0
 20
0.0
 30
0.0
  0
VERTEX
  5
3BD
  8
LAYER_7
 10
5.880161598654203
 20
4.244912210967578
 30
0.0
  0
VERTEX
  5
3BE
  8
LAYER_7
 10
6.58726837984075
 20
4.952018992154124
 30
0.0
  0
SEQEND
  5
64C
  8
LAYER_7
  0
POLYLINE
  5
110
  8
LAYER_7
 66
     1
 10
0.0
 20
0.0
 30
0.0
  0
VERTEX
  5
3BF
  8
LAYER_7
 10
6.764045075137388
 20
4.775242296857493
 30
0.0
  0
VERTEX
  5
3C0
  8
LAYER_7
 10
6.056938293950843
 20
4.068135515670938
 30
0.0
  0
SEQEND
  5
64D
  8
LAYER_7
  0
POLYLINE
  5
111
  8
LAYER_7
 66
     1
 10
0.0
 20
0.0
 30
0.0
  0
VERTEX
  5
3C1
  8
LAYER_7
 10
5.880161598654197
 20
4.244912210967571
 30
0.0
  0
VERTEX
  5
3C2
  8
LAYER_7
 10
6.587268379840745
 20
4.952018992154119
 30
0.0
  0
SEQEND
  5
64E
  8
LAYER_7
  0
POLYLINE
  5
112
  8
LAYER_7
 66
     1
 10
0.0
 20
0.0
 30
0.0
 70
     1
  0
VERTEX
  5
3C3
  8
LAYER_7
 10
4.433277287761416
 20
18.09140872353718
 30
0.0
  0
VERTEX
  5
3C4
  8
LAYER_7
 10
4.433277287761416
 20
18.59140872353718
 30
0.0
  0
VERTEX
  5
3C5
  8
LAYER_7
 10
4.933277287761416
 20
18.59140872353718
 30
0.0
  0
VERTEX
  5
3C6
  8
LAYER_7
 10
4.933277287761416
 20
18.09140872353718
 30
0.0
  0
VERTEX
  5
3C7
  8
LAYER_7
 10
4.933277287761416
 20
15.94496211413045
 30
0.0
  0
VERTEX
  5
3C8
  8
LAYER_7
 10
4.433277287761416
 20
16.44496211413045
 30
0.0
  0
SEQEND
  5
64F
  8
LAYER_7
  0
POLYLINE
  5
113
  8
LAYER_7
 66
     1
 10
0.0
 20
0.0
 30
0.0
 70
     1
  0
VERTEX
  5
3C9
  8
LAYER_7
 10
9.680941181438516
 20
18.09140872352089
 30
0.0
  0
VERTEX
  5
3CA
  8
LAYER_7
 10
9.680941181438516
 20
15.94496211411416
 30
0.0
  0
VERTEX
  5
3CB
  8
LAYER_7
 10
10.18094118143852
 20
16.44496211411416
 30
0.0
  0
VERTEX
  5
3CC
  8
LAYER_7
 10
10.18094118143852
 20
18.09140872352089
 30
0.0
  0
VERTEX
  5
3CD
  8
LAYER_7
 10
10.18094118143852
 20
18.59140872352089
 30
0.0
  0
VERTEX
  5
3CE
  8
LAYER_7
 10
9.680941181438516
 20
18.59140872352089
 30
0.0
  0
SEQEND
  5
650
  8
LAYER_7
  0
POLYLINE
  5
114
  8
LAYER_7
 66
     1
 10
0.0
 20
0.0
 30
0.0
 70
     1
  0
VERTEX
  5
3CF
  8
LAYER_7
 10
4.4276634832059
 20
4.438962114126937
 30
0.0
  0
VERTEX
  5
3D0
  8
LAYER_7
 10
4.4276634832059
 20
3.938962114126937
 30
0.0
  0
VERTEX
  5
3D1
  8
LAYER_7
 10
4.9276634832059
 20
3.938962114126937
 30
0.0
  0
VERTEX
  5
3D2
  8
LAYER_7
 10
4.9276634832059
 20
4.438962114126937
 30
0.0
  0
VERTEX
  5
3D3
  8
LAYER_7
 10
4.9276634832059
 20
6.585408723533664
 30
0.0
  0
VERTEX
  5
3D4
  8
LAYER_7
 10
4.4276634832059
 20
6.085408723533664
 30
0.0
  0
SEQEND
  5
651
  8
LAYER_7
  0
POLYLINE
  5
115
  8
LAYER_7
 66
     1
 10
0.0
 20
0.0
 30
0.0
 70
     1
  0
VERTEX
  5
3D5
  8
LAYER_7
 10
9.680841181440755
 20
4.444962114126664
 30
0.0
  0
VERTEX
  5
3D6
  8
LAYER_7
 10
9.680841181440755
 20
6.591408723533389
 30
0.0
  0
VERTEX
  5
3D7
  8
LAYER_7
 10
10.18084118144075
 20
6.091408723533389
 30
0.0
  0
VERTEX
  5
3D8
  8
LAYER_7
 10
10.18084118144075
 20
4.444962114126664
 30
0.0
  0
VERTEX
  5
3D9
  8
LAYER_7
 10
10.18084118144075
 20
3.944962114126664
 30
0.0
  0
VERTEX
  5
3DA
  8
LAYER_7
 10
9.680841181440755
 20
3.944962114126664
 30
0.0
  0
SEQEND
  5
652
  8
LAYER_7
  0
POLYLINE
  5
116
  8
LAYER_7
 66
     1
 10
0.0
 20
0.0
 30
0.0
  0
VERTEX
  5
3DB
  8
LAYER_7
 10
6.245218411715398
 20
16.83067476989078
 30
0.0
  0
VERTEX
  5
3DC
  8
LAYER_7
 10
6.245218411715398
 20
15.89315038038418
 30
0.0
  0
SEQEND
  5
653
  8
LAYER_7
  0
POLYLINE
  5
117
  8
LAYER_7
 66
     1
 10
0.0
 20
0.0
 30
0.0
  0
VERTEX
  5
3DD
  8
LAYER_7
 10
8.369180311870945
 20
16.83067476989079
 30
0.0
  0
VERTEX
  5
3DE
  8
LAYER_7
 10
8.369180311870945
 20
15.89315038038418
 30
0.0
  0
SEQEND
  5
654
  8
LAYER_7
  0
POLYLINE
  5
118
  8
LAYER_7
 66
     1
 10
0.0
 20
0.0
 30
0.0
  0
VERTEX
  5
3DF
  8
LAYER_7
 10
6.245218411715391
 20
6.580695380741382
 30
0.0
  0
VERTEX
  5
3E0
  8
LAYER_7
 10
6.245218411715391
 20
5.705696067769789
 30
0.0
  0
SEQEND
  5
655
  8
LAYER_7
  0
POLYLINE
  5
119
  8
LAYER_7
 66
     1
 10
0.0
 20
0.0
 30
0.0
  0
VERTEX
  5
3E1
  8
LAYER_7
 10
8.369180311870942
 20
6.580695380741325
 30
0.0
  0
VERTEX
  5
3E2
  8
LAYER_7
 10
8.369180311870942
 20
5.705696067769789
 30
0.0
  0
SEQEND
  5
656
  8
LAYER_7
  0
POLYLINE
  5
11A
  8
LAYER_7
 66
     1
 10
0.0
 20
0.0
 30
0.0
  0
VERTEX
  5
3E3
  8
LAYER_7
 10
5.928430210089172
 20
11.2681854188291
 30
0.0
  0
VERTEX
  5
3E4
  8
LAYER_7
 10
5.928430210089172
 20
12.2681854188291
 30
0.0
  0
VERTEX
  5
3E5
  8
LAYER_7
 10
5.928430210089172
 20
10.2681854188291
 30
0.0
  0
SEQEND
  5
657
  8
LAYER_7
  0
POLYLINE
  5
11B
  8
LAYER_7
 66
     1
 10
0.0
 20
0.0
 30
0.0
  0
VERTEX
  5
3E6
  8
LAYER_7
 10
6.865386799971136
 20
11.26813552778522
 30
0.0
  0
VERTEX
  5
3E7
  8
LAYER_7
 10
6.865386799971136
 20
12.26813552778522
 30
0.0
  0
VERTEX
  5
3E8
  8
LAYER_7
 10
6.865386799971136
 20
10.26813552778522
 30
0.0
  0
SEQEND
  5
658
  8
LAYER_7
  0
POLYLINE
  5
11C
  8
LAYER_7
 66
     1
 10
0.0
 20
0.0
 30
0.0
  0
VERTEX
  5
3E9
  8
LAYER_7
 10
7.875989405121111
 20
11.26947412561229
 30
0.0
  0
VERTEX
  5
3EA
  8
LAYER_7
 10
7.875989405121111
 20
12.26947412561229
 30
0.0
  0
VERTEX
  5
3EB
  8
LAYER_7
 10
7.875989405121111
 20
10.26947412561229
 30
0.0
  0
SEQEND
  5
659
  8
LAYER_7
  0
POLYLINE
  5
11D
  8
LAYER_7
 66
     1
 10
0.0
 20
0.0
 30
0.0
  0
VERTEX
  5
3EC
  8
LAYER_7
 10
8.716630210087892
 20
11.26818541882763
 30
0.0
  0
VERTEX
  5
3ED
  8
LAYER_7
 10
8.716630210087892
 20
12.26818541882763
 30
0.0
  0
VERTEX
  5
3EE
  8
LAYER_7
 10
8.716630210087892
 20
10.26818541882763
 30
0.0
  0
SEQEND
  5
65A
  8
LAYER_7
  0
POLYLINE
  5
11E
  8
LAYER_7
 66
     1
 10
0.0
 20
0.0
 30
0.0
 70
     1
  0
VERTEX
  5
3EF
  8
LAYER_7
 10
14.75439135617893
 20
23.77087241043578
 30
0.0
  0
VERTEX
  5
3F0
  8
LAYER_7
 10
14.75430341654949
 20
23.77087241043578
 30
0.0
  0
SEQEND
  5
65B
  8
LAYER_7
  0
POLYLINE
  5
11F
  8
LAYER_7
 66
     1
 10
0.0
 20
0.0
 30
0.0
 70
     1
  0
VERTEX
  5
3F1
  8
LAYER_7
 10
14.62947545631791
 20
20.02092187647735
 30
0.0
 42
0.4142135623730951
  0
VERTEX
  5
3F2
  8
LAYER_7
 10
14.56697545631791
 20
20.08342187647735
 30
0.0
 42
0.4142135623730951
  0
VERTEX
  5
3F3
  8
LAYER_7
 10
14.50447545631791
 20
20.02092187647735
 30
0.0
 42
0.4142135623730951
  0
VERTEX
  5
3F4
  8
LAYER_7
 10
14.56697545631791
 20
19.95842187647735
 30
0.0
 42
0.4142135623730951
  0
SEQEND
  5
65C
  8
LAYER_7
  0
POLYLINE
  5
120
  8
LAYER_7
 66
     1
 10
0.0
 20
0.0
 30
0.0
 70
     1
  0
VERTEX
  5
3F5
  8
LAYER_7
 10
14.62947545631791
 20
16.77092187647735
 30
0.0
 42
0.4142135623730951
  0
VERTEX
  5
3F6
  8
LAYER_7
 10
14.56697545631791
 20
16.83342187647735
 30
0.0
 42
0.4142135623730951
  0
VERTEX
  5
3F7
  8
LAYER_7
 10
14.50447545631791
 20
16.77092187647735
 30
0.0
 42
0.4142135623730951
  0
VERTEX
  5
3F8
  8
LAYER_7
 10
14.56697545631791
 20
16.70842187647735
 30
0.0
 42
0.4142135623730951
  0
SEQEND
  5
65D
  8
LAYER_7
  0
POLYLINE
  5
121
  8
LAYER_7
 66
     1
 10
0.0
 20
0.0
 30
0.0
 70
     1
  0
VERTEX
  5
3F9
  8
LAYER_7
 10
12.75537545631791
 20
24.39592187647734
 30
0.0
 42
0.4142135623730951
  0
VERTEX
  5
3FA
  8
LAYER_7
 10
12.69287545631791
 20
24.45842187647735
 30
0.0
 42
0.4142135623730951
  0
VERTEX
  5
3FB
  8
LAYER_7
 10
12.63037545631791
 20
24.39592187647734
 30
0.0
 42
0.4142135623730951
  0
VERTEX
  5
3FC
  8
LAYER_7
 10
12.69287545631791
 20
24.33342187647734
 30
0.0
 42
0.4142135623730951
  0
SEQEND
  5
65E
  8
LAYER_7
  0
POLYLINE
  5
122
  8
LAYER_7
 66
     1
 10
0.0
 20
0.0
 30
0.0
 70
     1
  0
VERTEX
  5
3FD
  8
LAYER_7
 10
10.88127545631791
 20
20.02092187647735
 30
0.0
 42
0.4142135623730951
  0
VERTEX
  5
3FE
  8
LAYER_7
 10
10.81877545631791
 20
20.08342187647735
 30
0.0
 42
0.4142135623730951
  0
VERTEX
  5
3FF
  8
LAYER_7
 10
10.75627545631791
 20
20.02092187647735
 30
0.0
 42
0.4142135623730951
  0
VERTEX
  5
400
  8
LAYER_7
 10
10.81877545631791
 20
19.95842187647735
 30
0.0
 42
0.4142135623730951
  0
SEQEND
  5
65F
  8
LAYER_7
  0
POLYLINE
  5
123
  8
LAYER_7
 66
     1
 10
0.0
 20
0.0
 30
0.0
 70
     1
  0
VERTEX
  5
401
  8
LAYER_7
 10
10.88127545631791
 20
16.77092187647735
 30
0.0
 42
0.4142135623730951
  0
VERTEX
  5
402
  8
LAYER_7
 10
10.81877545631791
 20
16.83342187647735
 30
0.0
 42
0.4142135623730951
  0
VERTEX
  5
403
  8
LAYER_7
 10
10.75627545631791
 20
16.77092187647735
 30
0.0
 42
0.4142135623730951
  0
VERTEX
  5
404
  8
LAYER_7
 10
10.81877545631791
 20
16.70842187647735
 30
0.0
 42
0.4142135623730951
  0
SEQEND
  5
660
  8
LAYER_7
  0
POLYLINE
  5
124
  8
LAYER_7
 66
     1
 10
0.0
 20
0.0
 30
0.0
 70
     1
  0
VERTEX
  5
405
  8
LAYER_7
 10
11.87187545631791
 20
16.77092187647735
 30
0.0
 42
0.4142135623730951
  0
VERTEX
  5
406
  8
LAYER_7
 10
11.80937545631791
 20
16.83342187647735
 30
0.0
 42
0.4142135623730951
  0
VERTEX
  5
407
  8
LAYER_7
 10
11.74687545631791
 20
16.77092187647735
 30
0.0
 42
0.4142135623730951
  0
VERTEX
  5
408
  8
LAYER_7
 10
11.80937545631791
 20
16.70842187647735
 30
0.0
 42
0.4142135623730951
  0
SEQEND
  5
661
  8
LAYER_7
  0
POLYLINE
  5
125
  8
LAYER_7
 66
     1
 10
0.0
 20
0.0
 30
0.0
 70
     1
  0
VERTEX
  5
409
  8
LAYER_7
 10
12.75537545631791
 20
15.88822187647734
 30
0.0
 42
0.4142135623730951
  0
VERTEX
  5
40A
  8
LAYER_7
 10
12.69287545631791
 20
15.95072187647734
 30
0.0
 42
0.4142135623730951
  0
VERTEX
  5
40B
  8
LAYER_7
 10
12.63037545631791
 20
15.88822187647734
 30
0.0
 42
0.4142135623730951
  0
VERTEX
  5
40C
  8
LAYER_7
 10
12.69287545631791
 20
15.82572187647734
 30
0.0
 42
0.4142135623730951
  0
SEQEND
  5
662
  8
LAYER_7
  0
POLYLINE
  5
126
  8
LAYER_7
 66
     1
 10
0.0
 20
0.0
 30
0.0
 70
     1
  0
VERTEX
  5
40D
  8
LAYER_7
 10
13.63757545631791
 20
16.77092187647735
 30
0.0
 42
0.4142135623730951
  0
VERTEX
  5
40E
  8
LAYER_7
 10
13.57507545631791
 20
16.83342187647735
 30
0.0
 42
0.4142135623730951
  0
VERTEX
  5
40F
  8
LAYER_7
 10
13.51257545631791
 20
16.77092187647735
 30
0.0
 42
0.4142135623730951
  0
VERTEX
  5
410
  8
LAYER_7
 10
13.57507545631791
 20
16.70842187647735
 30
0.0
 42
0.4142135623730951
  0
SEQEND
  5
663
  8
LAYER_7
  0
POLYLINE
  5
127
  8
LAYER_7
 66
     1
 10
0.0
 20
0.0
 30
0.0
 70
     1
  0
VERTEX
  5
411
  8
LAYER_7
 10
12.75537545631791
 20
17.65482187647734
 30
0.0
 42
0.4142135623730951
  0
VERTEX
  5
412
  8
LAYER_7
 10
12.69287545631791
 20
17.71732187647734
 30
0.0
 42
0.4142135623730951
  0
VERTEX
  5
413
  8
LAYER_7
 10
12.63037545631791
 20
17.65482187647734
 30
0.0
 42
0.4142135623730951
  0
VERTEX
  5
414
  8
LAYER_7
 10
12.69287545631791
 20
17.59232187647734
 30
0.0
 42
0.4142135623730951
  0
SEQEND
  5
664
  8
LAYER_7
  0
POLYLINE
  5
128
  8
LAYER_7
 66
     1
 10
0.0
 20
0.0
 30
0.0
 70
     1
  0
VERTEX
  5
415
  8
LAYER_7
 10
10.88057545631791
 20
13.52092187647734
 30
0.0
 42
0.4142135623730951
  0
VERTEX
  5
416
  8
LAYER_7
 10
10.81807545631791
 20
13.58342187647734
 30
0.0
 42
0.4142135623730951
  0
VERTEX
  5
417
  8
LAYER_7
 10
10.75557545631791
 20
13.52092187647734
 30
0.0
 42
0.4142135623730951
  0
VERTEX
  5
418
  8
LAYER_7
 10
10.81807545631791
 20
13.45842187647734
 30
0.0
 42
0.4142135623730951
  0
SEQEND
  5
665
  8
LAYER_7
  0
POLYLINE
  5
129
  8
LAYER_7
 66
     1
 10
0.0
 20
0.0
 30
0.0
 70
     1
  0
VERTEX
  5
419
  8
LAYER_7
 10
14.62947545631791
 20
13.52092187647734
 30
0.0
 42
0.4142135623730951
  0
VERTEX
  5
41A
  8
LAYER_7
 10
14.56697545631791
 20
13.58342187647734
 30
0.0
 42
0.4142135623730951
  0
VERTEX
  5
41B
  8
LAYER_7
 10
14.50447545631791
 20
13.52092187647734
 30
0.0
 42
0.4142135623730951
  0
VERTEX
  5
41C
  8
LAYER_7
 10
14.56697545631791
 20
13.45842187647734
 30
0.0
 42
0.4142135623730951
  0
SEQEND
  5
666
  8
LAYER_7
  0
POLYLINE
  5
12A
  8
LAYER_7
 66
     1
 10
0.0
 20
0.0
 30
0.0
 70
     1
  0
VERTEX
  5
41D
  8
LAYER_7
 10
12.75537545631791
 20
9.145921876477344
 30
0.0
 42
0.4142135623730951
  0
VERTEX
  5
41E
  8
LAYER_7
 10
12.69287545631791
 20
9.208421876477344
 30
0.0
 42
0.4142135623730951
  0
VERTEX
  5
41F
  8
LAYER_7
 10
12.63037545631791
 20
9.145921876477344
 30
0.0
 42
0.4142135623730951
  0
VERTEX
  5
420
  8
LAYER_7
 10
12.69287545631791
 20
9.083421876477344
 30
0.0
 42
0.4142135623730951
  0
SEQEND
  5
667
  8
LAYER_7
  0
POLYLINE
  5
12B
  8
LAYER_7
 66
     1
 10
0.0
 20
0.0
 30
0.0
  0
VERTEX
  5
421
  8
LAYER_7
 10
14.75439135617893
 20
23.77087241043578
 30
0.0
  0
VERTEX
  5
422
  8
LAYER_7
 10
14.75430341654949
 20
23.77087241043578
 30
0.0
  0
SEQEND
  5
668
  8
LAYER_7
  0
POLYLINE
  5
12C
  8
LAYER_7
 66
     1
 10
0.0
 20
0.0
 30
0.0
 70
     1
  0
VERTEX
  5
423
  8
LAYER_7
 10
13.19277545631791
 20
10.77092187647734
 30
0.0
 42
0.4142135623730951
  0
VERTEX
  5
424
  8
LAYER_7
 10
12.69277545631791
 20
11.27092187647734
 30
0.0
 42
0.4142135623730951
  0
VERTEX
  5
425
  8
LAYER_7
 10
12.19277545631791
 20
10.77092187647734
 30
0.0
 42
0.4142135623730951
  0
VERTEX
  5
426
  8
LAYER_7
 10
12.69277545631791
 20
10.27092187647734
 30
0.0
 42
0.4142135623730951
  0
SEQEND
  5
669
  8
LAYER_7
  0
POLYLINE
  5
12D
  8
LAYER_7
 66
     1
 10
0.0
 20
0.0
 30
0.0
 70
     1
  0
VERTEX
  5
427
  8
LAYER_7
 10
13.19277545631791
 20
12.77092187647734
 30
0.0
 42
0.4142135623730951
  0
VERTEX
  5
428
  8
LAYER_7
 10
12.69277545631791
 20
13.27092187647734
 30
0.0
 42
0.4142135623730951
  0
VERTEX
  5
429
  8
LAYER_7
 10
12.19277545631791
 20
12.77092187647734
 30
0.0
 42
0.4142135623730951
  0
VERTEX
  5
42A
  8
LAYER_7
 10
12.69277545631791
 20
12.27092187647734
 30
0.0
 42
0.4142135623730951
  0
SEQEND
  5
66A
  8
LAYER_7
  0
POLYLINE
  5
12E
  8
LAYER_7
 66
     1
 10
0.0
 20
0.0
 30
0.0
 70
     1
  0
VERTEX
  5
42B
  8
LAYER_7
 10
13.19277545631791
 20
14.77092187647734
 30
0.0
 42
0.4142135623730951
  0
VERTEX
  5
42C
  8
LAYER_7
 10
12.69277545631791
 20
15.27092187647734
 30
0.0
 42
0.4142135623730951
  0
VERTEX
  5
42D
  8
LAYER_7
 10
12.19277545631791
 20
14.77092187647734
 30
0.0
 42
0.4142135623730951
  0
VERTEX
  5
42E
  8
LAYER_7
 10
12.69277545631791
 20
14.27092187647734
 30
0.0
 42
0.4142135623730951
  0
SEQEND
  5
66B
  8
LAYER_7
  0
POLYLINE
  5
12F
  8
LAYER_7
 66
     1
 10
0.0
 20
0.0
 30
0.0
 70
     1
  0
VERTEX
  5
42F
  8
LAYER_7
 10
13.19287545631791
 20
22.64592187647735
 30
0.0
 42
0.4142135623730951
  0
VERTEX
  5
430
  8
LAYER_7
 10
12.69287545631791
 20
23.14592187647735
 30
0.0
 42
0.4142135623730951
  0
VERTEX
  5
431
  8
LAYER_7
 10
12.19287545631791
 20
22.64592187647735
 30
0.0
 42
0.4142135623730951
  0
VERTEX
  5
432
  8
LAYER_7
 10
12.69287545631791
 20
22.14592187647735
 30
0.0
 42
0.4142135623730951
  0
SEQEND
  5
66C
  8
LAYER_7
  0
POLYLINE
  5
130
  8
LAYER_7
 66
     1
 10
0.0
 20
0.0
 30
0.0
 70
     1
  0
VERTEX
  5
433
  8
LAYER_7
 10
13.19277545631791
 20
20.77092187647735
 30
0.0
 42
0.4142135623730951
  0
VERTEX
  5
434
  8
LAYER_7
 10
12.69277545631791
 20
21.27092187647735
 30
0.0
 42
0.4142135623730951
  0
VERTEX
  5
435
  8
LAYER_7
 10
12.19277545631791
 20
20.77092187647735
 30
0.0
 42
0.4142135623730951
  0
VERTEX
  5
436
  8
LAYER_7
 10
12.69277545631791
 20
20.27092187647735
 30
0.0
 42
0.4142135623730951
  0
SEQEND
  5
66D
  8
LAYER_7
  0
POLYLINE
  5
131
  8
LAYER_7
 66
     1
 10
0.0
 20
0.0
 30
0.0
 70
     1
  0
VERTEX
  5
437
  8
LAYER_7
 10
13.19277545631791
 20
18.77092187647735
 30
0.0
 42
0.4142135623730951
  0
VERTEX
  5
438
  8
LAYER_7
 10
12.69277545631791
 20
19.27092187647735
 30
0.0
 42
0.4142135623730951
  0
VERTEX
  5
439
  8
LAYER_7
 10
12.19277545631791
 20
18.77092187647735
 30
0.0
 42
0.4142135623730951
  0
VERTEX
  5
43A
  8
LAYER_7
 10
12.69277545631791
 20
18.27092187647735
 30
0.0
 42
0.4142135623730951
  0
SEQEND
  5
66E
  8
LAYER_7
  0
POLYLINE
  5
132
  8
LAYER_7
 66
     1
 10
0.0
 20
0.0
 30
0.0
 70
     1
  0
VERTEX
  5
43B
  8
LAYER_7
 10
10.6518347290321
 20
20.55818696395904
 30
0.0
  0
VERTEX
  5
43C
  8
LAYER_7
 10
9.61122995008279
 20
21.48355780476866
 30
0.0
 42
-0.2141737949642629
  0
VERTEX
  5
43D
  8
LAYER_7
 10
9.569294924879022
 20
21.5769666371246
 30
0.0
  0
VERTEX
  5
43E
  8
LAYER_7
 10
9.569294924879022
 20
24.64592187647734
 30
0.0
 42
-0.4142135623731313
  0
VERTEX
  5
43F
  8
LAYER_7
 10
9.694294924879022
 20
24.77092187647734
 30
0.0
  0
VERTEX
  5
440
  8
LAYER_7
 10
15.69135032134936
 20
24.77092187647734
 30
0.0
 42
-0.4142135623732745
  0
VERTEX
  5
441
  8
LAYER_7
 10
15.81635032134936
 20
24.64592187647734
 30
0.0
  0
VERTEX
  5
442
  8
LAYER_7
 10
15.81635032134935
 20
21.57705129740894
 30
0.0
 42
-0.2141623770402245
  0
VERTEX
  5
443
  8
LAYER_7
 10
15.77441937510928
 20
21.48364609248208
 30
0.0
  0
VERTEX
  5
444
  8
LAYER_7
 10
14.73379722588404
 20
20.55817842367865
 30
0.0
 42
0.2141623770392231
  0
VERTEX
  5
445
  8
LAYER_7
 10
14.69186627964398
 20
20.46477321875179
 30
0.0
  0
VERTEX
  5
446
  8
LAYER_7
 10
14.69186627964398
 20
13.07707053420289
 30
0.0
 42
0.2141623770393757
  0
VERTEX
  5
447
  8
LAYER_7
 10
14.73379722588404
 20
12.98366532927603
 30
0.0
  0
VERTEX
  5
448
  8
LAYER_7
 10
15.77441937510928
 20
12.0581976604726
 30
0.0
 42
-0.2141623770405423
  0
VERTEX
  5
449
  8
LAYER_7
 10
15.81635032134935
 20
11.96479245554574
 30
0.0
  0
VERTEX
  5
44A
  8
LAYER_7
 10
15.81635032134935
 20
8.895921876477344
 30
0.0
 42
-0.4142135623756218
  0
VERTEX
  5
44B
  8
LAYER_7
 10
15.69135032134935
 20
8.770921876477344
 30
0.0
  0
VERTEX
  5
44C
  8
LAYER_7
 10
9.694294924879019
 20
8.770921876477342
 30
0.0
 42
-0.4142135623708114
  0
VERTEX
  5
44D
  8
LAYER_7
 10
9.569294924879019
 20
8.895921876477342
 30
0.0
  0
VERTEX
  5
44E
  8
LAYER_7
 10
9.569294924879022
 20
11.96483330391666
 30
0.0
 42
-0.2140201381230837
  0
VERTEX
  5
44F
  8
LAYER_7
 10
9.611175069072543
 20
12.0581933037598
 30
0.0
  0
VERTEX
  5
450
  8
LAYER_7
 10
10.65067687200502
 20
12.98367788083238
 30
0.0
 42
0.2139772198623353
  0
VERTEX
  5
451
  8
LAYER_7
 10
10.69255701451435
 20
13.07701736124095
 30
0.0
  0
VERTEX
  5
452
  8
LAYER_7
 10
10.69376975255168
 20
20.46475761216853
 30
0.0
 42
0.2142167166807919
  0
SEQEND
  5
66F
  8
LAYER_7
  0
POLYLINE
  5
133
  8
LAYER_7
 66
     1
 10
0.0
 20
0.0
 30
0.0
 70
     1
  0
VERTEX
  5
453
  8
LAYER_7
 10
15.31662253398951
 20
9.083421876477336
 30
0.0
 42
0.4142135623730951
  0
VERTEX
  5
454
  8
LAYER_7
 10
15.25412253398951
 20
9.145921876477336
 30
0.0
 42
0.4142135623730951
  0
VERTEX
  5
455
  8
LAYER_7
 10
15.19162253398951
 20
9.083421876477336
 30
0.0
 42
0.4142135623730951
  0
VERTEX
  5
456
  8
LAYER_7
 10
15.25412253398951
 20
9.020921876477336
 30
0.0
 42
0.4142135623730951
  0
SEQEND
  5
670
  8
LAYER_7
  0
POLYLINE
  5
134
  8
LAYER_7
 66
     1
 10
0.0
 20
0.0
 30
0.0
 70
     1
  0
VERTEX
  5
457
  8
LAYER_7
 10
15.31662253398952
 20
24.45842187647734
 30
0.0
 42
0.4142135623730951
  0
VERTEX
  5
458
  8
LAYER_7
 10
15.25412253398952
 20
24.52092187647734
 30
0.0
 42
0.4142135623730951
  0
VERTEX
  5
459
  8
LAYER_7
 10
15.19162253398952
 20
24.45842187647734
 30
0.0
 42
0.4142135623730951
  0
VERTEX
  5
45A
  8
LAYER_7
 10
15.25412253398952
 20
24.39592187647733
 30
0.0
 42
0.4142135623730951
  0
SEQEND
  5
671
  8
LAYER_7
  0
POLYLINE
  5
135
  8
LAYER_7
 66
     1
 10
0.0
 20
0.0
 30
0.0
 70
     1
  0
VERTEX
  5
45B
  8
LAYER_7
 10
10.19412253398952
 20
24.45842187647734
 30
0.0
 42
0.4142135623730951
  0
VERTEX
  5
45C
  8
LAYER_7
 10
10.13162253398952
 20
24.52092187647734
 30
0.0
 42
0.4142135623730951
  0
VERTEX
  5
45D
  8
LAYER_7
 10
10.06912253398952
 20
24.45842187647734
 30
0.0
 42
0.4142135623730951
  0
VERTEX
  5
45E
  8
LAYER_7
 10
10.13162253398952
 20
24.39592187647733
 30
0.0
 42
0.4142135623730951
  0
SEQEND
  5
672
  8
LAYER_7
  0
POLYLINE
  5
136
  8
LAYER_7
 66
     1
 10
0.0
 20
0.0
 30
0.0
 70
     1
  0
VERTEX
  5
45F
  8
LAYER_7
 10
14.37962253398952
 20
24.02092187647733
 30
0.0
 42
0.4142135623730951
  0
VERTEX
  5
460
  8
LAYER_7
 10
14.31712253398952
 20
24.08342187647733
 30
0.0
 42
0.4142135623730951
  0
VERTEX
  5
461
  8
LAYER_7
 10
14.25462253398952
 20
24.02092187647733
 30
0.0
 42
0.4142135623730951
  0
VERTEX
  5
462
  8
LAYER_7
 10
14.31712253398952
 20
23.95842187647733
 30
0.0
 42
0.4142135623730951
  0
SEQEND
  5
673
  8
LAYER_7
  0
POLYLINE
  5
137
  8
LAYER_7
 66
     1
 10
0.0
 20
0.0
 30
0.0
 70
     1
  0
VERTEX
  5
463
  8
LAYER_7
 10
11.13112253398952
 20
24.02092187647733
 30
0.0
 42
0.4142135623730951
  0
VERTEX
  5
464
  8
LAYER_7
 10
11.06862253398952
 20
24.08342187647733
 30
0.0
 42
0.4142135623730951
  0
VERTEX
  5
465
  8
LAYER_7
 10
11.00612253398952
 20
24.02092187647733
 30
0.0
 42
0.4142135623730951
  0
VERTEX
  5
466
  8
LAYER_7
 10
11.06862253398952
 20
23.95842187647733
 30
0.0
 42
0.4142135623730951
  0
SEQEND
  5
674
  8
LAYER_7
  0
POLYLINE
  5
138
  8
LAYER_7
 66
     1
 10
0.0
 20
0.0
 30
0.0
 70
     1
  0
VERTEX
  5
467
  8
LAYER_7
 10
14.37962253398952
 20
9.520921876477336
 30
0.0
 42
0.4142135623730951
  0
VERTEX
  5
468
  8
LAYER_7
 10
14.31712253398952
 20
9.583421876477336
 30
0.0
 42
0.4142135623730951
  0
VERTEX
  5
469
  8
LAYER_7
 10
14.25462253398952
 20
9.520921876477336
 30
0.0
 42
0.4142135623730951
  0
VERTEX
  5
46A
  8
LAYER_7
 10
14.31712253398952
 20
9.458421876477336
 30
0.0
 42
0.4142135623730951
  0
SEQEND
  5
675
  8
LAYER_7
  0
POLYLINE
  5
139
  8
LAYER_7
 66
     1
 10
0.0
 20
0.0
 30
0.0
 70
     1
  0
VERTEX
  5
46B
  8
LAYER_7
 10
11.13112253398952
 20
9.520921876477336
 30
0.0
 42
0.4142135623730951
  0
VERTEX
  5
46C
  8
LAYER_7
 10
11.06862253398952
 20
9.583421876477336
 30
0.0
 42
0.4142135623730951
  0
VERTEX
  5
46D
  8
LAYER_7
 10
11.00612253398952
 20
9.520921876477336
 30
0.0
 42
0.4142135623730951
  0
VERTEX
  5
46E
  8
LAYER_7
 10
11.06862253398952
 20
9.458421876477336
 30
0.0
 42
0.4142135623730951
  0
SEQEND
  5
676
  8
LAYER_7
  0
POLYLINE
  5
13A
  8
LAYER_7
 66
     1
 10
0.0
 20
0.0
 30
0.0
 70
     1
  0
VERTEX
  5
46F
  8
LAYER_7
 10
14.87932253398952
 20
21.17712187647734
 30
0.0
 42
0.4142135623730951
  0
VERTEX
  5
470
  8
LAYER_7
 10
14.81682253398952
 20
21.23962187647734
 30
0.0
 42
0.4142135623730951
  0
VERTEX
  5
471
  8
LAYER_7
 10
14.75432253398952
 20
21.17712187647734
 30
0.0
 42
0.4142135623730951
  0
VERTEX
  5
472
  8
LAYER_7
 10
14.81682253398952
 20
21.11462187647734
 30
0.0
 42
0.4142135623730951
  0
SEQEND
  5
677
  8
LAYER_7
  0
POLYLINE
  5
13B
  8
LAYER_7
 66
     1
 10
0.0
 20
0.0
 30
0.0
 70
     1
  0
VERTEX
  5
473
  8
LAYER_7
 10
14.87932253398952
 20
22.77092187647734
 30
0.0
 42
0.4142135623730951
  0
VERTEX
  5
474
  8
LAYER_7
 10
14.81682253398952
 20
22.83342187647734
 30
0.0
 42
0.4142135623730951
  0
VERTEX
  5
475
  8
LAYER_7
 10
14.75432253398952
 20
22.77092187647734
 30
0.0
 42
0.4142135623730951
  0
VERTEX
  5
476
  8
LAYER_7
 10
14.81682253398952
 20
22.70842187647734
 30
0.0
 42
0.4142135623730951
  0
SEQEND
  5
678
  8
LAYER_7
  0
POLYLINE
  5
13C
  8
LAYER_7
 66
     1
 10
0.0
 20
0.0
 30
0.0
 70
     1
  0
VERTEX
  5
477
  8
LAYER_7
 10
10.63142253398952
 20
22.77092187647734
 30
0.0
 42
0.4142135623730951
  0
VERTEX
  5
478
  8
LAYER_7
 10
10.56892253398952
 20
22.83342187647734
 30
0.0
 42
0.4142135623730951
  0
VERTEX
  5
479
  8
LAYER_7
 10
10.50642253398952
 20
22.77092187647734
 30
0.0
 42
0.4142135623730951
  0
VERTEX
  5
47A
  8
LAYER_7
 10
10.56892253398952
 20
22.70842187647734
 30
0.0
 42
0.4142135623730951
  0
SEQEND
  5
679
  8
LAYER_7
  0
POLYLINE
  5
13D
  8
LAYER_7
 66
     1
 10
0.0
 20
0.0
 30
0.0
 70
     1
  0
VERTEX
  5
47B
  8
LAYER_7
 10
10.63162253398952
 20
21.17712187647734
 30
0.0
 42
0.4142135623730951
  0
VERTEX
  5
47C
  8
LAYER_7
 10
10.56912253398952
 20
21.23962187647734
 30
0.0
 42
0.4142135623730951
  0
VERTEX
  5
47D
  8
LAYER_7
 10
10.50662253398952
 20
21.17712187647734
 30
0.0
 42
0.4142135623730951
  0
VERTEX
  5
47E
  8
LAYER_7
 10
10.56912253398952
 20
21.11462187647734
 30
0.0
 42
0.4142135623730951
  0
SEQEND
  5
67A
  8
LAYER_7
  0
POLYLINE
  5
13E
  8
LAYER_7
 66
     1
 10
0.0
 20
0.0
 30
0.0
 70
     1
  0
VERTEX
  5
47F
  8
LAYER_7
 10
14.87912253398951
 20
12.35422187647734
 30
0.0
 42
0.4142135623730951
  0
VERTEX
  5
480
  8
LAYER_7
 10
14.81662253398951
 20
12.41672187647734
 30
0.0
 42
0.4142135623730951
  0
VERTEX
  5
481
  8
LAYER_7
 10
14.75412253398951
 20
12.35422187647734
 30
0.0
 42
0.4142135623730951
  0
VERTEX
  5
482
  8
LAYER_7
 10
14.81662253398951
 20
12.29172187647734
 30
0.0
 42
0.4142135623730951
  0
SEQEND
  5
67B
  8
LAYER_7
  0
POLYLINE
  5
13F
  8
LAYER_7
 66
     1
 10
0.0
 20
0.0
 30
0.0
 70
     1
  0
VERTEX
  5
483
  8
LAYER_7
 10
14.87912253398951
 20
10.77092187647734
 30
0.0
 42
0.4142135623730951
  0
VERTEX
  5
484
  8
LAYER_7
 10
14.81662253398951
 20
10.83342187647734
 30
0.0
 42
0.4142135623730951
  0
VERTEX
  5
485
  8
LAYER_7
 10
14.75412253398951
 20
10.77092187647734
 30
0.0
 42
0.4142135623730951
  0
VERTEX
  5
486
  8
LAYER_7
 10
14.81662253398951
 20
10.70842187647734
 30
0.0
 42
0.4142135623730951
  0
SEQEND
  5
67C
  8
LAYER_7
  0
POLYLINE
  5
140
  8
LAYER_7
 66
     1
 10
0.0
 20
0.0
 30
0.0
  0
VERTEX
  5
487
  8
LAYER_7
 10
11.44321565596615
 20
19.2709218764774
 30
0.0
  0
VERTEX
  5
488
  8
LAYER_7
 10
11.44321565596614
 20
20.2709218764774
 30
0.0
  0
SEQEND
  5
67D
  8
LAYER_7
  0
POLYLINE
  5
141
  8
LAYER_7
 66
     1
 10
0.0
 20
0.0
 30
0.0
  0
VERTEX
  5
489
  8
LAYER_7
 10
11.94321565596614
 20
20.27092187647739
 30
0.0
  0
VERTEX
  5
48A
  8
LAYER_7
 10
11.94321565596615
 20
19.2709218764774
 30
0.0
  0
SEQEND
  5
67E
  8
LAYER_7
  0
POLYLINE
  5
142
  8
LAYER_7
 66
     1
 10
0.0
 20
0.0
 30
0.0
  0
VERTEX
  5
48B
  8
LAYER_7
 10
11.69321565596614
 20
20.27092187647741
 30
0.0
  0
VERTEX
  5
48C
  8
LAYER_7
 10
11.69321565596614
 20
19.27092187647741
 30
0.0
  0
SEQEND
  5
67F
  8
LAYER_7
  0
POLYLINE
  5
143
  8
LAYER_7
 66
     1
 10
0.0
 20
0.0
 30
0.0
  0
VERTEX
  5
48D
  8
LAYER_7
 10
13.44232086798096
 20
19.2709218764774
 30
0.0
  0
VERTEX
  5
48E
  8
LAYER_7
 10
13.44232086798095
 20
20.2709218764774
 30
0.0
  0
SEQEND
  5
680
  8
LAYER_7
  0
POLYLINE
  5
144
  8
LAYER_7
 66
     1
 10
0.0
 20
0.0
 30
0.0
  0
VERTEX
  5
48F
  8
LAYER_7
 10
13.94232086798095
 20
20.27092187647739
 30
0.0
  0
VERTEX
  5
490
  8
LAYER_7
 10
13.94232086798096
 20
19.2709218764774
 30
0.0
  0
SEQEND
  5
681
  8
LAYER_7
  0
POLYLINE
  5
145
  8
LAYER_7
 66
     1
 10
0.0
 20
0.0
 30
0.0
  0
VERTEX
  5
491
  8
LAYER_7
 10
13.69232086798095
 20
20.27092187647741
 30
0.0
  0
VERTEX
  5
492
  8
LAYER_7
 10
13.69232086798095
 20
19.27092187647741
 30
0.0
  0
SEQEND
  5
682
  8
LAYER_7
  0
POLYLINE
  5
146
  8
LAYER_7
 66
     1
 10
0.0
 20
0.0
 30
0.0
  0
VERTEX
  5
493
  8
LAYER_7
 10
11.44277545631794
 20
13.27092187647739
 30
0.0
  0
VERTEX
  5
494
  8
LAYER_7
 10
11.44277545631794
 20
14.27092187647739
 30
0.0
  0
SEQEND
  5
683
  8
LAYER_7
  0
POLYLINE
  5
147
  8
LAYER_7
 66
     1
 10
0.0
 20
0.0
 30
0.0
  0
VERTEX
  5
495
  8
LAYER_7
 10
11.94277545631794
 20
14.27092187647738
 30
0.0
  0
VERTEX
  5
496
  8
LAYER_7
 10
11.94277545631794
 20
13.27092187647739
 30
0.0
  0
SEQEND
  5
684
  8
LAYER_7
  0
POLYLINE
  5
148
  8
LAYER_7
 66
     1
 10
0.0
 20
0.0
 30
0.0
  0
VERTEX
  5
497
  8
LAYER_7
 10
11.69277545631794
 20
14.2709218764774
 30
0.0
  0
VERTEX
  5
498
  8
LAYER_7
 10
11.69277545631794
 20
13.2709218764774
 30
0.0
  0
SEQEND
  5
685
  8
LAYER_7
  0
POLYLINE
  5
149
  8
LAYER_7
 66
     1
 10
0.0
 20
0.0
 30
0.0
  0
VERTEX
  5
499
  8
LAYER_7
 10
13.44277545631794
 20
13.27092187647739
 30
0.0
  0
VERTEX
  5
49A
  8
LAYER_7
 10
13.44277545631794
 20
14.27092187647739
 30
0.0
  0
SEQEND
  5
686
  8
LAYER_7
  0
POLYLINE
  5
14A
  8
LAYER_7
 66
     1
 10
0.0
 20
0.0
 30
0.0
  0
VERTEX
  5
49B
  8
LAYER_7
 10
13.94277545631794
 20
14.27092187647738
 30
0.0
  0
VERTEX
  5
49C
  8
LAYER_7
 10
13.94277545631794
 20
13.27092187647739
 30
0.0
  0
SEQEND
  5
687
  8
LAYER_7
  0
POLYLINE
  5
14B
  8
LAYER_7
 66
     1
 10
0.0
 20
0.0
 30
0.0
  0
VERTEX
  5
49D
  8
LAYER_7
 10
13.69277545631794
 20
14.2709218764774
 30
0.0
  0
VERTEX
  5
49E
  8
LAYER_7
 10
13.69277545631794
 20
13.2709218764774
 30
0.0
  0
SEQEND
  5
688
  8
LAYER_7
  0
POLYLINE
  5
14C
  8
LAYER_7
 66
     1
 10
0.0
 20
0.0
 30
0.0
  0
VERTEX
  5
49F
  8
LAYER_7
 10
13.44232086798096
 20
19.2709218764774
 30
0.0
  0
VERTEX
  5
4A0
  8
LAYER_7
 10
13.44232086798095
 20
20.2709218764774
 30
0.0
  0
SEQEND
  5
689
  8
LAYER_7
  0
POLYLINE
  5
14D
  8
LAYER_7
 66
     1
 10
0.0
 20
0.0
 30
0.0
  0
VERTEX
  5
4A1
  8
LAYER_7
 10
13.94232086798095
 20
20.2709218764774
 30
0.0
  0
VERTEX
  5
4A2
  8
LAYER_7
 10
13.94232086798096
 20
19.2709218764774
 30
0.0
  0
SEQEND
  5
68A
  8
LAYER_7
  0
POLYLINE
  5
14E
  8
LAYER_7
 66
     1
 10
0.0
 20
0.0
 30
0.0
  0
VERTEX
  5
4A3
  8
LAYER_7
 10
13.69232086798095
 20
20.27092187647742
 30
0.0
  0
VERTEX
  5
4A4
  8
LAYER_7
 10
13.69232086798095
 20
19.27092187647742
 30
0.0
  0
SEQEND
  5
68B
  8
LAYER_7
  0
POLYLINE
  5
14F
  8
LAYER_7
 66
     1
 10
0.0
 20
0.0
 30
0.0
  0
VERTEX
  5
4A5
  8
LAYER_7
 10
13.19232086798095
 20
19.52092187647742
 30
0.0
  0
VERTEX
  5
4A6
  8
LAYER_7
 10
13.19232086798095
 20
20.02092187647742
 30
0.0
  0
SEQEND
  5
68C
  8
LAYER_7
  0
POLYLINE
  5
150
  8
LAYER_7
 66
     1
 10
0.0
 20
0.0
 30
0.0
  0
VERTEX
  5
4A7
  8
LAYER_7
 10
13.19232086798095
 20
19.52092187647742
 30
0.0
  0
VERTEX
  5
4A8
  8
LAYER_7
 10
13.19232086798095
 20
19.77092187647742
 30
0.0
  0
VERTEX
  5
4A9
  8
LAYER_7
 10
13.19232086798095
 20
20.02092187647742
 30
0.0
  0
SEQEND
  5
68D
  8
LAYER_7
  0
POLYLINE
  5
151
  8
LAYER_7
 66
     1
 10
0.0
 20
0.0
 30
0.0
  0
VERTEX
  5
4AA
  8
LAYER_7
 10
14.19232086798095
 20
19.52092187647742
 30
0.0
  0
VERTEX
  5
4AB
  8
LAYER_7
 10
14.19232086798095
 20
20.02092187647742
 30
0.0
  0
SEQEND
  5
68E
  8
LAYER_7
  0
POLYLINE
  5
152
  8
LAYER_7
 66
     1
 10
0.0
 20
0.0
 30
0.0
  0
VERTEX
  5
4AC
  8
LAYER_7
 10
14.19232086798095
 20
19.52092187647742
 30
0.0
  0
VERTEX
  5
4AD
  8
LAYER_7
 10
14.19232086798095
 20
19.77092187647742
 30
0.0
  0
VERTEX
  5
4AE
  8
LAYER_7
 10
14.19232086798095
 20
20.02092187647742
 30
0.0
  0
SEQEND
  5
68F
  8
LAYER_7
  0
POLYLINE
  5
153
  8
LAYER_7
 66
     1
 10
0.0
 20
0.0
 30
0.0
  0
VERTEX
  5
4AF
  8
LAYER_7
 10
11.44321565596615
 20
19.2709218764774
 30
0.0
  0
VERTEX
  5
4B0
  8
LAYER_7
 10
11.44321565596614
 20
20.2709218764774
 30
0.0
  0
SEQEND
  5
690
  8
LAYER_7
  0
POLYLINE
  5
154
  8
LAYER_7
 66
     1
 10
0.0
 20
0.0
 30
0.0
  0
VERTEX
  5
4B1
  8
LAYER_7
 10
11.94321565596614
 20
20.2709218764774
 30
0.0
  0
VERTEX
  5
4B2
  8
LAYER_7
 10
11.94321565596615
 20
19.2709218764774
 30
0.0
  0
SEQEND
  5
691
  8
LAYER_7
  0
POLYLINE
  5
155
  8
LAYER_7
 66
     1
 10
0.0
 20
0.0
 30
0.0
  0
VERTEX
  5
4B3
  8
LAYER_7
 10
11.69321565596614
 20
20.27092187647741
 30
0.0
  0
VERTEX
  5
4B4
  8
LAYER_7
 10
11.69321565596614
 20
19.27092187647741
 30
0.0
  0
SEQEND
  5
692
  8
LAYER_7
  0
POLYLINE
  5
156
  8
LAYER_7
 66
     1
 10
0.0
 20
0.0
 30
0.0
  0
VERTEX
  5
4B5
  8
LAYER_7
 10
11.44321565596615
 20
19.27092187647741
 30
0.0
  0
VERTEX
  5
4B6
  8
LAYER_7
 10
11.44321565596614
 20
20.27092187647741
 30
0.0
  0
SEQEND
  5
693
  8
LAYER_7
  0
POLYLINE
  5
157
  8
LAYER_7
 66
     1
 10
0.0
 20
0.0
 30
0.0
  0
VERTEX
  5
4B7
  8
LAYER_7
 10
11.94321565596614
 20
20.2709218764774
 30
0.0
  0
VERTEX
  5
4B8
  8
LAYER_7
 10
11.94321565596615
 20
19.27092187647741
 30
0.0
  0
SEQEND
  5
694
  8
LAYER_7
  0
POLYLINE
  5
158
  8
LAYER_7
 66
     1
 10
0.0
 20
0.0
 30
0.0
  0
VERTEX
  5
4B9
  8
LAYER_7
 10
11.69321565596614
 20
20.27092187647742
 30
0.0
  0
VERTEX
  5
4BA
  8
LAYER_7
 10
11.69321565596614
 20
19.27092187647742
 30
0.0
  0
SEQEND
  5
695
  8
LAYER_7
  0
POLYLINE
  5
159
  8
LAYER_7
 66
     1
 10
0.0
 20
0.0
 30
0.0
  0
VERTEX
  5
4BB
  8
LAYER_7
 10
11.19321565596614
 20
19.52092187647742
 30
0.0
  0
VERTEX
  5
4BC
  8
LAYER_7
 10
11.19321565596614
 20
20.02092187647742
 30
0.0
  0
SEQEND
  5
696
  8
LAYER_7
  0
POLYLINE
  5
15A
  8
LAYER_7
 66
     1
 10
0.0
 20
0.0
 30
0.0
  0
VERTEX
  5
4BD
  8
LAYER_7
 10
11.19321565596614
 20
19.52092187647742
 30
0.0
  0
VERTEX
  5
4BE
  8
LAYER_7
 10
11.19321565596614
 20
19.77092187647742
 30
0.0
  0
VERTEX
  5
4BF
  8
LAYER_7
 10
11.19321565596614
 20
20.02092187647742
 30
0.0
  0
SEQEND
  5
697
  8
LAYER_7
  0
POLYLINE
  5
15B
  8
LAYER_7
 66
     1
 10
0.0
 20
0.0
 30
0.0
  0
VERTEX
  5
4C0
  8
LAYER_7
 10
12.19321565596614
 20
19.52092187647742
 30
0.0
  0
VERTEX
  5
4C1
  8
LAYER_7
 10
12.19321565596614
 20
20.02092187647742
 30
0.0
  0
SEQEND
  5
698
  8
LAYER_7
  0
POLYLINE
  5
15C
  8
LAYER_7
 66
     1
 10
0.0
 20
0.0
 30
0.0
  0
VERTEX
  5
4C2
  8
LAYER_7
 10
12.19321565596614
 20
19.52092187647742
 30
0.0
  0
VERTEX
  5
4C3
  8
LAYER_7
 10
12.19321565596614
 20
19.77092187647742
 30
0.0
  0
VERTEX
  5
4C4
  8
LAYER_7
 10
12.19321565596614
 20
20.02092187647742
 30
0.0
  0
SEQEND
  5
699
  8
LAYER_7
  0
POLYLINE
  5
15D
  8
LAYER_7
 66
     1
 10
0.0
 20
0.0
 30
0.0
  0
VERTEX
  5
4C5
  8
LAYER_7
 10
11.44277545631794
 20
13.27092187647739
 30
0.0
  0
VERTEX
  5
4C6
  8
LAYER_7
 10
11.44277545631794
 20
14.27092187647739
 30
0.0
  0
SEQEND
  5
69A
  8
LAYER_7
  0
POLYLINE
  5
15E
  8
LAYER_7
 66
     1
 10
0.0
 20
0.0
 30
0.0
  0
VERTEX
  5
4C7
  8
LAYER_7
 10
11.94277545631794
 20
14.27092187647739
 30
0.0
  0
VERTEX
  5
4C8
  8
LAYER_7
 10
11.94277545631794
 20
13.27092187647739
 30
0.0
  0
SEQEND
  5
69B
  8
LAYER_7
  0
POLYLINE
  5
15F
  8
LAYER_7
 66
     1
 10
0.0
 20
0.0
 30
0.0
  0
VERTEX
  5
4C9
  8
LAYER_7
 10
11.69277545631794
 20
14.2709218764774
 30
0.0
  0
VERTEX
  5
4CA
  8
LAYER_7
 10
11.69277545631794
 20
13.2709218764774
 30
0.0
  0
SEQEND
  5
69C
  8
LAYER_7
  0
POLYLINE
  5
160
  8
LAYER_7
 66
     1
 10
0.0
 20
0.0
 30
0.0
  0
VERTEX
  5
4CB
  8
LAYER_7
 10
11.44277545631794
 20
13.2709218764774
 30
0.0
  0
VERTEX
  5
4CC
  8
LAYER_7
 10
11.44277545631794
 20
14.2709218764774
 30
0.0
  0
SEQEND
  5
69D
  8
LAYER_7
  0
POLYLINE
  5
161
  8
LAYER_7
 66
     1
 10
0.0
 20
0.0
 30
0.0
  0
VERTEX
  5
4CD
  8
LAYER_7
 10
11.94277545631794
 20
14.27092187647739
 30
0.0
  0
VERTEX
  5
4CE
  8
LAYER_7
 10
11.94277545631794
 20
13.2709218764774
 30
0.0
  0
SEQEND
  5
69E
  8
LAYER_7
  0
POLYLINE
  5
162
  8
LAYER_7
 66
     1
 10
0.0
 20
0.0
 30
0.0
  0
VERTEX
  5
4CF
  8
LAYER_7
 10
11.69277545631794
 20
14.27092187647741
 30
0.0
  0
VERTEX
  5
4D0
  8
LAYER_7
 10
11.69277545631794
 20
13.27092187647741
 30
0.0
  0
SEQEND
  5
69F
  8
LAYER_7
  0
POLYLINE
  5
163
  8
LAYER_7
 66
     1
 10
0.0
 20
0.0
 30
0.0
  0
VERTEX
  5
4D1
  8
LAYER_7
 10
11.19277545631794
 20
13.52092187647741
 30
0.0
  0
VERTEX
  5
4D2
  8
LAYER_7
 10
11.19277545631794
 20
14.02092187647742
 30
0.0
  0
SEQEND
  5
6A0
  8
LAYER_7
  0
POLYLINE
  5
164
  8
LAYER_7
 66
     1
 10
0.0
 20
0.0
 30
0.0
  0
VERTEX
  5
4D3
  8
LAYER_7
 10
11.19277545631794
 20
13.52092187647741
 30
0.0
  0
VERTEX
  5
4D4
  8
LAYER_7
 10
11.19277545631794
 20
13.77092187647741
 30
0.0
  0
VERTEX
  5
4D5
  8
LAYER_7
 10
11.19277545631794
 20
14.02092187647742
 30
0.0
  0
SEQEND
  5
6A1
  8
LAYER_7
  0
POLYLINE
  5
165
  8
LAYER_7
 66
     1
 10
0.0
 20
0.0
 30
0.0
  0
VERTEX
  5
4D6
  8
LAYER_7
 10
12.19277545631794
 20
13.52092187647741
 30
0.0
  0
VERTEX
  5
4D7
  8
LAYER_7
 10
12.19277545631794
 20
14.02092187647742
 30
0.0
  0
SEQEND
  5
6A2
  8
LAYER_7
  0
POLYLINE
  5
166
  8
LAYER_7
 66
     1
 10
0.0
 20
0.0
 30
0.0
  0
VERTEX
  5
4D8
  8
LAYER_7
 10
12.19277545631794
 20
13.52092187647741
 30
0.0
  0
VERTEX
  5
4D9
  8
LAYER_7
 10
12.19277545631794
 20
13.77092187647741
 30
0.0
  0
VERTEX
  5
4DA
  8
LAYER_7
 10
12.19277545631794
 20
14.02092187647742
 30
0.0
  0
SEQEND
  5
6A3
  8
LAYER_7
  0
POLYLINE
  5
167
  8
LAYER_7
 66
     1
 10
0.0
 20
0.0
 30
0.0
  0
VERTEX
  5
4DB
  8
LAYER_7
 10
13.44277545631794
 20
13.27092187647739
 30
0.0
  0
VERTEX
  5
4DC
  8
LAYER_7
 10
13.44277545631794
 20
14.27092187647739
 30
0.0
  0
SEQEND
  5
6A4
  8
LAYER_7
  0
POLYLINE
  5
168
  8
LAYER_7
 66
     1
 10
0.0
 20
0.0
 30
0.0
  0
VERTEX
  5
4DD
  8
LAYER_7
 10
13.94277545631794
 20
14.27092187647739
 30
0.0
  0
VERTEX
  5
4DE
  8
LAYER_7
 10
13.94277545631794
 20
13.27092187647739
 30
0.0
  0
SEQEND
  5
6A5
  8
LAYER_7
  0
POLYLINE
  5
169
  8
LAYER_7
 66
     1
 10
0.0
 20
0.0
 30
0.0
  0
VERTEX
  5
4DF
  8
LAYER_7
 10
13.69277545631794
 20
14.2709218764774
 30
0.0
  0
VERTEX
  5
4E0
  8
LAYER_7
 10
13.69277545631794
 20
13.2709218764774
 30
0.0
  0
SEQEND
  5
6A6
  8
LAYER_7
  0
POLYLINE
  5
16A
  8
LAYER_7
 66
     1
 10
0.0
 20
0.0
 30
0.0
  0
VERTEX
  5
4E1
  8
LAYER_7
 10
13.44277545631794
 20
13.2709218764774
 30
0.0
  0
VERTEX
  5
4E2
  8
LAYER_7
 10
13.44277545631794
 20
14.2709218764774
 30
0.0
  0
SEQEND
  5
6A7
  8
LAYER_7
  0
POLYLINE
  5
16B
  8
LAYER_7
 66
     1
 10
0.0
 20
0.0
 30
0.0
  0
VERTEX
  5
4E3
  8
LAYER_7
 10
13.94277545631794
 20
14.27092187647739
 30
0.0
  0
VERTEX
  5
4E4
  8
LAYER_7
 10
13.94277545631794
 20
13.2709218764774
 30
0.0
  0
SEQEND
  5
6A8
  8
LAYER_7
  0
POLYLINE
  5
16C
  8
LAYER_7
 66
     1
 10
0.0
 20
0.0
 30
0.0
  0
VERTEX
  5
4E5
  8
LAYER_7
 10
13.69277545631794
 20
14.27092187647741
 30
0.0
  0
VERTEX
  5
4E6
  8
LAYER_7
 10
13.69277545631794
 20
13.27092187647741
 30
0.0
  0
SEQEND
  5
6A9
  8
LAYER_7
  0
POLYLINE
  5
16D
  8
LAYER_7
 66
     1
 10
0.0
 20
0.0
 30
0.0
  0
VERTEX
  5
4E7
  8
LAYER_7
 10
13.19277545631794
 20
13.52092187647741
 30
0.0
  0
VERTEX
  5
4E8
  8
LAYER_7
 10
13.19277545631794
 20
14.02092187647742
 30
0.0
  0
SEQEND
  5
6AA
  8
LAYER_7
  0
POLYLINE
  5
16E
  8
LAYER_7
 66
     1
 10
0.0
 20
0.0
 30
0.0
  0
VERTEX
  5
4E9
  8
LAYER_7
 10
13.19277545631794
 20
13.52092187647741
 30
0.0
  0
VERTEX
  5
4EA
  8
LAYER_7
 10
13.19277545631794
 20
13.77092187647741
 30
0.0
  0
VERTEX
  5
4EB
  8
LAYER_7
 10
13.19277545631794
 20
14.02092187647742
 30
0.0
  0
SEQEND
  5
6AB
  8
LAYER_7
  0
POLYLINE
  5
16F
  8
LAYER_7
 66
     1
 10
0.0
 20
0.0
 30
0.0
  0
VERTEX
  5
4EC
  8
LAYER_7
 10
14.19277545631794
 20
13.52092187647741
 30
0.0
  0
VERTEX
  5
4ED
  8
LAYER_7
 10
14.19277545631794
 20
14.02092187647742
 30
0.0
  0
SEQEND
  5
6AC
  8
LAYER_7
  0
POLYLINE
  5
170
  8
LAYER_7
 66
     1
 10
0.0
 20
0.0
 30
0.0
  0
VERTEX
  5
4EE
  8
LAYER_7
 10
14.19277545631794
 20
13.52092187647741
 30
0.0
  0
VERTEX
  5
4EF
  8
LAYER_7
 10
14.19277545631794
 20
13.77092187647741
 30
0.0
  0
VERTEX
  5
4F0
  8
LAYER_7
 10
14.19277545631794
 20
14.02092187647742
 30
0.0
  0
SEQEND
  5
6AD
  8
LAYER_7
  0
POLYLINE
  5
171
  8
LAYER_7
 66
     1
 10
0.0
 20
0.0
 30
0.0
  0
VERTEX
  5
4F1
  8
LAYER_7
 10
13.44232086798096
 20
19.2709218764774
 30
0.0
  0
VERTEX
  5
4F2
  8
LAYER_7
 10
13.44232086798095
 20
20.2709218764774
 30
0.0
  0
SEQEND
  5
6AE
  8
LAYER_7
  0
POLYLINE
  5
172
  8
LAYER_7
 66
     1
 10
0.0
 20
0.0
 30
0.0
  0
VERTEX
  5
4F3
  8
LAYER_7
 10
13.94232086798095
 20
20.27092187647739
 30
0.0
  0
VERTEX
  5
4F4
  8
LAYER_7
 10
13.94232086798096
 20
19.2709218764774
 30
0.0
  0
SEQEND
  5
6AF
  8
LAYER_7
  0
POLYLINE
  5
173
  8
LAYER_7
 66
     1
 10
0.0
 20
0.0
 30
0.0
  0
VERTEX
  5
4F5
  8
LAYER_7
 10
13.69232086798095
 20
20.27092187647741
 30
0.0
  0
VERTEX
  5
4F6
  8
LAYER_7
 10
13.69232086798095
 20
19.27092187647741
 30
0.0
  0
SEQEND
  5
6B0
  8
LAYER_7
  0
POLYLINE
  5
174
  8
LAYER_7
 66
     1
 10
0.0
 20
0.0
 30
0.0
  0
VERTEX
  5
4F7
  8
LAYER_7
 10
13.44232086798096
 20
19.2709218764774
 30
0.0
  0
VERTEX
  5
4F8
  8
LAYER_7
 10
13.44232086798095
 20
20.2709218764774
 30
0.0
  0
SEQEND
  5
6B1
  8
LAYER_7
  0
POLYLINE
  5
175
  8
LAYER_7
 66
     1
 10
0.0
 20
0.0
 30
0.0
  0
VERTEX
  5
4F9
  8
LAYER_7
 10
13.94232086798095
 20
20.2709218764774
 30
0.0
  0
VERTEX
  5
4FA
  8
LAYER_7
 10
13.94232086798096
 20
19.2709218764774
 30
0.0
  0
SEQEND
  5
6B2
  8
LAYER_7
  0
POLYLINE
  5
176
  8
LAYER_7
 66
     1
 10
0.0
 20
0.0
 30
0.0
  0
VERTEX
  5
4FB
  8
LAYER_7
 10
13.69232086798095
 20
20.27092187647742
 30
0.0
  0
VERTEX
  5
4FC
  8
LAYER_7
 10
13.69232086798095
 20
19.27092187647742
 30
0.0
  0
SEQEND
  5
6B3
  8
LAYER_7
  0
POLYLINE
  5
177
  8
LAYER_7
 66
     1
 10
0.0
 20
0.0
 30
0.0
  0
VERTEX
  5
4FD
  8
LAYER_7
 10
13.19232086798095
 20
19.52092187647742
 30
0.0
  0
VERTEX
  5
4FE
  8
LAYER_7
 10
13.19232086798095
 20
20.02092187647742
 30
0.0
  0
SEQEND
  5
6B4
  8
LAYER_7
  0
POLYLINE
  5
178
  8
LAYER_7
 66
     1
 10
0.0
 20
0.0
 30
0.0
  0
VERTEX
  5
4FF
  8
LAYER_7
 10
13.19232086798095
 20
19.52092187647742
 30
0.0
  0
VERTEX
  5
500
  8
LAYER_7
 10
13.19232086798095
 20
19.77092187647742
 30
0.0
  0
VERTEX
  5
501
  8
LAYER_7
 10
13.19232086798095
 20
20.02092187647742
 30
0.0
  0
SEQEND
  5
6B5
  8
LAYER_7
  0
POLYLINE
  5
179
  8
LAYER_7
 66
     1
 10
0.0
 20
0.0
 30
0.0
  0
VERTEX
  5
502
  8
LAYER_7
 10
14.19232086798095
 20
19.52092187647742
 30
0.0
  0
VERTEX
  5
503
  8
LAYER_7
 10
14.19232086798095
 20
20.02092187647742
 30
0.0
  0
SEQEND
  5
6B6
  8
LAYER_7
  0
POLYLINE
  5
17A
  8
LAYER_7
 66
     1
 10
0.0
 20
0.0
 30
0.0
  0
VERTEX
  5
504
  8
LAYER_7
 10
14.19232086798095
 20
19.52092187647742
 30
0.0
  0
VERTEX
  5
505
  8
LAYER_7
 10
14.19232086798095
 20
19.77092187647742
 30
0.0
  0
VERTEX
  5
506
  8
LAYER_7
 10
14.19232086798095
 20
20.02092187647742
 30
0.0
  0
SEQEND
  5
6B7
  8
LAYER_7
  0
POLYLINE
  5
17B
  8
LAYER_7
 66
     1
 10
0.0
 20
0.0
 30
0.0
  0
VERTEX
  5
507
  8
LAYER_7
 10
11.97952530758531
 20
23.03233535931045
 30
0.0
  0
VERTEX
  5
508
  8
LAYER_7
 10
11.27241852639876
 20
23.739442140497
 30
0.0
  0
SEQEND
  5
6B8
  8
LAYER_7
  0
POLYLINE
  5
17C
  8
LAYER_7
 66
     1
 10
0.0
 20
0.0
 30
0.0
  0
VERTEX
  5
509
  8
LAYER_7
 10
11.44919522169539
 20
23.91621883579364
 30
0.0
  0
VERTEX
  5
50A
  8
LAYER_7
 10
12.15630200288193
 20
23.2091120546071
 30
0.0
  0
SEQEND
  5
6B9
  8
LAYER_7
  0
POLYLINE
  5
17D
  8
LAYER_7
 66
     1
 10
0.0
 20
0.0
 30
0.0
  0
VERTEX
  5
50B
  8
LAYER_7
 10
11.9795253075853
 20
23.03233535931046
 30
0.0
  0
VERTEX
  5
50C
  8
LAYER_7
 10
11.27241852639875
 20
23.739442140497
 30
0.0
  0
SEQEND
  5
6BA
  8
LAYER_7
  0
POLYLINE
  5
17E
  8
LAYER_7
 66
     1
 10
0.0
 20
0.0
 30
0.0
  0
VERTEX
  5
50D
  8
LAYER_7
 10
11.44919522169538
 20
23.91621883579365
 30
0.0
  0
VERTEX
  5
50E
  8
LAYER_7
 10
12.15630200288193
 20
23.2091120546071
 30
0.0
  0
SEQEND
  5
6BB
  8
LAYER_7
  0
POLYLINE
  5
17F
  8
LAYER_7
 66
     1
 10
0.0
 20
0.0
 30
0.0
  0
VERTEX
  5
50F
  8
LAYER_7
 10
13.44232086798096
 20
19.2709218764774
 30
0.0
  0
VERTEX
  5
510
  8
LAYER_7
 10
13.44232086798095
 20
20.2709218764774
 30
0.0
  0
SEQEND
  5
6BC
  8
LAYER_7
  0
POLYLINE
  5
180
  8
LAYER_7
 66
     1
 10
0.0
 20
0.0
 30
0.0
  0
VERTEX
  5
511
  8
LAYER_7
 10
13.94232086798095
 20
20.27092187647739
 30
0.0
  0
VERTEX
  5
512
  8
LAYER_7
 10
13.94232086798096
 20
19.2709218764774
 30
0.0
  0
SEQEND
  5
6BD
  8
LAYER_7
  0
POLYLINE
  5
181
  8
LAYER_7
 66
     1
 10
0.0
 20
0.0
 30
0.0
  0
VERTEX
  5
513
  8
LAYER_7
 10
13.69232086798095
 20
20.27092187647741
 30
0.0
  0
VERTEX
  5
514
  8
LAYER_7
 10
13.69232086798095
 20
19.27092187647741
 30
0.0
  0
SEQEND
  5
6BE
  8
LAYER_7
  0
POLYLINE
  5
182
  8
LAYER_7
 66
     1
 10
0.0
 20
0.0
 30
0.0
  0
VERTEX
  5
515
  8
LAYER_7
 10
13.44232086798096
 20
19.2709218764774
 30
0.0
  0
VERTEX
  5
516
  8
LAYER_7
 10
13.44232086798095
 20
20.2709218764774
 30
0.0
  0
SEQEND
  5
6BF
  8
LAYER_7
  0
POLYLINE
  5
183
  8
LAYER_7
 66
     1
 10
0.0
 20
0.0
 30
0.0
  0
VERTEX
  5
517
  8
LAYER_7
 10
13.94232086798095
 20
20.2709218764774
 30
0.0
  0
VERTEX
  5
518
  8
LAYER_7
 10
13.94232086798096
 20
19.2709218764774
 30
0.0
  0
SEQEND
  5
6C0
  8
LAYER_7
  0
POLYLINE
  5
184
  8
LAYER_7
 66
     1
 10
0.0
 20
0.0
 30
0.0
  0
VERTEX
  5
519
  8
LAYER_7
 10
13.69232086798095
 20
20.27092187647742
 30
0.0
  0
VERTEX
  5
51A
  8
LAYER_7
 10
13.69232086798095
 20
19.27092187647742
 30
0.0
  0
SEQEND
  5
6C1
  8
LAYER_7
  0
POLYLINE
  5
185
  8
LAYER_7
 66
     1
 10
0.0
 20
0.0
 30
0.0
  0
VERTEX
  5
51B
  8
LAYER_7
 10
13.19232086798095
 20
19.52092187647742
 30
0.0
  0
VERTEX
  5
51C
  8
LAYER_7
 10
13.19232086798095
 20
20.02092187647742
 30
0.0
  0
SEQEND
  5
6C2
  8
LAYER_7
  0
POLYLINE
  5
186
  8
LAYER_7
 66
     1
 10
0.0
 20
0.0
 30
0.0
  0
VERTEX
  5
51D
  8
LAYER_7
 10
13.19232086798095
 20
19.52092187647742
 30
0.0
  0
VERTEX
  5
51E
  8
LAYER_7
 10
13.19232086798095
 20
19.77092187647742
 30
0.0
  0
VERTEX
  5
51F
  8
LAYER_7
 10
13.19232086798095
 20
20.02092187647742
 30
0.0
  0
SEQEND
  5
6C3
  8
LAYER_7
  0
POLYLINE
  5
187
  8
LAYER_7
 66
     1
 10
0.0
 20
0.0
 30
0.0
  0
VERTEX
  5
520
  8
LAYER_7
 10
14.19232086798095
 20
19.52092187647742
 30
0.0
  0
VERTEX
  5
521
  8
LAYER_7
 10
14.19232086798095
 20
20.02092187647742
 30
0.0
  0
SEQEND
  5
6C4
  8
LAYER_7
  0
POLYLINE
  5
188
  8
LAYER_7
 66
     1
 10
0.0
 20
0.0
 30
0.0
  0
VERTEX
  5
522
  8
LAYER_7
 10
14.19232086798095
 20
19.52092187647742
 30
0.0
  0
VERTEX
  5
523
  8
LAYER_7
 10
14.19232086798095
 20
19.77092187647742
 30
0.0
  0
VERTEX
  5
524
  8
LAYER_7
 10
14.19232086798095
 20
20.02092187647742
 30
0.0
  0
SEQEND
  5
6C5
  8
LAYER_7
  0
POLYLINE
  5
189
  8
LAYER_7
 66
     1
 10
0.0
 20
0.0
 30
0.0
  0
VERTEX
  5
525
  8
LAYER_7
 10
13.94307260839794
 20
9.570881605387681
 30
0.0
  0
VERTEX
  5
526
  8
LAYER_7
 10
13.23596582721139
 20
10.27798838657422
 30
0.0
  0
SEQEND
  5
6C6
  8
LAYER_7
  0
POLYLINE
  5
18A
  8
LAYER_7
 66
     1
 10
0.0
 20
0.0
 30
0.0
  0
VERTEX
  5
527
  8
LAYER_7
 10
13.41274252250802
 20
10.45476508187087
 30
0.0
  0
VERTEX
  5
528
  8
LAYER_7
 10
14.11984930369457
 20
9.747658300684323
 30
0.0
  0
SEQEND
  5
6C7
  8
LAYER_7
  0
POLYLINE
  5
18B
  8
LAYER_7
 66
     1
 10
0.0
 20
0.0
 30
0.0
  0
VERTEX
  5
529
  8
LAYER_7
 10
13.94307260839794
 20
9.570881605387685
 30
0.0
  0
VERTEX
  5
52A
  8
LAYER_7
 10
13.23596582721139
 20
10.27798838657423
 30
0.0
  0
SEQEND
  5
6C8
  8
LAYER_7
  0
POLYLINE
  5
18C
  8
LAYER_7
 66
     1
 10
0.0
 20
0.0
 30
0.0
  0
VERTEX
  5
52B
  8
LAYER_7
 10
13.41274252250802
 20
10.45476508187088
 30
0.0
  0
VERTEX
  5
52C
  8
LAYER_7
 10
14.11984930369457
 20
9.747658300684327
 30
0.0
  0
SEQEND
  5
6C9
  8
LAYER_7
  0
POLYLINE
  5
18D
  8
LAYER_7
 66
     1
 10
0.0
 20
0.0
 30
0.0
  0
VERTEX
  5
52D
  8
LAYER_7
 10
14.11332921388721
 20
23.73944243568509
 30
0.0
  0
VERTEX
  5
52E
  8
LAYER_7
 10
13.40622243270066
 20
23.03233565449855
 30
0.0
  0
SEQEND
  5
6CA
  8
LAYER_7
  0
POLYLINE
  5
18E
  8
LAYER_7
 66
     1
 10
0.0
 20
0.0
 30
0.0
  0
VERTEX
  5
52F
  8
LAYER_7
 10
13.22944573740402
 20
23.20911234979518
 30
0.0
  0
VERTEX
  5
530
  8
LAYER_7
 10
13.93655251859056
 20
23.91621913098172
 30
0.0
  0
SEQEND
  5
6CB
  8
LAYER_7
  0
POLYLINE
  5
18F
  8
LAYER_7
 66
     1
 10
0.0
 20
0.0
 30
0.0
  0
VERTEX
  5
531
  8
LAYER_7
 10
14.1133292138872
 20
23.73944243568509
 30
0.0
  0
VERTEX
  5
532
  8
LAYER_7
 10
13.40622243270066
 20
23.03233565449854
 30
0.0
  0
SEQEND
  5
6CC
  8
LAYER_7
  0
POLYLINE
  5
190
  8
LAYER_7
 66
     1
 10
0.0
 20
0.0
 30
0.0
  0
VERTEX
  5
533
  8
LAYER_7
 10
13.22944573740401
 20
23.20911234979517
 30
0.0
  0
VERTEX
  5
534
  8
LAYER_7
 10
13.93655251859056
 20
23.91621913098172
 30
0.0
  0
SEQEND
  5
6CD
  8
LAYER_7
  0
POLYLINE
  5
191
  8
LAYER_7
 66
     1
 10
0.0
 20
0.0
 30
0.0
  0
VERTEX
  5
535
  8
LAYER_7
 10
12.14969032136577
 20
10.27797875450455
 30
0.0
  0
VERTEX
  5
536
  8
LAYER_7
 10
11.44258354017922
 20
9.570871973318004
 30
0.0
  0
SEQEND
  5
6CE
  8
LAYER_7
  0
POLYLINE
  5
192
  8
LAYER_7
 66
     1
 10
0.0
 20
0.0
 30
0.0
  0
VERTEX
  5
537
  8
LAYER_7
 10
11.26580684488258
 20
9.747648668614636
 30
0.0
  0
VERTEX
  5
538
  8
LAYER_7
 10
11.97291362606913
 20
10.45475544980118
 30
0.0
  0
SEQEND
  5
6CF
  8
LAYER_7
  0
POLYLINE
  5
193
  8
LAYER_7
 66
     1
 10
0.0
 20
0.0
 30
0.0
  0
VERTEX
  5
539
  8
LAYER_7
 10
12.14969032136577
 20
10.27797875450455
 30
0.0
  0
VERTEX
  5
53A
  8
LAYER_7
 10
11.44258354017922
 20
9.570871973317997
 30
0.0
  0
SEQEND
  5
6D0
  8
LAYER_7
  0
POLYLINE
  5
194
  8
LAYER_7
 66
     1
 10
0.0
 20
0.0
 30
0.0
  0
VERTEX
  5
53B
  8
LAYER_7
 10
11.26580684488257
 20
9.747648668614628
 30
0.0
  0
VERTEX
  5
53C
  8
LAYER_7
 10
11.97291362606912
 20
10.45475544980118
 30
0.0
  0
SEQEND
  5
6D1
  8
LAYER_7
  0
POLYLINE
  5
195
  8
LAYER_7
 66
     1
 10
0.0
 20
0.0
 30
0.0
 70
     1
  0
VERTEX
  5
53D
  8
LAYER_7
 10
9.818922533989793
 20
23.59414518118424
 30
0.0
  0
VERTEX
  5
53E
  8
LAYER_7
 10
9.818922533989793
 20
24.09414518118424
 30
0.0
  0
VERTEX
  5
53F
  8
LAYER_7
 10
10.31892253398979
 20
24.09414518118424
 30
0.0
  0
VERTEX
  5
540
  8
LAYER_7
 10
10.31892253398979
 20
23.59414518118424
 30
0.0
  0
VERTEX
  5
541
  8
LAYER_7
 10
10.31892253398979
 20
21.44769857177752
 30
0.0
  0
VERTEX
  5
542
  8
LAYER_7
 10
9.818922533989793
 20
21.94769857177752
 30
0.0
  0
SEQEND
  5
6D2
  8
LAYER_7
  0
POLYLINE
  5
196
  8
LAYER_7
 66
     1
 10
0.0
 20
0.0
 30
0.0
 70
     1
  0
VERTEX
  5
543
  8
LAYER_7
 10
15.06658642766689
 20
23.59414518116795
 30
0.0
  0
VERTEX
  5
544
  8
LAYER_7
 10
15.06658642766689
 20
21.44769857176122
 30
0.0
  0
VERTEX
  5
545
  8
LAYER_7
 10
15.56658642766689
 20
21.94769857176122
 30
0.0
  0
VERTEX
  5
546
  8
LAYER_7
 10
15.56658642766689
 20
23.59414518116795
 30
0.0
  0
VERTEX
  5
547
  8
LAYER_7
 10
15.56658642766689
 20
24.09414518116795
 30
0.0
  0
VERTEX
  5
548
  8
LAYER_7
 10
15.06658642766689
 20
24.09414518116795
 30
0.0
  0
SEQEND
  5
6D3
  8
LAYER_7
  0
POLYLINE
  5
197
  8
LAYER_7
 66
     1
 10
0.0
 20
0.0
 30
0.0
 70
     1
  0
VERTEX
  5
549
  8
LAYER_7
 10
15.06648642766913
 20
9.947698571773723
 30
0.0
  0
VERTEX
  5
54A
  8
LAYER_7
 10
15.06648642766913
 20
12.09414518118045
 30
0.0
  0
VERTEX
  5
54B
  8
LAYER_7
 10
15.56648642766913
 20
11.59414518118045
 30
0.0
  0
VERTEX
  5
54C
  8
LAYER_7
 10
15.56648642766913
 20
9.947698571773723
 30
0.0
  0
VERTEX
  5
54D
  8
LAYER_7
 10
15.56648642766913
 20
9.447698571773723
 30
0.0
  0
VERTEX
  5
54E
  8
LAYER_7
 10
15.06648642766913
 20
9.447698571773723
 30
0.0
  0
SEQEND
  5
6D4
  8
LAYER_7
  0
POLYLINE
  5
198
  8
LAYER_7
 66
     1
 10
0.0
 20
0.0
 30
0.0
  0
VERTEX
  5
54F
  8
LAYER_7
 10
11.63086365794378
 20
22.33341122753784
 30
0.0
  0
VERTEX
  5
550
  8
LAYER_7
 10
11.63086365794378
 20
21.39588683803124
 30
0.0
  0
SEQEND
  5
6D5
  8
LAYER_7
  0
POLYLINE
  5
199
  8
LAYER_7
 66
     1
 10
0.0
 20
0.0
 30
0.0
  0
VERTEX
  5
551
  8
LAYER_7
 10
13.75482555809932
 20
22.33341122753784
 30
0.0
  0
VERTEX
  5
552
  8
LAYER_7
 10
13.75482555809932
 20
21.39588683803124
 30
0.0
  0
SEQEND
  5
6D6
  8
LAYER_7
  0
POLYLINE
  5
19A
  8
LAYER_7
 66
     1
 10
0.0
 20
0.0
 30
0.0
  0
VERTEX
  5
553
  8
LAYER_7
 10
11.63086365794377
 20
12.08343183838844
 30
0.0
  0
VERTEX
  5
554
  8
LAYER_7
 10
11.63086365794377
 20
11.20843252541685
 30
0.0
  0
SEQEND
  5
6D7
  8
LAYER_7
  0
POLYLINE
  5
19B
  8
LAYER_7
 66
     1
 10
0.0
 20
0.0
 30
0.0
  0
VERTEX
  5
555
  8
LAYER_7
 10
13.75482555809932
 20
12.08343183838838
 30
0.0
  0
VERTEX
  5
556
  8
LAYER_7
 10
13.75482555809932
 20
11.20843252541685
 30
0.0
  0
SEQEND
  5
6D8
  8
LAYER_7
  0
POLYLINE
  5
19C
  8
LAYER_7
 66
     1
 10
0.0
 20
0.0
 30
0.0
  0
VERTEX
  5
557
  8
LAYER_7
 10
11.31407545631755
 20
16.77092187647616
 30
0.0
  0
VERTEX
  5
558
  8
LAYER_7
 10
11.31407545631755
 20
17.77092187647616
 30
0.0
  0
VERTEX
  5
559
  8
LAYER_7
 10
11.31407545631755
 20
15.77092187647616
 30
0.0
  0
SEQEND
  5
6D9
  8
LAYER_7
  0
POLYLINE
  5
19D
  8
LAYER_7
 66
     1
 10
0.0
 20
0.0
 30
0.0
  0
VERTEX
  5
55A
  8
LAYER_7
 10
12.25103204619951
 20
16.77087198543228
 30
0.0
  0
VERTEX
  5
55B
  8
LAYER_7
 10
12.25103204619951
 20
17.77087198543228
 30
0.0
  0
VERTEX
  5
55C
  8
LAYER_7
 10
12.25103204619951
 20
15.77087198543228
 30
0.0
  0
SEQEND
  5
6DA
  8
LAYER_7
  0
POLYLINE
  5
19E
  8
LAYER_7
 66
     1
 10
0.0
 20
0.0
 30
0.0
  0
VERTEX
  5
55D
  8
LAYER_7
 10
13.26163465134949
 20
16.77221058325935
 30
0.0
  0
VERTEX
  5
55E
  8
LAYER_7
 10
13.26163465134949
 20
17.77221058325935
 30
0.0
  0
VERTEX
  5
55F
  8
LAYER_7
 10
13.26163465134949
 20
15.77221058325935
 30
0.0
  0
SEQEND
  5
6DB
  8
LAYER_7
  0
POLYLINE
  5
19F
  8
LAYER_7
 66
     1
 10
0.0
 20
0.0
 30
0.0
  0
VERTEX
  5
560
  8
LAYER_7
 10
14.10227545631627
 20
16.77092187647468
 30
0.0
  0
VERTEX
  5
561
  8
LAYER_7
 10
14.10227545631627
 20
17.77092187647468
 30
0.0
  0
VERTEX
  5
562
  8
LAYER_7
 10
14.10227545631627
 20
15.77092187647468
 30
0.0
  0
SEQEND
  5
6DC
  8
LAYER_7
  0
POLYLINE
  5
1A0
  8
LAYER_7
 66
     1
 10
0.0
 20
0.0
 30
0.0
 70
     1
  0
VERTEX
  5
563
  8
LAYER_7
 10
10.19412253398952
 20
9.083421876477336
 30
0.0
 42
0.4142135623730951
  0
VERTEX
  5
564
  8
LAYER_7
 10
10.13162253398952
 20
9.14592187647734
 30
0.0
 42
0.4142135623730951
  0
VERTEX
  5
565
  8
LAYER_7
 10
10.06912253398952
 20
9.08342187647734
 30
0.0
 42
0.4142135623730951
  0
VERTEX
  5
566
  8
LAYER_7
 10
10.13162253398952
 20
9.02092187647734
 30
0.0
 42
0.4142135623730951
  0
SEQEND
  5
6DD
  8
LAYER_7
  0
POLYLINE
  5
1A1
  8
LAYER_7
 66
     1
 10
0.0
 20
0.0
 30
0.0
 70
     1
  0
VERTEX
  5
567
  8
LAYER_7
 10
10.63162253398952
 20
12.35422187647734
 30
0.0
 42
0.4142135623730951
  0
VERTEX
  5
568
  8
LAYER_7
 10
10.56912253398952
 20
12.41672187647734
 30
0.0
 42
0.4142135623730951
  0
VERTEX
  5
569
  8
LAYER_7
 10
10.50662253398952
 20
12.35422187647734
 30
0.0
 42
0.4142135623730951
  0
VERTEX
  5
56A
  8
LAYER_7
 10
10.56912253398952
 20
12.29172187647734
 30
0.0
 42
0.4142135623730951
  0
SEQEND
  5
6DE
  8
LAYER_7
  0
POLYLINE
  5
1A2
  8
LAYER_7
 66
     1
 10
0.0
 20
0.0
 30
0.0
 70
     1
  0
VERTEX
  5
56B
  8
LAYER_7
 10
10.61982253398951
 20
10.76492187647734
 30
0.0
 42
0.4142135623730951
  0
VERTEX
  5
56C
  8
LAYER_7
 10
10.55732253398951
 20
10.82742187647734
 30
0.0
 42
0.4142135623730951
  0
VERTEX
  5
56D
  8
LAYER_7
 10
10.49482253398951
 20
10.76492187647734
 30
0.0
 42
0.4142135623730951
  0
VERTEX
  5
56E
  8
LAYER_7
 10
10.55732253398951
 20
10.70242187647734
 30
0.0
 42
0.4142135623730951
  0
SEQEND
  5
6DF
  8
LAYER_7
  0
POLYLINE
  5
1A3
  8
LAYER_7
 66
     1
 10
0.0
 20
0.0
 30
0.0
 70
     1
  0
VERTEX
  5
56F
  8
LAYER_7
 10
9.813308729434278
 20
9.941698571773996
 30
0.0
  0
VERTEX
  5
570
  8
LAYER_7
 10
9.813308729434278
 20
9.441698571773996
 30
0.0
  0
VERTEX
  5
571
  8
LAYER_7
 10
10.31330872943428
 20
9.441698571773996
 30
0.0
  0
VERTEX
  5
572
  8
LAYER_7
 10
10.31330872943428
 20
9.941698571773996
 30
0.0
  0
VERTEX
  5
573
  8
LAYER_7
 10
10.31330872943428
 20
12.08814518118072
 30
0.0
  0
VERTEX
  5
574
  8
LAYER_7
 10
9.813308729434278
 20
11.58814518118072
 30
0.0
  0
SEQEND
  5
6E0
  8
LAYER_7
  0
POLYLINE
  5
1A4
  8
LAYER_7
 66
     1
 10
0.0
 20
0.0
 30
0.0
 70
     1
  0
VERTEX
  5
575
  8
LAYER_7
 10
5.86871353605056
 20
26.47294320429274
 30
0.0
  0
VERTEX
  5
576
  8
LAYER_7
 10
5.914476348718713
 20
26.4546993883129
 30
0.0
  0
VERTEX
  5
577
  8
LAYER_7
 10
5.960397434787305
 20
26.43691497750976
 30
0.0
  0
VERTEX
  5
578
  8
LAYER_7
 10
6.006473364870459
 20
26.41959096598479
 30
0.0
  0
VERTEX
  5
579
  8
LAYER_7
 10
6.052700709582297
 20
26.40272834783944
 30
0.0
  0
VERTEX
  5
57A
  8
LAYER_7
 10
6.099076039536945
 20
26.3863281171752
 30
0.0
  0
VERTEX
  5
57B
  8
LAYER_7
 10
6.145595925348525
 20
26.3703912680935
 30
0.0
  0
VERTEX
  5
57C
  8
LAYER_7
 10
6.192256937631159
 20
26.35491879469583
 30
0.0
  0
VERTEX
  5
57D
  8
LAYER_7
 10
6.239055646998972
 20
26.33991169108365
 30
0.0
  0
VERTEX
  5
57E
  8
LAYER_7
 10
6.285988624066087
 20
26.3253709513584
 30
0.0
  0
VERTEX
  5
57F
  8
LAYER_7
 10
6.333052439446627
 20
26.31129756962157
 30
0.0
  0
VERTEX
  5
580
  8
LAYER_7
 10
6.380243663754715
 20
26.29769253997461
 30
0.0
  0
VERTEX
  5
581
  8
LAYER_7
 10
6.427558867604475
 20
26.28455685651899
 30
0.0
  0
VERTEX
  5
582
  8
LAYER_7
 10
6.474994621610029
 20
26.27189151335616
 30
0.0
  0
VERTEX
  5
583
  8
LAYER_7
 10
6.522547496385501
 20
26.2596975045876
 30
0.0
  0
VERTEX
  5
584
  8
LAYER_7
 10
6.570214062545014
 20
26.24797582431476
 30
0.0
  0
VERTEX
  5
585
  8
LAYER_7
 10
6.617990890702693
 20
26.23672746663911
 30
0.0
  0
VERTEX
  5
586
  8
LAYER_7
 10
6.61802954902301
 20
25.09784342220973
 30
0.0
 42
0.4142135623705485
  0
VERTEX
  5
587
  8
LAYER_7
 10
6.74302954902301
 20
24.97284342220973
 30
0.0
  0
VERTEX
  5
588
  8
LAYER_7
 10
8.74302954902301
 20
24.97284342220973
 30
0.0
 42
0.4142135623720549
  0
VERTEX
  5
589
  8
LAYER_7
 10
8.86802954902301
 20
25.09784342220973
 30
0.0
  0
VERTEX
  5
58A
  8
LAYER_7
 10
8.868070818377271
 20
26.23666640242693
 30
0.0
  0
VERTEX
  5
58B
  8
LAYER_7
 10
8.915841896065347
 20
26.24791054719883
 30
0.0
  0
VERTEX
  5
58C
  8
LAYER_7
 10
8.963505757170207
 20
26.25962865040577
 30
0.0
  0
VERTEX
  5
58D
  8
LAYER_7
 10
9.011058957878744
 20
26.27181981110722
 30
0.0
  0
VERTEX
  5
58E
  8
LAYER_7
 10
9.058498054377846
 20
26.28448312836267
 30
0.0
  0
VERTEX
  5
58F
  8
LAYER_7
 10
9.10581960285441
 20
26.29761770123161
 30
0.0
  0
VERTEX
  5
590
  8
LAYER_7
 10
9.153020159495325
 20
26.31122262877352
 30
0.0
  0
VERTEX
  5
591
  8
LAYER_7
 10
9.200096280487486
 20
26.32529701004788
 30
0.0
  0
VERTEX
  5
592
  8
LAYER_7
 10
9.24704452201778
 20
26.33983994411418
 30
0.0
  0
VERTEX
  5
593
  8
LAYER_7
 10
9.293861440273105
 20
26.35485053003191
 30
0.0
  0
VERTEX
  5
594
  8
LAYER_7
 10
9.340543591440351
 20
26.37032786686055
 30
0.0
  0
VERTEX
  5
595
  8
LAYER_7
 10
9.387087531706412
 20
26.38627105365959
 30
0.0
  0
VERTEX
  5
596
  8
LAYER_7
 10
9.433489817258177
 20
26.40267918948851
 30
0.0
  0
VERTEX
  5
597
  8
LAYER_7
 10
9.47974700428254
 20
26.4195513734068
 30
0.0
  0
VERTEX
  5
598
  8
LAYER_7
 10
9.525855648966393
 20
26.43688670447395
 30
0.0
  0
VERTEX
  5
599
  8
LAYER_7
 10
9.571812307496629
 20
26.45468428174943
 30
0.0
  0
VERTEX
  5
59A
  8
LAYER_7
 10
9.617613536060139
 20
26.47294320429274
 30
0.0
  0
VERTEX
  5
59B
  8
LAYER_7
 10
9.617613536060158
 20
26.47294320429274
 30
0.0
 42
-0.4142135623723391
  0
VERTEX
  5
59C
  8
LAYER_7
 10
9.742613536060158
 20
26.34794320429274
 30
0.0
  0
VERTEX
  5
59D
  8
LAYER_7
 10
9.742613536060158
 20
26.34794320429268
 30
0.0
 42
0.1910769230774528
  0
VERTEX
  5
59E
  8
LAYER_7
 10
9.742613536060158
 20
19.84794320430208
 30
0.0
  0
VERTEX
  5
59F
  8
LAYER_7
 10
9.742613536060158
 20
19.84794320430207
 30
0.0
 42
-0.4142135623730496
  0
VERTEX
  5
5A0
  8
LAYER_7
 10
9.617613536060158
 20
19.72294320430207
 30
0.0
 42
0.1945389301292214
  0
VERTEX
  5
5A1
  8
LAYER_7
 10
5.86871353605056
 20
19.72294320430207
 30
0.0
 42
-0.4142135623731065
  0
VERTEX
  5
5A2
  8
LAYER_7
 10
5.74371353605056
 20
19.84794320430207
 30
0.0
  0
VERTEX
  5
5A3
  8
LAYER_7
 10
5.74371353605056
 20
19.84794320430207
 30
0.0
 42
0.191061538464619
  0
VERTEX
  5
5A4
  8
LAYER_7
 10
5.74371353605056
 20
26.34794320429274
 30
0.0
 42
-0.4142135623716285
  0
SEQEND
  5
6E1
  8
LAYER_7
  0
POLYLINE
  5
1A5
  8
LAYER_7
 66
     1
 10
0.0
 20
0.0
 30
0.0
  0
VERTEX
  5
5A5
  8
LAYER_7
 10
9.368746109950557
 20
18.26813595278873
 30
0.0
  0
VERTEX
  5
5A6
  8
LAYER_7
 10
9.368658170321112
 20
18.26813595278873
 30
0.0
  0
SEQEND
  5
6E2
  8
LAYER_7
  0
POLYLINE
  5
1A6
  8
LAYER_7
 66
     1
 10
0.0
 20
0.0
 30
0.0
 70
     1
  0
VERTEX
  5
5A7
  8
LAYER_7
 10
4.0
 20
3.000000000000001
 30
0.0
  0
VERTEX
  5
5A8
  8
LAYER_7
 10
16.0
 20
3.000000000000001
 30
0.0
  0
VERTEX
  5
5A9
  8
LAYER_7
 10
16.0
 20
27.0
 30
0.0
  0
VERTEX
  5
5AA
  8
LAYER_7
 10
4.0
 20
27.0
 30
0.0
  0
SEQEND
  5
6E3
  8
LAYER_7
  0
ENDSEC
  0
EOF
