<?xml version="1.0" encoding="UTF-8"?>
<!-- Created by Vectric (http://www.vectric.com/) -->
<svg width="12.00000000in" height="24.00000000in" viewBox="0 0 12.00000000 24.00000000" id="svg2" version="1.1" xmlns="http://www.w3.org/2000/svg" xmlns:xlink="http://www.w3.org/1999/xlink" xmlns:inkscape="http://www.inkscape.org/namespaces/inkscape">
    <g inkscape:groupmode="layer" id="85667243-1302-4a85-b3ac-c7bf39b332ec" inkscape:label="Toolpath Previews"/>
    <g inkscape:groupmode="layer" id="64ddcdfe-a9f6-40aa-a87b-3233cdacf408" inkscape:label="Import - foldaquad_half_1">
        <path style="fill:none;stroke-width:0.010000;stroke-linecap:round;stroke-linejoin:round;stroke-opacity:1;stroke:#000000;" d="M 0.836025,4.832934 A 0.062500,0.062500 0 0,0 0.898525,4.770434 A 0.062500,0.062500 0 0,0 0.836025,4.707934 A 0.062500,0.062500 0 0,0 0.773525,4.770434 A 0.062500,0.062500 0 0,0 0.836025,4.832934 "/>
        <path style="fill:none;stroke-width:0.010000;stroke-linecap:round;stroke-linejoin:round;stroke-opacity:1;stroke:#000000;" d="M 0.836025,5.832434 A 0.062500,0.062500 0 0,0 0.898525,5.769934 A 0.062500,0.062500 0 0,0 0.836025,5.707434 A 0.062500,0.062500 0 0,0 0.773525,5.769934 A 0.062500,0.062500 0 0,0 0.836025,5.832434 "/>
        <path style="fill:none;stroke-width:0.010000;stroke-linecap:round;stroke-linejoin:round;stroke-opacity:1;stroke:#000000;" d="M 1.056925,6.611034 A 0.062500,0.062500 0 0,0 1.119425,6.548534 A 0.062500,0.062500 0 0,0 1.056925,6.486034 A 0.062500,0.062500 0 0,0 0.994425,6.548534 A 0.062500,0.062500 0 0,0 1.056925,6.611034 "/>
        <path style="fill:none;stroke-width:0.010000;stroke-linecap:round;stroke-linejoin:round;stroke-opacity:1;stroke:#000000;" d="M 0.615025,7.052834 A 0.062500,0.062500 0 0,0 0.677525,6.990334 A 0.062500,0.062500 0 0,0 0.615025,6.927834 A 0.062500,0.062500 0 0,0 0.552525,6.990334 A 0.062500,0.062500 0 0,0 0.615025,7.052834 "/>
        <path style="fill:none;stroke-width:0.010000;stroke-linecap:round;stroke-linejoin:round;stroke-opacity:1;stroke:#000000;" d="M 0.835925,6.969134 A 0.200000,0.200000 0 0,0 1.035925,6.769134 A 0.200000,0.200000 0 0,0 0.835925,6.569134 A 0.200000,0.200000 0 0,0 0.635925,6.769134 A 0.200000,0.200000 0 0,0 0.835925,6.969134 "/>
        <path style="fill:none;stroke-width:0.010000;stroke-linecap:round;stroke-linejoin:round;stroke-opacity:1;stroke:#000000;" d="M 0.835925,5.469134 A 0.200000,0.200000 0 0,0 1.035925,5.269134 A 0.200000,0.200000 0 0,0 0.835925,5.069134 A 0.200000,0.200000 0 0,0 0.635925,5.269134 A 0.200000,0.200000 0 0,0 0.835925,5.469134 "/>
        <path style="fill:none;stroke-width:0.010000;stroke-linecap:round;stroke-linejoin:round;stroke-opacity:1;stroke:#000000;" d="M 0.881367,2.954375 A 0.062500,0.062500 0 0,0 0.818867,3.016875 A 0.062500,0.062500 0 0,0 0.881367,3.079375 A 0.062500,0.062500 0 0,0 0.943867,3.016875 A 0.062500,0.062500 0 0,0 0.881367,2.954375 "/>
        <path style="fill:none;stroke-width:0.010000;stroke-linecap:round;stroke-linejoin:round;stroke-opacity:1;stroke:#000000;" d="M 0.881367,1.954875 A 0.062500,0.062500 0 0,0 0.818867,2.017375 A 0.062500,0.062500 0 0,0 0.881367,2.079875 A 0.062500,0.062500 0 0,0 0.943867,2.017375 A 0.062500,0.062500 0 0,0 0.881367,1.954875 "/>
        <path style="fill:none;stroke-width:0.010000;stroke-linecap:round;stroke-linejoin:round;stroke-opacity:1;stroke:#000000;" d="M 0.660467,1.176275 A 0.062500,0.062500 0 0,0 0.597967,1.238775 A 0.062500,0.062500 0 0,0 0.660467,1.301275 A 0.062500,0.062500 0 0,0 0.722967,1.238775 A 0.062500,0.062500 0 0,0 0.660467,1.176275 "/>
        <path style="fill:none;stroke-width:0.010000;stroke-linecap:round;stroke-linejoin:round;stroke-opacity:1;stroke:#000000;" d="M 1.102367,0.734475 A 0.062500,0.062500 0 0,0 1.039867,0.796975 A 0.062500,0.062500 0 0,0 1.102367,0.859475 A 0.062500,0.062500 0 0,0 1.164867,0.796975 A 0.062500,0.062500 0 0,0 1.102367,0.734475 "/>
        <path style="fill:none;stroke-width:0.010000;stroke-linecap:round;stroke-linejoin:round;stroke-opacity:1;stroke:#000000;" d="M 0.881467,0.818175 A 0.200000,0.200000 0 0,0 0.681467,1.018175 A 0.200000,0.200000 0 0,0 0.881467,1.218175 A 0.200000,0.200000 0 0,0 1.081467,1.018175 A 0.200000,0.200000 0 0,0 0.881467,0.818175 "/>
        <path style="fill:none;stroke-width:0.010000;stroke-linecap:round;stroke-linejoin:round;stroke-opacity:1;stroke:#000000;" d="M 0.881467,2.318175 A 0.200000,0.200000 0 0,0 0.681467,2.518175 A 0.200000,0.200000 0 0,0 0.881467,2.718175 A 0.200000,0.200000 0 0,0 1.081467,2.518175 A 0.200000,0.200000 0 0,0 0.881467,2.318175 "/>
        <path style="fill:none;stroke-width:0.010000;stroke-linecap:round;stroke-linejoin:round;stroke-opacity:1;stroke:#000000;" d="M 5.368746,8.731864 L 5.368658,8.731864 L 5.368746,8.731864 "/>
        <path style="fill:none;stroke-width:0.010000;stroke-linecap:round;stroke-linejoin:round;stroke-opacity:1;stroke:#000000;" d="M 5.243830,12.481815 A 0.062500,0.062500 0 0,0 5.181330,12.419315 A 0.062500,0.062500 0 0,0 5.118830,12.481815 A 0.062500,0.062500 0 0,0 5.181330,12.544315 A 0.062500,0.062500 0 0,0 5.243830,12.481815 "/>
        <path style="fill:none;stroke-width:0.010000;stroke-linecap:round;stroke-linejoin:round;stroke-opacity:1;stroke:#000000;" d="M 5.243830,15.731815 A 0.062500,0.062500 0 0,0 5.181330,15.669315 A 0.062500,0.062500 0 0,0 5.118830,15.731815 A 0.062500,0.062500 0 0,0 5.181330,15.794315 A 0.062500,0.062500 0 0,0 5.243830,15.731815 "/>
        <path style="fill:none;stroke-width:0.010000;stroke-linecap:round;stroke-linejoin:round;stroke-opacity:1;stroke:#000000;" d="M 3.369730,8.106815 A 0.062500,0.062500 0 0,0 3.307230,8.044315 A 0.062500,0.062500 0 0,0 3.244730,8.106815 A 0.062500,0.062500 0 0,0 3.307230,8.169315 A 0.062500,0.062500 0 0,0 3.369730,8.106815 "/>
        <path style="fill:none;stroke-width:0.010000;stroke-linecap:round;stroke-linejoin:round;stroke-opacity:1;stroke:#000000;" d="M 1.495630,12.481815 A 0.062500,0.062500 0 0,0 1.433130,12.419315 A 0.062500,0.062500 0 0,0 1.370630,12.481815 A 0.062500,0.062500 0 0,0 1.433130,12.544315 A 0.062500,0.062500 0 0,0 1.495630,12.481815 "/>
        <path style="fill:none;stroke-width:0.010000;stroke-linecap:round;stroke-linejoin:round;stroke-opacity:1;stroke:#000000;" d="M 1.495630,15.731815 A 0.062500,0.062500 0 0,0 1.433130,15.669315 A 0.062500,0.062500 0 0,0 1.370630,15.731815 A 0.062500,0.062500 0 0,0 1.433130,15.794315 A 0.062500,0.062500 0 0,0 1.495630,15.731815 "/>
        <path style="fill:none;stroke-width:0.010000;stroke-linecap:round;stroke-linejoin:round;stroke-opacity:1;stroke:#000000;" d="M 2.486230,15.731815 A 0.062500,0.062500 0 0,0 2.423730,15.669315 A 0.062500,0.062500 0 0,0 2.361230,15.731815 A 0.062500,0.062500 0 0,0 2.423730,15.794315 A 0.062500,0.062500 0 0,0 2.486230,15.731815 "/>
        <path style="fill:none;stroke-width:0.010000;stroke-linecap:round;stroke-linejoin:round;stroke-opacity:1;stroke:#000000;" d="M 3.369730,16.614515 A 0.062500,0.062500 0 0,0 3.307230,16.552015 A 0.062500,0.062500 0 0,0 3.244730,16.614515 A 0.062500,0.062500 0 0,0 3.307230,16.677015 A 0.062500,0.062500 0 0,0 3.369730,16.614515 "/>
        <path style="fill:none;stroke-width:0.010000;stroke-linecap:round;stroke-linejoin:round;stroke-opacity:1;stroke:#000000;" d="M 4.251930,15.731815 A 0.062500,0.062500 0 0,0 4.189430,15.669315 A 0.062500,0.062500 0 0,0 4.126930,15.731815 A 0.062500,0.062500 0 0,0 4.189430,15.794315 A 0.062500,0.062500 0 0,0 4.251930,15.731815 "/>
        <path style="fill:none;stroke-width:0.010000;stroke-linecap:round;stroke-linejoin:round;stroke-opacity:1;stroke:#000000;" d="M 3.369730,14.847915 A 0.062500,0.062500 0 0,0 3.307230,14.785415 A 0.062500,0.062500 0 0,0 3.244730,14.847915 A 0.062500,0.062500 0 0,0 3.307230,14.910415 A 0.062500,0.062500 0 0,0 3.369730,14.847915 "/>
        <path style="fill:none;stroke-width:0.010000;stroke-linecap:round;stroke-linejoin:round;stroke-opacity:1;stroke:#000000;" d="M 1.494930,18.981815 A 0.062500,0.062500 0 0,0 1.432430,18.919315 A 0.062500,0.062500 0 0,0 1.369930,18.981815 A 0.062500,0.062500 0 0,0 1.432430,19.044315 A 0.062500,0.062500 0 0,0 1.494930,18.981815 "/>
        <path style="fill:none;stroke-width:0.010000;stroke-linecap:round;stroke-linejoin:round;stroke-opacity:1;stroke:#000000;" d="M 5.243830,18.981815 A 0.062500,0.062500 0 0,0 5.181330,18.919315 A 0.062500,0.062500 0 0,0 5.118830,18.981815 A 0.062500,0.062500 0 0,0 5.181330,19.044315 A 0.062500,0.062500 0 0,0 5.243830,18.981815 "/>
        <path style="fill:none;stroke-width:0.010000;stroke-linecap:round;stroke-linejoin:round;stroke-opacity:1;stroke:#000000;" d="M 3.369730,23.356815 A 0.062500,0.062500 0 0,0 3.307230,23.294315 A 0.062500,0.062500 0 0,0 3.244730,23.356815 A 0.062500,0.062500 0 0,0 3.307230,23.419315 A 0.062500,0.062500 0 0,0 3.369730,23.356815 "/>
        <path style="fill:none;stroke-width:0.010000;stroke-linecap:round;stroke-linejoin:round;stroke-opacity:1;stroke:#000000;" d="M 3.807130,21.731815 A 0.500000,0.500000 0 0,0 3.307130,21.231815 A 0.500000,0.500000 0 0,0 2.807130,21.731815 A 0.500000,0.500000 0 0,0 3.307130,22.231815 A 0.500000,0.500000 0 0,0 3.807130,21.731815 "/>
        <path style="fill:none;stroke-width:0.010000;stroke-linecap:round;stroke-linejoin:round;stroke-opacity:1;stroke:#000000;" d="M 3.807130,19.731815 A 0.500000,0.500000 0 0,0 3.307130,19.231815 A 0.500000,0.500000 0 0,0 2.807130,19.731815 A 0.500000,0.500000 0 0,0 3.307130,20.231815 A 0.500000,0.500000 0 0,0 3.807130,19.731815 "/>
        <path style="fill:none;stroke-width:0.010000;stroke-linecap:round;stroke-linejoin:round;stroke-opacity:1;stroke:#000000;" d="M 3.807130,17.731815 A 0.500000,0.500000 0 0,0 3.307130,17.231815 A 0.500000,0.500000 0 0,0 2.807130,17.731815 A 0.500000,0.500000 0 0,0 3.307130,18.231815 A 0.500000,0.500000 0 0,0 3.807130,17.731815 "/>
        <path style="fill:none;stroke-width:0.010000;stroke-linecap:round;stroke-linejoin:round;stroke-opacity:1;stroke:#000000;" d="M 3.807230,9.856815 A 0.500000,0.500000 0 0,0 3.307230,9.356815 A 0.500000,0.500000 0 0,0 2.807230,9.856815 A 0.500000,0.500000 0 0,0 3.307230,10.356815 A 0.500000,0.500000 0 0,0 3.807230,9.856815 "/>
        <path style="fill:none;stroke-width:0.010000;stroke-linecap:round;stroke-linejoin:round;stroke-opacity:1;stroke:#000000;" d="M 3.807130,11.731815 A 0.500000,0.500000 0 0,0 3.307130,11.231815 A 0.500000,0.500000 0 0,0 2.807130,11.731815 A 0.500000,0.500000 0 0,0 3.307130,12.231815 A 0.500000,0.500000 0 0,0 3.807130,11.731815 "/>
        <path style="fill:none;stroke-width:0.010000;stroke-linecap:round;stroke-linejoin:round;stroke-opacity:1;stroke:#000000;" d="M 3.807130,13.731815 A 0.500000,0.500000 0 0,0 3.307130,13.231815 A 0.500000,0.500000 0 0,0 2.807130,13.731815 A 0.500000,0.500000 0 0,0 3.307130,14.231815 A 0.500000,0.500000 0 0,0 3.807130,13.731815 "/>
        <path style="fill:none;stroke-width:0.010000;stroke-linecap:round;stroke-linejoin:round;stroke-opacity:1;stroke:#000000;" d="M 8.201495,1.145950 A 0.062500,0.062500 0 0,0 8.138995,1.083450 A 0.062500,0.062500 0 0,0 8.076495,1.145950 A 0.062500,0.062500 0 0,0 8.138995,1.208450 A 0.062500,0.062500 0 0,0 8.201495,1.145950 "/>
        <path style="fill:none;stroke-width:0.010000;stroke-linecap:round;stroke-linejoin:round;stroke-opacity:1;stroke:#000000;" d="M 10.421395,1.366950 A 0.062500,0.062500 0 0,0 10.358895,1.304450 A 0.062500,0.062500 0 0,0 10.296395,1.366950 A 0.062500,0.062500 0 0,0 10.358895,1.429450 A 0.062500,0.062500 0 0,0 10.421395,1.366950 "/>
        <path style="fill:none;stroke-width:0.010000;stroke-linecap:round;stroke-linejoin:round;stroke-opacity:1;stroke:#000000;" d="M 9.979695,0.925050 A 0.062500,0.062500 0 0,0 9.917195,0.862550 A 0.062500,0.062500 0 0,0 9.854695,0.925050 A 0.062500,0.062500 0 0,0 9.917195,0.987550 A 0.062500,0.062500 0 0,0 9.979695,0.925050 "/>
        <path style="fill:none;stroke-width:0.010000;stroke-linecap:round;stroke-linejoin:round;stroke-opacity:1;stroke:#000000;" d="M 9.201095,1.145950 A 0.062500,0.062500 0 0,0 9.138595,1.083450 A 0.062500,0.062500 0 0,0 9.076095,1.145950 A 0.062500,0.062500 0 0,0 9.138595,1.208450 A 0.062500,0.062500 0 0,0 9.201095,1.145950 "/>
        <path style="fill:none;stroke-width:0.010000;stroke-linecap:round;stroke-linejoin:round;stroke-opacity:1;stroke:#000000;" d="M 10.337695,1.145950 A 0.200000,0.200000 0 0,0 10.137695,0.945950 A 0.200000,0.200000 0 0,0 9.937695,1.145950 A 0.200000,0.200000 0 0,0 10.137695,1.345950 A 0.200000,0.200000 0 0,0 10.337695,1.145950 "/>
        <path style="fill:none;stroke-width:0.010000;stroke-linecap:round;stroke-linejoin:round;stroke-opacity:1;stroke:#000000;" d="M 8.837695,1.145950 A 0.200000,0.200000 0 0,0 8.637695,0.945950 A 0.200000,0.200000 0 0,0 8.437695,1.145950 A 0.200000,0.200000 0 0,0 8.637695,1.345950 A 0.200000,0.200000 0 0,0 8.837695,1.145950 "/>
        <path style="fill:none;stroke-width:0.010000;stroke-linecap:round;stroke-linejoin:round;stroke-opacity:1;stroke:#000000;" d="M 8.383156,22.990673 A 0.062500,0.062500 0 0,0 8.320656,22.928173 A 0.062500,0.062500 0 0,0 8.258156,22.990673 A 0.062500,0.062500 0 0,0 8.320656,23.053173 A 0.062500,0.062500 0 0,0 8.383156,22.990673 "/>
        <path style="fill:none;stroke-width:0.010000;stroke-linecap:round;stroke-linejoin:round;stroke-opacity:1;stroke:#000000;" d="M 10.603056,23.211673 A 0.062500,0.062500 0 0,0 10.540556,23.149173 A 0.062500,0.062500 0 0,0 10.478056,23.211673 A 0.062500,0.062500 0 0,0 10.540556,23.274173 A 0.062500,0.062500 0 0,0 10.603056,23.211673 "/>
        <path style="fill:none;stroke-width:0.010000;stroke-linecap:round;stroke-linejoin:round;stroke-opacity:1;stroke:#000000;" d="M 10.161356,22.769773 A 0.062500,0.062500 0 0,0 10.098856,22.707273 A 0.062500,0.062500 0 0,0 10.036356,22.769773 A 0.062500,0.062500 0 0,0 10.098856,22.832273 A 0.062500,0.062500 0 0,0 10.161356,22.769773 "/>
        <path style="fill:none;stroke-width:0.010000;stroke-linecap:round;stroke-linejoin:round;stroke-opacity:1;stroke:#000000;" d="M 9.382756,22.990673 A 0.062500,0.062500 0 0,0 9.320256,22.928173 A 0.062500,0.062500 0 0,0 9.257756,22.990673 A 0.062500,0.062500 0 0,0 9.320256,23.053173 A 0.062500,0.062500 0 0,0 9.382756,22.990673 "/>
        <path style="fill:none;stroke-width:0.010000;stroke-linecap:round;stroke-linejoin:round;stroke-opacity:1;stroke:#000000;" d="M 10.519356,22.990673 A 0.200000,0.200000 0 0,0 10.319356,22.790673 A 0.200000,0.200000 0 0,0 10.119356,22.990673 A 0.200000,0.200000 0 0,0 10.319356,23.190673 A 0.200000,0.200000 0 0,0 10.519356,22.990673 "/>
        <path style="fill:none;stroke-width:0.010000;stroke-linecap:round;stroke-linejoin:round;stroke-opacity:1;stroke:#000000;" d="M 9.019356,22.990673 A 0.200000,0.200000 0 0,0 8.819356,22.790673 A 0.200000,0.200000 0 0,0 8.619356,22.990673 A 0.200000,0.200000 0 0,0 8.819356,23.190673 A 0.200000,0.200000 0 0,0 9.019356,22.990673 "/>
    </g>
    <g inkscape:groupmode="layer" id="723a7b33-0182-474a-b579-d4d580ae0a62" inkscape:label="Layer 2">
        <path style="fill:none;stroke-width:0.010000;stroke-linecap:round;stroke-linejoin:round;stroke-opacity:1;stroke:#000000;" d="M 1.266189,11.944549 L 0.225585,11.019179 A 0.125000,0.125000 0 0,1 0.183650,10.925770 L 0.183650,7.856815 A 0.125000,0.125000 0 0,1 0.308650,7.731815 L 6.305705,7.731815 A 0.125000,0.125000 0 0,1 6.430705,7.856815 L 6.430705,10.925685 A 0.125000,0.125000 0 0,1 6.388774,11.019090 L 5.348152,11.944558 A 0.125000,0.125000 0 0,0 5.306221,12.037963 L 5.306221,19.425666 A 0.125000,0.125000 0 0,0 5.348152,19.519071 L 6.388774,20.444539 A 0.125000,0.125000 0 0,1 6.430705,20.537944 L 6.430705,23.606815 A 0.125000,0.125000 0 0,1 6.305705,23.731815 L 0.308650,23.731815 A 0.125000,0.125000 0 0,1 0.183650,23.606815 L 0.183650,20.537903 A 0.125000,0.125000 0 0,1 0.225530,20.444543 L 1.265032,19.519059 A 0.125000,0.125000 0 0,0 1.306912,19.425719 L 1.308125,12.037979 A 0.125000,0.125000 0 0,0 1.266189,11.944549 "/>
    </g>
    <g inkscape:groupmode="layer" id="1d2d9c4a-6b81-4add-a0e2-dc65152b00fc" inkscape:label="Layer 3">
        <path style="fill:none;stroke-width:0.010000;stroke-linecap:round;stroke-linejoin:round;stroke-opacity:1;stroke:#000000;" d="M 1.273495,7.519123 L 0.398483,7.519123 A 0.125000,0.125000 0 0,1 0.273483,7.394123 L 0.273483,3.799301 A 0.125000,0.125000 0 0,1 0.481506,3.705855 L 1.356517,4.483263 A 0.125000,0.125000 0 0,1 1.398495,4.576709 L 1.398495,7.394123 A 0.125000,0.125000 0 0,1 1.273495,7.519123 "/>
        <path style="fill:none;stroke-width:0.010000;stroke-linecap:round;stroke-linejoin:round;stroke-opacity:1;stroke:#000000;" d="M 0.443898,0.268185 L 1.318910,0.268185 A 0.125000,0.125000 0 0,1 1.443910,0.393185 L 1.443910,3.988008 A 0.125000,0.125000 0 0,1 1.235887,4.081454 L 0.360875,3.304046 A 0.125000,0.125000 0 0,1 0.318898,3.210599 L 0.318898,0.393185 A 0.125000,0.125000 0 0,1 0.443898,0.268185 "/>
        <path style="fill:none;stroke-width:0.010000;stroke-linecap:round;stroke-linejoin:round;stroke-opacity:1;stroke:#000000;" d="M 7.167890,0.583527 L 10.762712,0.583527 A 0.125000,0.125000 0 0,1 10.887712,0.708527 L 10.887712,1.583539 A 0.125000,0.125000 0 0,1 10.762712,1.708539 L 7.945298,1.708539 A 0.125000,0.125000 0 0,1 7.851852,1.666562 L 7.074443,0.791550 A 0.125000,0.125000 0 0,1 7.167890,0.583527 "/>
        <path style="fill:none;stroke-width:0.010000;stroke-linecap:round;stroke-linejoin:round;stroke-opacity:1;stroke:#000000;" d="M 7.349551,22.428250 L 10.944373,22.428250 A 0.125000,0.125000 0 0,1 11.069373,22.553250 L 11.069373,23.428262 A 0.125000,0.125000 0 0,1 10.944373,23.553262 L 8.126959,23.553262 A 0.125000,0.125000 0 0,1 8.033512,23.511285 L 7.256104,22.636273 A 0.125000,0.125000 0 0,1 7.349551,22.428250 "/>
    </g>
    <g inkscape:groupmode="layer" id="9da2b975-14e9-43ed-8aa4-fb07ece6055c" inkscape:label="Layer 6">
        <path style="fill:none;stroke-width:0.010000;stroke-linecap:round;stroke-linejoin:round;stroke-opacity:1;stroke:#000000;" d="M 3.242866,5.902057 A 0.500000,0.500000 0 0,0 3.742866,6.402057 A 0.500000,0.500000 0 0,0 4.242866,5.902057 A 0.500000,0.500000 0 0,0 3.742866,5.402057 A 0.500000,0.500000 0 0,0 3.242866,5.902057 "/>
        <path style="fill:none;stroke-width:0.010000;stroke-linecap:round;stroke-linejoin:round;stroke-opacity:1;stroke:#000000;" d="M 3.242866,3.902057 A 0.500000,0.500000 0 0,0 3.742866,4.402057 A 0.500000,0.500000 0 0,0 4.242866,3.902057 A 0.500000,0.500000 0 0,0 3.742866,3.402057 A 0.500000,0.500000 0 0,0 3.242866,3.902057 "/>
        <path style="fill:none;stroke-width:0.010000;stroke-linecap:round;stroke-linejoin:round;stroke-opacity:1;stroke:#000000;" d="M 1.806166,7.152057 A 0.062500,0.062500 0 0,0 1.868666,7.214557 A 0.062500,0.062500 0 0,0 1.931166,7.152057 A 0.062500,0.062500 0 0,0 1.868666,7.089557 A 0.062500,0.062500 0 0,0 1.806166,7.152057 "/>
        <path style="fill:none;stroke-width:0.010000;stroke-linecap:round;stroke-linejoin:round;stroke-opacity:1;stroke:#000000;" d="M 5.554366,7.152057 A 0.062500,0.062500 0 0,0 5.616866,7.214557 A 0.062500,0.062500 0 0,0 5.679366,7.152057 A 0.062500,0.062500 0 0,0 5.616866,7.089557 A 0.062500,0.062500 0 0,0 5.554366,7.152057 "/>
        <path style="fill:none;stroke-width:0.010000;stroke-linecap:round;stroke-linejoin:round;stroke-opacity:1;stroke:#000000;" d="M 5.555066,0.652057 A 0.062500,0.062500 0 0,0 5.617566,0.714557 A 0.062500,0.062500 0 0,0 5.680066,0.652057 A 0.062500,0.062500 0 0,0 5.617566,0.589557 A 0.062500,0.062500 0 0,0 5.555066,0.652057 "/>
        <path style="fill:none;stroke-width:0.010000;stroke-linecap:round;stroke-linejoin:round;stroke-opacity:1;stroke:#000000;" d="M 1.806166,0.652057 A 0.062500,0.062500 0 0,0 1.868666,0.714557 A 0.062500,0.062500 0 0,0 1.931166,0.652057 A 0.062500,0.062500 0 0,0 1.868666,0.589557 A 0.062500,0.062500 0 0,0 1.806166,0.652057 "/>
        <path style="fill:none;stroke-width:0.010000;stroke-linecap:round;stroke-linejoin:round;stroke-opacity:1;stroke:#000000;" d="M 5.930977,23.419315 A 0.062500,0.062500 0 0,0 5.868477,23.356815 A 0.062500,0.062500 0 0,0 5.805977,23.419315 A 0.062500,0.062500 0 0,0 5.868477,23.481815 A 0.062500,0.062500 0 0,0 5.930977,23.419315 "/>
        <path style="fill:none;stroke-width:0.010000;stroke-linecap:round;stroke-linejoin:round;stroke-opacity:1;stroke:#000000;" d="M 0.808477,23.419315 A 0.062500,0.062500 0 0,0 0.745977,23.356815 A 0.062500,0.062500 0 0,0 0.683477,23.419315 A 0.062500,0.062500 0 0,0 0.745977,23.481815 A 0.062500,0.062500 0 0,0 0.808477,23.419315 "/>
        <path style="fill:none;stroke-width:0.010000;stroke-linecap:round;stroke-linejoin:round;stroke-opacity:1;stroke:#000000;" d="M 5.930977,8.044315 A 0.062500,0.062500 0 0,0 5.868477,7.981815 A 0.062500,0.062500 0 0,0 5.805977,8.044315 A 0.062500,0.062500 0 0,0 5.868477,8.106815 A 0.062500,0.062500 0 0,0 5.930977,8.044315 "/>
        <path style="fill:none;stroke-width:0.010000;stroke-linecap:round;stroke-linejoin:round;stroke-opacity:1;stroke:#000000;" d="M 0.808477,8.044315 A 0.062500,0.062500 0 0,0 0.745977,7.981815 A 0.062500,0.062500 0 0,0 0.683477,8.044315 A 0.062500,0.062500 0 0,0 0.745977,8.106815 A 0.062500,0.062500 0 0,0 0.808477,8.044315 "/>
        <path style="fill:none;stroke-width:0.010000;stroke-linecap:round;stroke-linejoin:round;stroke-opacity:1;stroke:#000000;" d="M 4.993977,8.481815 A 0.062500,0.062500 0 0,0 4.931477,8.419315 A 0.062500,0.062500 0 0,0 4.868977,8.481815 A 0.062500,0.062500 0 0,0 4.931477,8.544315 A 0.062500,0.062500 0 0,0 4.993977,8.481815 "/>
        <path style="fill:none;stroke-width:0.010000;stroke-linecap:round;stroke-linejoin:round;stroke-opacity:1;stroke:#000000;" d="M 1.745477,8.481815 A 0.062500,0.062500 0 0,0 1.682977,8.419315 A 0.062500,0.062500 0 0,0 1.620477,8.481815 A 0.062500,0.062500 0 0,0 1.682977,8.544315 A 0.062500,0.062500 0 0,0 1.745477,8.481815 "/>
        <path style="fill:none;stroke-width:0.010000;stroke-linecap:round;stroke-linejoin:round;stroke-opacity:1;stroke:#000000;" d="M 4.993977,22.981815 A 0.062500,0.062500 0 0,0 4.931477,22.919315 A 0.062500,0.062500 0 0,0 4.868977,22.981815 A 0.062500,0.062500 0 0,0 4.931477,23.044315 A 0.062500,0.062500 0 0,0 4.993977,22.981815 "/>
        <path style="fill:none;stroke-width:0.010000;stroke-linecap:round;stroke-linejoin:round;stroke-opacity:1;stroke:#000000;" d="M 1.745477,22.981815 A 0.062500,0.062500 0 0,0 1.682977,22.919315 A 0.062500,0.062500 0 0,0 1.620477,22.981815 A 0.062500,0.062500 0 0,0 1.682977,23.044315 A 0.062500,0.062500 0 0,0 1.745477,22.981815 "/>
        <path style="fill:none;stroke-width:0.010000;stroke-linecap:round;stroke-linejoin:round;stroke-opacity:1;stroke:#000000;" d="M 5.493677,11.325615 A 0.062500,0.062500 0 0,0 5.431177,11.263115 A 0.062500,0.062500 0 0,0 5.368677,11.325615 A 0.062500,0.062500 0 0,0 5.431177,11.388115 A 0.062500,0.062500 0 0,0 5.493677,11.325615 "/>
        <path style="fill:none;stroke-width:0.010000;stroke-linecap:round;stroke-linejoin:round;stroke-opacity:1;stroke:#000000;" d="M 5.493677,9.731815 A 0.062500,0.062500 0 0,0 5.431177,9.669315 A 0.062500,0.062500 0 0,0 5.368677,9.731815 A 0.062500,0.062500 0 0,0 5.431177,9.794315 A 0.062500,0.062500 0 0,0 5.493677,9.731815 "/>
        <path style="fill:none;stroke-width:0.010000;stroke-linecap:round;stroke-linejoin:round;stroke-opacity:1;stroke:#000000;" d="M 1.245777,9.731815 A 0.062500,0.062500 0 0,0 1.183277,9.669315 A 0.062500,0.062500 0 0,0 1.120777,9.731815 A 0.062500,0.062500 0 0,0 1.183277,9.794315 A 0.062500,0.062500 0 0,0 1.245777,9.731815 "/>
        <path style="fill:none;stroke-width:0.010000;stroke-linecap:round;stroke-linejoin:round;stroke-opacity:1;stroke:#000000;" d="M 1.245977,11.325615 A 0.062500,0.062500 0 0,0 1.183477,11.263115 A 0.062500,0.062500 0 0,0 1.120977,11.325615 A 0.062500,0.062500 0 0,0 1.183477,11.388115 A 0.062500,0.062500 0 0,0 1.245977,11.325615 "/>
        <path style="fill:none;stroke-width:0.010000;stroke-linecap:round;stroke-linejoin:round;stroke-opacity:1;stroke:#000000;" d="M 5.493477,20.148515 A 0.062500,0.062500 0 0,0 5.430977,20.086015 A 0.062500,0.062500 0 0,0 5.368477,20.148515 A 0.062500,0.062500 0 0,0 5.430977,20.211015 A 0.062500,0.062500 0 0,0 5.493477,20.148515 "/>
        <path style="fill:none;stroke-width:0.010000;stroke-linecap:round;stroke-linejoin:round;stroke-opacity:1;stroke:#000000;" d="M 5.493477,21.731815 A 0.062500,0.062500 0 0,0 5.430977,21.669315 A 0.062500,0.062500 0 0,0 5.368477,21.731815 A 0.062500,0.062500 0 0,0 5.430977,21.794315 A 0.062500,0.062500 0 0,0 5.493477,21.731815 "/>
        <path style="fill:none;stroke-width:0.010000;stroke-linecap:round;stroke-linejoin:round;stroke-opacity:1;stroke:#000000;" d="M 1.245977,20.148515 A 0.062500,0.062500 0 0,0 1.183477,20.086015 A 0.062500,0.062500 0 0,0 1.120977,20.148515 A 0.062500,0.062500 0 0,0 1.183477,20.211015 A 0.062500,0.062500 0 0,0 1.245977,20.148515 "/>
        <path style="fill:none;stroke-width:0.010000;stroke-linecap:round;stroke-linejoin:round;stroke-opacity:1;stroke:#000000;" d="M 1.234177,21.737815 A 0.062500,0.062500 0 0,0 1.171677,21.675315 A 0.062500,0.062500 0 0,0 1.109177,21.737815 A 0.062500,0.062500 0 0,0 1.171677,21.800315 A 0.062500,0.062500 0 0,0 1.234177,21.737815 "/>
    </g>
    <g inkscape:groupmode="layer" id="f445fde9-f42f-429f-b00b-1621936d5e81" inkscape:label="Layer 7">
        <path style="fill:none;stroke-width:0.010000;stroke-linecap:round;stroke-linejoin:round;stroke-opacity:1;stroke:#000000;" d="M 7.145388,21.846912 L 10.603796,21.846912 A 0.125000,0.125000 0 0,0 10.726912,21.743537 L 11.270323,18.649737 A 0.125000,0.125000 0 0,0 11.147208,18.503112 L 6.601759,18.503112 A 0.125000,0.125000 0 0,0 6.478645,18.649745 L 7.022274,21.743545 A 0.125000,0.125000 0 0,0 7.145388,21.846912 "/>
        <path style="fill:none;stroke-width:0.010000;stroke-linecap:round;stroke-linejoin:round;stroke-opacity:1;stroke:#000000;" d="M 10.935858,18.753107 A 0.062500,0.062500 0 0,0 10.998358,18.815607 A 0.062500,0.062500 0 0,0 11.060858,18.753107 A 0.062500,0.062500 0 0,0 10.998358,18.690607 A 0.062500,0.062500 0 0,0 10.935858,18.753107 "/>
        <path style="fill:none;stroke-width:0.010000;stroke-linecap:round;stroke-linejoin:round;stroke-opacity:1;stroke:#000000;" d="M 10.436358,21.596907 A 0.062500,0.062500 0 0,0 10.498858,21.659407 A 0.062500,0.062500 0 0,0 10.561358,21.596907 A 0.062500,0.062500 0 0,0 10.498858,21.534407 A 0.062500,0.062500 0 0,0 10.436358,21.596907 "/>
        <path style="fill:none;stroke-width:0.010000;stroke-linecap:round;stroke-linejoin:round;stroke-opacity:1;stroke:#000000;" d="M 7.699134,21.614770 L 7.449134,21.614770 L 6.949434,18.770970 L 7.699134,18.770970 L 7.699134,21.614770 L 7.449134,21.614770 L 7.699134,21.614770 "/>
        <path style="fill:none;stroke-width:0.010000;stroke-linecap:round;stroke-linejoin:round;stroke-opacity:1;stroke:#000000;" d="M 10.300033,21.579054 L 10.050033,21.579054 L 10.050033,18.739054 L 10.050033,18.735254 L 10.799533,18.735254 L 10.300033,21.579054 L 10.050033,21.579054 L 10.300033,21.579054 "/>
        <path style="fill:none;stroke-width:0.010000;stroke-linecap:round;stroke-linejoin:round;stroke-opacity:1;stroke:#000000;" d="M 6.688158,18.753107 A 0.062500,0.062500 0 0,0 6.750658,18.815607 A 0.062500,0.062500 0 0,0 6.813158,18.753107 A 0.062500,0.062500 0 0,0 6.750658,18.690607 A 0.062500,0.062500 0 0,0 6.688158,18.753107 "/>
        <path style="fill:none;stroke-width:0.010000;stroke-linecap:round;stroke-linejoin:round;stroke-opacity:1;stroke:#000000;" d="M 7.187858,21.596907 A 0.062500,0.062500 0 0,0 7.250358,21.659407 A 0.062500,0.062500 0 0,0 7.312858,21.596907 A 0.062500,0.062500 0 0,0 7.250358,21.534407 A 0.062500,0.062500 0 0,0 7.187858,21.596907 "/>
        <path style="fill:none;stroke-width:0.010000;stroke-linecap:round;stroke-linejoin:round;stroke-opacity:1;stroke:#000000;" d="M 2.057570,13.231815 L 2.057570,12.231815 "/>
        <path style="fill:none;stroke-width:0.010000;stroke-linecap:round;stroke-linejoin:round;stroke-opacity:1;stroke:#000000;" d="M 2.557570,12.231815 L 2.557570,13.231815 "/>
        <path style="fill:none;stroke-width:0.010000;stroke-linecap:round;stroke-linejoin:round;stroke-opacity:1;stroke:#000000;" d="M 2.307570,12.231815 L 2.307570,13.231815 "/>
        <path style="fill:none;stroke-width:0.010000;stroke-linecap:round;stroke-linejoin:round;stroke-opacity:1;stroke:#000000;" d="M 4.056676,13.231815 L 4.056676,12.231815 "/>
        <path style="fill:none;stroke-width:0.010000;stroke-linecap:round;stroke-linejoin:round;stroke-opacity:1;stroke:#000000;" d="M 4.556676,12.231815 L 4.556676,13.231815 "/>
        <path style="fill:none;stroke-width:0.010000;stroke-linecap:round;stroke-linejoin:round;stroke-opacity:1;stroke:#000000;" d="M 4.306676,12.231815 L 4.306676,13.231815 "/>
        <path style="fill:none;stroke-width:0.010000;stroke-linecap:round;stroke-linejoin:round;stroke-opacity:1;stroke:#000000;" d="M 2.057130,19.231815 L 2.057130,18.231815 "/>
        <path style="fill:none;stroke-width:0.010000;stroke-linecap:round;stroke-linejoin:round;stroke-opacity:1;stroke:#000000;" d="M 2.557130,18.231815 L 2.557130,19.231815 "/>
        <path style="fill:none;stroke-width:0.010000;stroke-linecap:round;stroke-linejoin:round;stroke-opacity:1;stroke:#000000;" d="M 2.307130,18.231815 L 2.307130,19.231815 "/>
        <path style="fill:none;stroke-width:0.010000;stroke-linecap:round;stroke-linejoin:round;stroke-opacity:1;stroke:#000000;" d="M 4.057130,19.231815 L 4.057130,18.231815 "/>
        <path style="fill:none;stroke-width:0.010000;stroke-linecap:round;stroke-linejoin:round;stroke-opacity:1;stroke:#000000;" d="M 4.557130,18.231815 L 4.557130,19.231815 "/>
        <path style="fill:none;stroke-width:0.010000;stroke-linecap:round;stroke-linejoin:round;stroke-opacity:1;stroke:#000000;" d="M 4.307130,18.231815 L 4.307130,19.231815 "/>
        <path style="fill:none;stroke-width:0.010000;stroke-linecap:round;stroke-linejoin:round;stroke-opacity:1;stroke:#000000;" d="M 4.056676,13.231815 L 4.056676,12.231815 "/>
        <path style="fill:none;stroke-width:0.010000;stroke-linecap:round;stroke-linejoin:round;stroke-opacity:1;stroke:#000000;" d="M 4.556676,12.231815 L 4.556676,13.231815 "/>
        <path style="fill:none;stroke-width:0.010000;stroke-linecap:round;stroke-linejoin:round;stroke-opacity:1;stroke:#000000;" d="M 4.306676,12.231815 L 4.306676,13.231815 "/>
        <path style="fill:none;stroke-width:0.010000;stroke-linecap:round;stroke-linejoin:round;stroke-opacity:1;stroke:#000000;" d="M 3.806676,12.981815 L 3.806676,12.481815 "/>
        <path style="fill:none;stroke-width:0.010000;stroke-linecap:round;stroke-linejoin:round;stroke-opacity:1;stroke:#000000;" d="M 3.806676,12.981815 L 3.806676,12.731815 L 3.806676,12.481815 "/>
        <path style="fill:none;stroke-width:0.010000;stroke-linecap:round;stroke-linejoin:round;stroke-opacity:1;stroke:#000000;" d="M 4.806676,12.981815 L 4.806676,12.481815 "/>
        <path style="fill:none;stroke-width:0.010000;stroke-linecap:round;stroke-linejoin:round;stroke-opacity:1;stroke:#000000;" d="M 4.806676,12.981815 L 4.806676,12.731815 L 4.806676,12.481815 "/>
        <path style="fill:none;stroke-width:0.010000;stroke-linecap:round;stroke-linejoin:round;stroke-opacity:1;stroke:#000000;" d="M 2.057570,13.231815 L 2.057570,12.231815 "/>
        <path style="fill:none;stroke-width:0.010000;stroke-linecap:round;stroke-linejoin:round;stroke-opacity:1;stroke:#000000;" d="M 2.557570,12.231815 L 2.557570,13.231815 "/>
        <path style="fill:none;stroke-width:0.010000;stroke-linecap:round;stroke-linejoin:round;stroke-opacity:1;stroke:#000000;" d="M 2.307570,12.231815 L 2.307570,13.231815 "/>
        <path style="fill:none;stroke-width:0.010000;stroke-linecap:round;stroke-linejoin:round;stroke-opacity:1;stroke:#000000;" d="M 2.057570,13.231815 L 2.057570,12.231815 "/>
        <path style="fill:none;stroke-width:0.010000;stroke-linecap:round;stroke-linejoin:round;stroke-opacity:1;stroke:#000000;" d="M 2.557570,12.231815 L 2.557570,13.231815 "/>
        <path style="fill:none;stroke-width:0.010000;stroke-linecap:round;stroke-linejoin:round;stroke-opacity:1;stroke:#000000;" d="M 2.307570,12.231815 L 2.307570,13.231815 "/>
        <path style="fill:none;stroke-width:0.010000;stroke-linecap:round;stroke-linejoin:round;stroke-opacity:1;stroke:#000000;" d="M 1.807570,12.981815 L 1.807570,12.481815 "/>
        <path style="fill:none;stroke-width:0.010000;stroke-linecap:round;stroke-linejoin:round;stroke-opacity:1;stroke:#000000;" d="M 1.807570,12.981815 L 1.807570,12.731815 L 1.807570,12.481815 "/>
        <path style="fill:none;stroke-width:0.010000;stroke-linecap:round;stroke-linejoin:round;stroke-opacity:1;stroke:#000000;" d="M 2.807570,12.981815 L 2.807570,12.481815 "/>
        <path style="fill:none;stroke-width:0.010000;stroke-linecap:round;stroke-linejoin:round;stroke-opacity:1;stroke:#000000;" d="M 2.807570,12.981815 L 2.807570,12.731815 L 2.807570,12.481815 "/>
        <path style="fill:none;stroke-width:0.010000;stroke-linecap:round;stroke-linejoin:round;stroke-opacity:1;stroke:#000000;" d="M 2.057130,19.231815 L 2.057130,18.231815 "/>
        <path style="fill:none;stroke-width:0.010000;stroke-linecap:round;stroke-linejoin:round;stroke-opacity:1;stroke:#000000;" d="M 2.557130,18.231815 L 2.557130,19.231815 "/>
        <path style="fill:none;stroke-width:0.010000;stroke-linecap:round;stroke-linejoin:round;stroke-opacity:1;stroke:#000000;" d="M 2.307130,18.231815 L 2.307130,19.231815 "/>
        <path style="fill:none;stroke-width:0.010000;stroke-linecap:round;stroke-linejoin:round;stroke-opacity:1;stroke:#000000;" d="M 2.057130,19.231815 L 2.057130,18.231815 "/>
        <path style="fill:none;stroke-width:0.010000;stroke-linecap:round;stroke-linejoin:round;stroke-opacity:1;stroke:#000000;" d="M 2.557130,18.231815 L 2.557130,19.231815 "/>
        <path style="fill:none;stroke-width:0.010000;stroke-linecap:round;stroke-linejoin:round;stroke-opacity:1;stroke:#000000;" d="M 2.307130,18.231815 L 2.307130,19.231815 "/>
        <path style="fill:none;stroke-width:0.010000;stroke-linecap:round;stroke-linejoin:round;stroke-opacity:1;stroke:#000000;" d="M 1.807130,18.981815 L 1.807130,18.481815 "/>
        <path style="fill:none;stroke-width:0.010000;stroke-linecap:round;stroke-linejoin:round;stroke-opacity:1;stroke:#000000;" d="M 1.807130,18.981815 L 1.807130,18.731815 L 1.807130,18.481815 "/>
        <path style="fill:none;stroke-width:0.010000;stroke-linecap:round;stroke-linejoin:round;stroke-opacity:1;stroke:#000000;" d="M 2.807130,18.981815 L 2.807130,18.481815 "/>
        <path style="fill:none;stroke-width:0.010000;stroke-linecap:round;stroke-linejoin:round;stroke-opacity:1;stroke:#000000;" d="M 2.807130,18.981815 L 2.807130,18.731815 L 2.807130,18.481815 "/>
        <path style="fill:none;stroke-width:0.010000;stroke-linecap:round;stroke-linejoin:round;stroke-opacity:1;stroke:#000000;" d="M 4.057130,19.231815 L 4.057130,18.231815 "/>
        <path style="fill:none;stroke-width:0.010000;stroke-linecap:round;stroke-linejoin:round;stroke-opacity:1;stroke:#000000;" d="M 4.557130,18.231815 L 4.557130,19.231815 "/>
        <path style="fill:none;stroke-width:0.010000;stroke-linecap:round;stroke-linejoin:round;stroke-opacity:1;stroke:#000000;" d="M 4.307130,18.231815 L 4.307130,19.231815 "/>
        <path style="fill:none;stroke-width:0.010000;stroke-linecap:round;stroke-linejoin:round;stroke-opacity:1;stroke:#000000;" d="M 4.057130,19.231815 L 4.057130,18.231815 "/>
        <path style="fill:none;stroke-width:0.010000;stroke-linecap:round;stroke-linejoin:round;stroke-opacity:1;stroke:#000000;" d="M 4.557130,18.231815 L 4.557130,19.231815 "/>
        <path style="fill:none;stroke-width:0.010000;stroke-linecap:round;stroke-linejoin:round;stroke-opacity:1;stroke:#000000;" d="M 4.307130,18.231815 L 4.307130,19.231815 "/>
        <path style="fill:none;stroke-width:0.010000;stroke-linecap:round;stroke-linejoin:round;stroke-opacity:1;stroke:#000000;" d="M 3.807130,18.981815 L 3.807130,18.481815 "/>
        <path style="fill:none;stroke-width:0.010000;stroke-linecap:round;stroke-linejoin:round;stroke-opacity:1;stroke:#000000;" d="M 3.807130,18.981815 L 3.807130,18.731815 L 3.807130,18.481815 "/>
        <path style="fill:none;stroke-width:0.010000;stroke-linecap:round;stroke-linejoin:round;stroke-opacity:1;stroke:#000000;" d="M 4.807130,18.981815 L 4.807130,18.481815 "/>
        <path style="fill:none;stroke-width:0.010000;stroke-linecap:round;stroke-linejoin:round;stroke-opacity:1;stroke:#000000;" d="M 4.807130,18.981815 L 4.807130,18.731815 L 4.807130,18.481815 "/>
        <path style="fill:none;stroke-width:0.010000;stroke-linecap:round;stroke-linejoin:round;stroke-opacity:1;stroke:#000000;" d="M 4.056676,13.231815 L 4.056676,12.231815 "/>
        <path style="fill:none;stroke-width:0.010000;stroke-linecap:round;stroke-linejoin:round;stroke-opacity:1;stroke:#000000;" d="M 4.556676,12.231815 L 4.556676,13.231815 "/>
        <path style="fill:none;stroke-width:0.010000;stroke-linecap:round;stroke-linejoin:round;stroke-opacity:1;stroke:#000000;" d="M 4.306676,12.231815 L 4.306676,13.231815 "/>
        <path style="fill:none;stroke-width:0.010000;stroke-linecap:round;stroke-linejoin:round;stroke-opacity:1;stroke:#000000;" d="M 4.056676,13.231815 L 4.056676,12.231815 "/>
        <path style="fill:none;stroke-width:0.010000;stroke-linecap:round;stroke-linejoin:round;stroke-opacity:1;stroke:#000000;" d="M 4.556676,12.231815 L 4.556676,13.231815 "/>
        <path style="fill:none;stroke-width:0.010000;stroke-linecap:round;stroke-linejoin:round;stroke-opacity:1;stroke:#000000;" d="M 4.306676,12.231815 L 4.306676,13.231815 "/>
        <path style="fill:none;stroke-width:0.010000;stroke-linecap:round;stroke-linejoin:round;stroke-opacity:1;stroke:#000000;" d="M 3.806676,12.981815 L 3.806676,12.481815 "/>
        <path style="fill:none;stroke-width:0.010000;stroke-linecap:round;stroke-linejoin:round;stroke-opacity:1;stroke:#000000;" d="M 3.806676,12.981815 L 3.806676,12.731815 L 3.806676,12.481815 "/>
        <path style="fill:none;stroke-width:0.010000;stroke-linecap:round;stroke-linejoin:round;stroke-opacity:1;stroke:#000000;" d="M 4.806676,12.981815 L 4.806676,12.481815 "/>
        <path style="fill:none;stroke-width:0.010000;stroke-linecap:round;stroke-linejoin:round;stroke-opacity:1;stroke:#000000;" d="M 4.806676,12.981815 L 4.806676,12.731815 L 4.806676,12.481815 "/>
        <path style="fill:none;stroke-width:0.010000;stroke-linecap:round;stroke-linejoin:round;stroke-opacity:1;stroke:#000000;" d="M 2.593880,9.470401 L 1.886773,8.763294 "/>
        <path style="fill:none;stroke-width:0.010000;stroke-linecap:round;stroke-linejoin:round;stroke-opacity:1;stroke:#000000;" d="M 2.063550,8.586518 L 2.770657,9.293624 "/>
        <path style="fill:none;stroke-width:0.010000;stroke-linecap:round;stroke-linejoin:round;stroke-opacity:1;stroke:#000000;" d="M 2.593880,9.470401 L 1.886773,8.763294 "/>
        <path style="fill:none;stroke-width:0.010000;stroke-linecap:round;stroke-linejoin:round;stroke-opacity:1;stroke:#000000;" d="M 2.063550,8.586518 L 2.770657,9.293624 "/>
        <path style="fill:none;stroke-width:0.010000;stroke-linecap:round;stroke-linejoin:round;stroke-opacity:1;stroke:#000000;" d="M 4.056676,13.231815 L 4.056676,12.231815 "/>
        <path style="fill:none;stroke-width:0.010000;stroke-linecap:round;stroke-linejoin:round;stroke-opacity:1;stroke:#000000;" d="M 4.556676,12.231815 L 4.556676,13.231815 "/>
        <path style="fill:none;stroke-width:0.010000;stroke-linecap:round;stroke-linejoin:round;stroke-opacity:1;stroke:#000000;" d="M 4.306676,12.231815 L 4.306676,13.231815 "/>
        <path style="fill:none;stroke-width:0.010000;stroke-linecap:round;stroke-linejoin:round;stroke-opacity:1;stroke:#000000;" d="M 4.056676,13.231815 L 4.056676,12.231815 "/>
        <path style="fill:none;stroke-width:0.010000;stroke-linecap:round;stroke-linejoin:round;stroke-opacity:1;stroke:#000000;" d="M 4.556676,12.231815 L 4.556676,13.231815 "/>
        <path style="fill:none;stroke-width:0.010000;stroke-linecap:round;stroke-linejoin:round;stroke-opacity:1;stroke:#000000;" d="M 4.306676,12.231815 L 4.306676,13.231815 "/>
        <path style="fill:none;stroke-width:0.010000;stroke-linecap:round;stroke-linejoin:round;stroke-opacity:1;stroke:#000000;" d="M 3.806676,12.981815 L 3.806676,12.481815 "/>
        <path style="fill:none;stroke-width:0.010000;stroke-linecap:round;stroke-linejoin:round;stroke-opacity:1;stroke:#000000;" d="M 3.806676,12.981815 L 3.806676,12.731815 L 3.806676,12.481815 "/>
        <path style="fill:none;stroke-width:0.010000;stroke-linecap:round;stroke-linejoin:round;stroke-opacity:1;stroke:#000000;" d="M 4.806676,12.981815 L 4.806676,12.481815 "/>
        <path style="fill:none;stroke-width:0.010000;stroke-linecap:round;stroke-linejoin:round;stroke-opacity:1;stroke:#000000;" d="M 4.806676,12.981815 L 4.806676,12.731815 L 4.806676,12.481815 "/>
        <path style="fill:none;stroke-width:0.010000;stroke-linecap:round;stroke-linejoin:round;stroke-opacity:1;stroke:#000000;" d="M 4.557427,22.931855 L 3.850321,22.224748 "/>
        <path style="fill:none;stroke-width:0.010000;stroke-linecap:round;stroke-linejoin:round;stroke-opacity:1;stroke:#000000;" d="M 4.027097,22.047971 L 4.734204,22.755078 "/>
        <path style="fill:none;stroke-width:0.010000;stroke-linecap:round;stroke-linejoin:round;stroke-opacity:1;stroke:#000000;" d="M 4.557427,22.931855 L 3.850321,22.224748 "/>
        <path style="fill:none;stroke-width:0.010000;stroke-linecap:round;stroke-linejoin:round;stroke-opacity:1;stroke:#000000;" d="M 4.027097,22.047971 L 4.734204,22.755078 "/>
        <path style="fill:none;stroke-width:0.010000;stroke-linecap:round;stroke-linejoin:round;stroke-opacity:1;stroke:#000000;" d="M 4.727684,8.763294 L 4.020577,9.470401 "/>
        <path style="fill:none;stroke-width:0.010000;stroke-linecap:round;stroke-linejoin:round;stroke-opacity:1;stroke:#000000;" d="M 3.843800,9.293624 L 4.550907,8.586517 "/>
        <path style="fill:none;stroke-width:0.010000;stroke-linecap:round;stroke-linejoin:round;stroke-opacity:1;stroke:#000000;" d="M 4.727684,8.763294 L 4.020577,9.470401 "/>
        <path style="fill:none;stroke-width:0.010000;stroke-linecap:round;stroke-linejoin:round;stroke-opacity:1;stroke:#000000;" d="M 3.843800,9.293624 L 4.550907,8.586517 "/>
        <path style="fill:none;stroke-width:0.010000;stroke-linecap:round;stroke-linejoin:round;stroke-opacity:1;stroke:#000000;" d="M 2.764045,22.224758 L 2.056938,22.931864 "/>
        <path style="fill:none;stroke-width:0.010000;stroke-linecap:round;stroke-linejoin:round;stroke-opacity:1;stroke:#000000;" d="M 1.880162,22.755088 L 2.587268,22.047981 "/>
        <path style="fill:none;stroke-width:0.010000;stroke-linecap:round;stroke-linejoin:round;stroke-opacity:1;stroke:#000000;" d="M 2.764045,22.224758 L 2.056938,22.931864 "/>
        <path style="fill:none;stroke-width:0.010000;stroke-linecap:round;stroke-linejoin:round;stroke-opacity:1;stroke:#000000;" d="M 1.880162,22.755088 L 2.587268,22.047981 "/>
        <path style="fill:none;stroke-width:0.010000;stroke-linecap:round;stroke-linejoin:round;stroke-opacity:1;stroke:#000000;" d="M 0.433277,8.908591 L 0.433277,8.408591 L 0.933277,8.408591 L 0.933277,8.908591 L 0.933277,11.055038 L 0.433277,10.555038 L 0.433277,8.908591 "/>
        <path style="fill:none;stroke-width:0.010000;stroke-linecap:round;stroke-linejoin:round;stroke-opacity:1;stroke:#000000;" d="M 5.680941,8.908591 L 5.680941,11.055038 L 6.180941,10.555038 L 6.180941,8.908591 L 6.180941,8.408591 L 5.680941,8.408591 L 5.680941,8.908591 "/>
        <path style="fill:none;stroke-width:0.010000;stroke-linecap:round;stroke-linejoin:round;stroke-opacity:1;stroke:#000000;" d="M 0.427663,22.561038 L 0.427663,23.061038 L 0.927663,23.061038 L 0.927663,22.561038 L 0.927663,20.414591 L 0.427663,20.914591 L 0.427663,22.561038 "/>
        <path style="fill:none;stroke-width:0.010000;stroke-linecap:round;stroke-linejoin:round;stroke-opacity:1;stroke:#000000;" d="M 5.680841,22.555038 L 5.680841,20.408591 L 6.180841,20.908591 L 6.180841,22.555038 L 6.180841,23.055038 L 5.680841,23.055038 L 5.680841,22.555038 "/>
        <path style="fill:none;stroke-width:0.010000;stroke-linecap:round;stroke-linejoin:round;stroke-opacity:1;stroke:#000000;" d="M 2.245218,10.169325 L 2.245218,11.106850 "/>
        <path style="fill:none;stroke-width:0.010000;stroke-linecap:round;stroke-linejoin:round;stroke-opacity:1;stroke:#000000;" d="M 4.369180,10.169325 L 4.369180,11.106850 "/>
        <path style="fill:none;stroke-width:0.010000;stroke-linecap:round;stroke-linejoin:round;stroke-opacity:1;stroke:#000000;" d="M 2.245218,20.419305 L 2.245218,21.294304 "/>
        <path style="fill:none;stroke-width:0.010000;stroke-linecap:round;stroke-linejoin:round;stroke-opacity:1;stroke:#000000;" d="M 4.369180,20.419305 L 4.369180,21.294304 "/>
        <path style="fill:none;stroke-width:0.010000;stroke-linecap:round;stroke-linejoin:round;stroke-opacity:1;stroke:#000000;" d="M 1.928430,15.731815 L 1.928430,14.731815 L 1.928430,16.731815 "/>
        <path style="fill:none;stroke-width:0.010000;stroke-linecap:round;stroke-linejoin:round;stroke-opacity:1;stroke:#000000;" d="M 2.865387,15.731864 L 2.865387,14.731864 L 2.865387,16.731864 "/>
        <path style="fill:none;stroke-width:0.010000;stroke-linecap:round;stroke-linejoin:round;stroke-opacity:1;stroke:#000000;" d="M 3.875989,15.730526 L 3.875989,14.730526 L 3.875989,16.730526 "/>
        <path style="fill:none;stroke-width:0.010000;stroke-linecap:round;stroke-linejoin:round;stroke-opacity:1;stroke:#000000;" d="M 4.716630,15.731815 L 4.716630,14.731815 L 4.716630,16.731815 "/>
        <path style="fill:none;stroke-width:0.010000;stroke-linecap:round;stroke-linejoin:round;stroke-opacity:1;stroke:#000000;" d="M 10.754391,3.229128 L 10.754303,3.229128 L 10.754391,3.229128 "/>
        <path style="fill:none;stroke-width:0.010000;stroke-linecap:round;stroke-linejoin:round;stroke-opacity:1;stroke:#000000;" d="M 10.629475,6.979078 A 0.062500,0.062500 0 0,0 10.566975,6.916578 A 0.062500,0.062500 0 0,0 10.504475,6.979078 A 0.062500,0.062500 0 0,0 10.566975,7.041578 A 0.062500,0.062500 0 0,0 10.629475,6.979078 "/>
        <path style="fill:none;stroke-width:0.010000;stroke-linecap:round;stroke-linejoin:round;stroke-opacity:1;stroke:#000000;" d="M 10.629475,10.229078 A 0.062500,0.062500 0 0,0 10.566975,10.166578 A 0.062500,0.062500 0 0,0 10.504475,10.229078 A 0.062500,0.062500 0 0,0 10.566975,10.291578 A 0.062500,0.062500 0 0,0 10.629475,10.229078 "/>
        <path style="fill:none;stroke-width:0.010000;stroke-linecap:round;stroke-linejoin:round;stroke-opacity:1;stroke:#000000;" d="M 8.755375,2.604078 A 0.062500,0.062500 0 0,0 8.692875,2.541578 A 0.062500,0.062500 0 0,0 8.630375,2.604078 A 0.062500,0.062500 0 0,0 8.692875,2.666578 A 0.062500,0.062500 0 0,0 8.755375,2.604078 "/>
        <path style="fill:none;stroke-width:0.010000;stroke-linecap:round;stroke-linejoin:round;stroke-opacity:1;stroke:#000000;" d="M 6.881275,6.979078 A 0.062500,0.062500 0 0,0 6.818775,6.916578 A 0.062500,0.062500 0 0,0 6.756275,6.979078 A 0.062500,0.062500 0 0,0 6.818775,7.041578 A 0.062500,0.062500 0 0,0 6.881275,6.979078 "/>
        <path style="fill:none;stroke-width:0.010000;stroke-linecap:round;stroke-linejoin:round;stroke-opacity:1;stroke:#000000;" d="M 6.881275,10.229078 A 0.062500,0.062500 0 0,0 6.818775,10.166578 A 0.062500,0.062500 0 0,0 6.756275,10.229078 A 0.062500,0.062500 0 0,0 6.818775,10.291578 A 0.062500,0.062500 0 0,0 6.881275,10.229078 "/>
        <path style="fill:none;stroke-width:0.010000;stroke-linecap:round;stroke-linejoin:round;stroke-opacity:1;stroke:#000000;" d="M 7.871875,10.229078 A 0.062500,0.062500 0 0,0 7.809375,10.166578 A 0.062500,0.062500 0 0,0 7.746875,10.229078 A 0.062500,0.062500 0 0,0 7.809375,10.291578 A 0.062500,0.062500 0 0,0 7.871875,10.229078 "/>
        <path style="fill:none;stroke-width:0.010000;stroke-linecap:round;stroke-linejoin:round;stroke-opacity:1;stroke:#000000;" d="M 8.755375,11.111778 A 0.062500,0.062500 0 0,0 8.692875,11.049278 A 0.062500,0.062500 0 0,0 8.630375,11.111778 A 0.062500,0.062500 0 0,0 8.692875,11.174278 A 0.062500,0.062500 0 0,0 8.755375,11.111778 "/>
        <path style="fill:none;stroke-width:0.010000;stroke-linecap:round;stroke-linejoin:round;stroke-opacity:1;stroke:#000000;" d="M 9.637575,10.229078 A 0.062500,0.062500 0 0,0 9.575075,10.166578 A 0.062500,0.062500 0 0,0 9.512575,10.229078 A 0.062500,0.062500 0 0,0 9.575075,10.291578 A 0.062500,0.062500 0 0,0 9.637575,10.229078 "/>
        <path style="fill:none;stroke-width:0.010000;stroke-linecap:round;stroke-linejoin:round;stroke-opacity:1;stroke:#000000;" d="M 8.755375,9.345178 A 0.062500,0.062500 0 0,0 8.692875,9.282678 A 0.062500,0.062500 0 0,0 8.630375,9.345178 A 0.062500,0.062500 0 0,0 8.692875,9.407678 A 0.062500,0.062500 0 0,0 8.755375,9.345178 "/>
        <path style="fill:none;stroke-width:0.010000;stroke-linecap:round;stroke-linejoin:round;stroke-opacity:1;stroke:#000000;" d="M 6.880575,13.479078 A 0.062500,0.062500 0 0,0 6.818075,13.416578 A 0.062500,0.062500 0 0,0 6.755575,13.479078 A 0.062500,0.062500 0 0,0 6.818075,13.541578 A 0.062500,0.062500 0 0,0 6.880575,13.479078 "/>
        <path style="fill:none;stroke-width:0.010000;stroke-linecap:round;stroke-linejoin:round;stroke-opacity:1;stroke:#000000;" d="M 10.629475,13.479078 A 0.062500,0.062500 0 0,0 10.566975,13.416578 A 0.062500,0.062500 0 0,0 10.504475,13.479078 A 0.062500,0.062500 0 0,0 10.566975,13.541578 A 0.062500,0.062500 0 0,0 10.629475,13.479078 "/>
        <path style="fill:none;stroke-width:0.010000;stroke-linecap:round;stroke-linejoin:round;stroke-opacity:1;stroke:#000000;" d="M 8.755375,17.854078 A 0.062500,0.062500 0 0,0 8.692875,17.791578 A 0.062500,0.062500 0 0,0 8.630375,17.854078 A 0.062500,0.062500 0 0,0 8.692875,17.916578 A 0.062500,0.062500 0 0,0 8.755375,17.854078 "/>
        <path style="fill:none;stroke-width:0.010000;stroke-linecap:round;stroke-linejoin:round;stroke-opacity:1;stroke:#000000;" d="M 10.754391,3.229128 L 10.754303,3.229128 "/>
        <path style="fill:none;stroke-width:0.010000;stroke-linecap:round;stroke-linejoin:round;stroke-opacity:1;stroke:#000000;" d="M 9.192775,16.229078 A 0.500000,0.500000 0 0,0 8.692775,15.729078 A 0.500000,0.500000 0 0,0 8.192775,16.229078 A 0.500000,0.500000 0 0,0 8.692775,16.729078 A 0.500000,0.500000 0 0,0 9.192775,16.229078 "/>
        <path style="fill:none;stroke-width:0.010000;stroke-linecap:round;stroke-linejoin:round;stroke-opacity:1;stroke:#000000;" d="M 9.192775,14.229078 A 0.500000,0.500000 0 0,0 8.692775,13.729078 A 0.500000,0.500000 0 0,0 8.192775,14.229078 A 0.500000,0.500000 0 0,0 8.692775,14.729078 A 0.500000,0.500000 0 0,0 9.192775,14.229078 "/>
        <path style="fill:none;stroke-width:0.010000;stroke-linecap:round;stroke-linejoin:round;stroke-opacity:1;stroke:#000000;" d="M 9.192775,12.229078 A 0.500000,0.500000 0 0,0 8.692775,11.729078 A 0.500000,0.500000 0 0,0 8.192775,12.229078 A 0.500000,0.500000 0 0,0 8.692775,12.729078 A 0.500000,0.500000 0 0,0 9.192775,12.229078 "/>
        <path style="fill:none;stroke-width:0.010000;stroke-linecap:round;stroke-linejoin:round;stroke-opacity:1;stroke:#000000;" d="M 9.192875,4.354078 A 0.500000,0.500000 0 0,0 8.692875,3.854078 A 0.500000,0.500000 0 0,0 8.192875,4.354078 A 0.500000,0.500000 0 0,0 8.692875,4.854078 A 0.500000,0.500000 0 0,0 9.192875,4.354078 "/>
        <path style="fill:none;stroke-width:0.010000;stroke-linecap:round;stroke-linejoin:round;stroke-opacity:1;stroke:#000000;" d="M 9.192775,6.229078 A 0.500000,0.500000 0 0,0 8.692775,5.729078 A 0.500000,0.500000 0 0,0 8.192775,6.229078 A 0.500000,0.500000 0 0,0 8.692775,6.729078 A 0.500000,0.500000 0 0,0 9.192775,6.229078 "/>
        <path style="fill:none;stroke-width:0.010000;stroke-linecap:round;stroke-linejoin:round;stroke-opacity:1;stroke:#000000;" d="M 9.192775,8.229078 A 0.500000,0.500000 0 0,0 8.692775,7.729078 A 0.500000,0.500000 0 0,0 8.192775,8.229078 A 0.500000,0.500000 0 0,0 8.692775,8.729078 A 0.500000,0.500000 0 0,0 9.192775,8.229078 "/>
        <path style="fill:none;stroke-width:0.010000;stroke-linecap:round;stroke-linejoin:round;stroke-opacity:1;stroke:#000000;" d="M 6.651835,6.441813 L 5.611230,5.516442 A 0.125000,0.125000 0 0,1 5.569295,5.423033 L 5.569295,2.354078 A 0.125000,0.125000 0 0,1 5.694295,2.229078 L 11.691350,2.229078 A 0.125000,0.125000 0 0,1 11.816350,2.354078 L 11.816350,5.422949 A 0.125000,0.125000 0 0,1 11.774419,5.516354 L 10.733797,6.441822 A 0.125000,0.125000 0 0,0 10.691866,6.535227 L 10.691866,13.922929 A 0.125000,0.125000 0 0,0 10.733797,14.016335 L 11.774419,14.941802 A 0.125000,0.125000 0 0,1 11.816350,15.035208 L 11.816350,18.104078 A 0.125000,0.125000 0 0,1 11.691350,18.229078 L 5.694295,18.229078 A 0.125000,0.125000 0 0,1 5.569295,18.104078 L 5.569295,15.035167 A 0.125000,0.125000 0 0,1 5.611175,14.941807 L 6.650677,14.016322 A 0.125000,0.125000 0 0,0 6.692557,13.922983 L 6.693770,6.535242 A 0.125000,0.125000 0 0,0 6.651835,6.441813 "/>
        <path style="fill:none;stroke-width:0.010000;stroke-linecap:round;stroke-linejoin:round;stroke-opacity:1;stroke:#000000;" d="M 11.316623,17.916578 A 0.062500,0.062500 0 0,0 11.254123,17.854078 A 0.062500,0.062500 0 0,0 11.191623,17.916578 A 0.062500,0.062500 0 0,0 11.254123,17.979078 A 0.062500,0.062500 0 0,0 11.316623,17.916578 "/>
        <path style="fill:none;stroke-width:0.010000;stroke-linecap:round;stroke-linejoin:round;stroke-opacity:1;stroke:#000000;" d="M 11.316623,2.541578 A 0.062500,0.062500 0 0,0 11.254123,2.479078 A 0.062500,0.062500 0 0,0 11.191623,2.541578 A 0.062500,0.062500 0 0,0 11.254123,2.604078 A 0.062500,0.062500 0 0,0 11.316623,2.541578 "/>
        <path style="fill:none;stroke-width:0.010000;stroke-linecap:round;stroke-linejoin:round;stroke-opacity:1;stroke:#000000;" d="M 6.194123,2.541578 A 0.062500,0.062500 0 0,0 6.131623,2.479078 A 0.062500,0.062500 0 0,0 6.069123,2.541578 A 0.062500,0.062500 0 0,0 6.131623,2.604078 A 0.062500,0.062500 0 0,0 6.194123,2.541578 "/>
        <path style="fill:none;stroke-width:0.010000;stroke-linecap:round;stroke-linejoin:round;stroke-opacity:1;stroke:#000000;" d="M 10.379623,2.979078 A 0.062500,0.062500 0 0,0 10.317123,2.916578 A 0.062500,0.062500 0 0,0 10.254623,2.979078 A 0.062500,0.062500 0 0,0 10.317123,3.041578 A 0.062500,0.062500 0 0,0 10.379623,2.979078 "/>
        <path style="fill:none;stroke-width:0.010000;stroke-linecap:round;stroke-linejoin:round;stroke-opacity:1;stroke:#000000;" d="M 7.131123,2.979078 A 0.062500,0.062500 0 0,0 7.068623,2.916578 A 0.062500,0.062500 0 0,0 7.006123,2.979078 A 0.062500,0.062500 0 0,0 7.068623,3.041578 A 0.062500,0.062500 0 0,0 7.131123,2.979078 "/>
        <path style="fill:none;stroke-width:0.010000;stroke-linecap:round;stroke-linejoin:round;stroke-opacity:1;stroke:#000000;" d="M 10.379623,17.479078 A 0.062500,0.062500 0 0,0 10.317123,17.416578 A 0.062500,0.062500 0 0,0 10.254623,17.479078 A 0.062500,0.062500 0 0,0 10.317123,17.541578 A 0.062500,0.062500 0 0,0 10.379623,17.479078 "/>
        <path style="fill:none;stroke-width:0.010000;stroke-linecap:round;stroke-linejoin:round;stroke-opacity:1;stroke:#000000;" d="M 7.131123,17.479078 A 0.062500,0.062500 0 0,0 7.068623,17.416578 A 0.062500,0.062500 0 0,0 7.006123,17.479078 A 0.062500,0.062500 0 0,0 7.068623,17.541578 A 0.062500,0.062500 0 0,0 7.131123,17.479078 "/>
        <path style="fill:none;stroke-width:0.010000;stroke-linecap:round;stroke-linejoin:round;stroke-opacity:1;stroke:#000000;" d="M 10.879323,5.822878 A 0.062500,0.062500 0 0,0 10.816823,5.760378 A 0.062500,0.062500 0 0,0 10.754323,5.822878 A 0.062500,0.062500 0 0,0 10.816823,5.885378 A 0.062500,0.062500 0 0,0 10.879323,5.822878 "/>
        <path style="fill:none;stroke-width:0.010000;stroke-linecap:round;stroke-linejoin:round;stroke-opacity:1;stroke:#000000;" d="M 10.879323,4.229078 A 0.062500,0.062500 0 0,0 10.816823,4.166578 A 0.062500,0.062500 0 0,0 10.754323,4.229078 A 0.062500,0.062500 0 0,0 10.816823,4.291578 A 0.062500,0.062500 0 0,0 10.879323,4.229078 "/>
        <path style="fill:none;stroke-width:0.010000;stroke-linecap:round;stroke-linejoin:round;stroke-opacity:1;stroke:#000000;" d="M 6.631423,4.229078 A 0.062500,0.062500 0 0,0 6.568923,4.166578 A 0.062500,0.062500 0 0,0 6.506423,4.229078 A 0.062500,0.062500 0 0,0 6.568923,4.291578 A 0.062500,0.062500 0 0,0 6.631423,4.229078 "/>
        <path style="fill:none;stroke-width:0.010000;stroke-linecap:round;stroke-linejoin:round;stroke-opacity:1;stroke:#000000;" d="M 6.631623,5.822878 A 0.062500,0.062500 0 0,0 6.569123,5.760378 A 0.062500,0.062500 0 0,0 6.506623,5.822878 A 0.062500,0.062500 0 0,0 6.569123,5.885378 A 0.062500,0.062500 0 0,0 6.631623,5.822878 "/>
        <path style="fill:none;stroke-width:0.010000;stroke-linecap:round;stroke-linejoin:round;stroke-opacity:1;stroke:#000000;" d="M 10.879123,14.645778 A 0.062500,0.062500 0 0,0 10.816623,14.583278 A 0.062500,0.062500 0 0,0 10.754123,14.645778 A 0.062500,0.062500 0 0,0 10.816623,14.708278 A 0.062500,0.062500 0 0,0 10.879123,14.645778 "/>
        <path style="fill:none;stroke-width:0.010000;stroke-linecap:round;stroke-linejoin:round;stroke-opacity:1;stroke:#000000;" d="M 10.879123,16.229078 A 0.062500,0.062500 0 0,0 10.816623,16.166578 A 0.062500,0.062500 0 0,0 10.754123,16.229078 A 0.062500,0.062500 0 0,0 10.816623,16.291578 A 0.062500,0.062500 0 0,0 10.879123,16.229078 "/>
        <path style="fill:none;stroke-width:0.010000;stroke-linecap:round;stroke-linejoin:round;stroke-opacity:1;stroke:#000000;" d="M 7.443216,7.729078 L 7.443216,6.729078 "/>
        <path style="fill:none;stroke-width:0.010000;stroke-linecap:round;stroke-linejoin:round;stroke-opacity:1;stroke:#000000;" d="M 7.943216,6.729078 L 7.943216,7.729078 "/>
        <path style="fill:none;stroke-width:0.010000;stroke-linecap:round;stroke-linejoin:round;stroke-opacity:1;stroke:#000000;" d="M 7.693216,6.729078 L 7.693216,7.729078 "/>
        <path style="fill:none;stroke-width:0.010000;stroke-linecap:round;stroke-linejoin:round;stroke-opacity:1;stroke:#000000;" d="M 9.442321,7.729078 L 9.442321,6.729078 "/>
        <path style="fill:none;stroke-width:0.010000;stroke-linecap:round;stroke-linejoin:round;stroke-opacity:1;stroke:#000000;" d="M 9.942321,6.729078 L 9.942321,7.729078 "/>
        <path style="fill:none;stroke-width:0.010000;stroke-linecap:round;stroke-linejoin:round;stroke-opacity:1;stroke:#000000;" d="M 9.692321,6.729078 L 9.692321,7.729078 "/>
        <path style="fill:none;stroke-width:0.010000;stroke-linecap:round;stroke-linejoin:round;stroke-opacity:1;stroke:#000000;" d="M 7.442775,13.729078 L 7.442775,12.729078 "/>
        <path style="fill:none;stroke-width:0.010000;stroke-linecap:round;stroke-linejoin:round;stroke-opacity:1;stroke:#000000;" d="M 7.942775,12.729078 L 7.942775,13.729078 "/>
        <path style="fill:none;stroke-width:0.010000;stroke-linecap:round;stroke-linejoin:round;stroke-opacity:1;stroke:#000000;" d="M 7.692775,12.729078 L 7.692775,13.729078 "/>
        <path style="fill:none;stroke-width:0.010000;stroke-linecap:round;stroke-linejoin:round;stroke-opacity:1;stroke:#000000;" d="M 9.442775,13.729078 L 9.442775,12.729078 "/>
        <path style="fill:none;stroke-width:0.010000;stroke-linecap:round;stroke-linejoin:round;stroke-opacity:1;stroke:#000000;" d="M 9.942775,12.729078 L 9.942775,13.729078 "/>
        <path style="fill:none;stroke-width:0.010000;stroke-linecap:round;stroke-linejoin:round;stroke-opacity:1;stroke:#000000;" d="M 9.692775,12.729078 L 9.692775,13.729078 "/>
        <path style="fill:none;stroke-width:0.010000;stroke-linecap:round;stroke-linejoin:round;stroke-opacity:1;stroke:#000000;" d="M 9.442321,7.729078 L 9.442321,6.729078 "/>
        <path style="fill:none;stroke-width:0.010000;stroke-linecap:round;stroke-linejoin:round;stroke-opacity:1;stroke:#000000;" d="M 9.942321,6.729078 L 9.942321,7.729078 "/>
        <path style="fill:none;stroke-width:0.010000;stroke-linecap:round;stroke-linejoin:round;stroke-opacity:1;stroke:#000000;" d="M 9.692321,6.729078 L 9.692321,7.729078 "/>
        <path style="fill:none;stroke-width:0.010000;stroke-linecap:round;stroke-linejoin:round;stroke-opacity:1;stroke:#000000;" d="M 9.192321,7.479078 L 9.192321,6.979078 "/>
        <path style="fill:none;stroke-width:0.010000;stroke-linecap:round;stroke-linejoin:round;stroke-opacity:1;stroke:#000000;" d="M 9.192321,7.479078 L 9.192321,7.229078 L 9.192321,6.979078 "/>
        <path style="fill:none;stroke-width:0.010000;stroke-linecap:round;stroke-linejoin:round;stroke-opacity:1;stroke:#000000;" d="M 10.192321,7.479078 L 10.192321,6.979078 "/>
        <path style="fill:none;stroke-width:0.010000;stroke-linecap:round;stroke-linejoin:round;stroke-opacity:1;stroke:#000000;" d="M 10.192321,7.479078 L 10.192321,7.229078 L 10.192321,6.979078 "/>
        <path style="fill:none;stroke-width:0.010000;stroke-linecap:round;stroke-linejoin:round;stroke-opacity:1;stroke:#000000;" d="M 7.443216,7.729078 L 7.443216,6.729078 "/>
        <path style="fill:none;stroke-width:0.010000;stroke-linecap:round;stroke-linejoin:round;stroke-opacity:1;stroke:#000000;" d="M 7.943216,6.729078 L 7.943216,7.729078 "/>
        <path style="fill:none;stroke-width:0.010000;stroke-linecap:round;stroke-linejoin:round;stroke-opacity:1;stroke:#000000;" d="M 7.693216,6.729078 L 7.693216,7.729078 "/>
        <path style="fill:none;stroke-width:0.010000;stroke-linecap:round;stroke-linejoin:round;stroke-opacity:1;stroke:#000000;" d="M 7.443216,7.729078 L 7.443216,6.729078 "/>
        <path style="fill:none;stroke-width:0.010000;stroke-linecap:round;stroke-linejoin:round;stroke-opacity:1;stroke:#000000;" d="M 7.943216,6.729078 L 7.943216,7.729078 "/>
        <path style="fill:none;stroke-width:0.010000;stroke-linecap:round;stroke-linejoin:round;stroke-opacity:1;stroke:#000000;" d="M 7.693216,6.729078 L 7.693216,7.729078 "/>
        <path style="fill:none;stroke-width:0.010000;stroke-linecap:round;stroke-linejoin:round;stroke-opacity:1;stroke:#000000;" d="M 7.193216,7.479078 L 7.193216,6.979078 "/>
        <path style="fill:none;stroke-width:0.010000;stroke-linecap:round;stroke-linejoin:round;stroke-opacity:1;stroke:#000000;" d="M 7.193216,7.479078 L 7.193216,7.229078 L 7.193216,6.979078 "/>
        <path style="fill:none;stroke-width:0.010000;stroke-linecap:round;stroke-linejoin:round;stroke-opacity:1;stroke:#000000;" d="M 8.193216,7.479078 L 8.193216,6.979078 "/>
        <path style="fill:none;stroke-width:0.010000;stroke-linecap:round;stroke-linejoin:round;stroke-opacity:1;stroke:#000000;" d="M 8.193216,7.479078 L 8.193216,7.229078 L 8.193216,6.979078 "/>
        <path style="fill:none;stroke-width:0.010000;stroke-linecap:round;stroke-linejoin:round;stroke-opacity:1;stroke:#000000;" d="M 7.442775,13.729078 L 7.442775,12.729078 "/>
        <path style="fill:none;stroke-width:0.010000;stroke-linecap:round;stroke-linejoin:round;stroke-opacity:1;stroke:#000000;" d="M 7.942775,12.729078 L 7.942775,13.729078 "/>
        <path style="fill:none;stroke-width:0.010000;stroke-linecap:round;stroke-linejoin:round;stroke-opacity:1;stroke:#000000;" d="M 7.692775,12.729078 L 7.692775,13.729078 "/>
        <path style="fill:none;stroke-width:0.010000;stroke-linecap:round;stroke-linejoin:round;stroke-opacity:1;stroke:#000000;" d="M 7.442775,13.729078 L 7.442775,12.729078 "/>
        <path style="fill:none;stroke-width:0.010000;stroke-linecap:round;stroke-linejoin:round;stroke-opacity:1;stroke:#000000;" d="M 7.942775,12.729078 L 7.942775,13.729078 "/>
        <path style="fill:none;stroke-width:0.010000;stroke-linecap:round;stroke-linejoin:round;stroke-opacity:1;stroke:#000000;" d="M 7.692775,12.729078 L 7.692775,13.729078 "/>
        <path style="fill:none;stroke-width:0.010000;stroke-linecap:round;stroke-linejoin:round;stroke-opacity:1;stroke:#000000;" d="M 7.192775,13.479078 L 7.192775,12.979078 "/>
        <path style="fill:none;stroke-width:0.010000;stroke-linecap:round;stroke-linejoin:round;stroke-opacity:1;stroke:#000000;" d="M 7.192775,13.479078 L 7.192775,13.229078 L 7.192775,12.979078 "/>
        <path style="fill:none;stroke-width:0.010000;stroke-linecap:round;stroke-linejoin:round;stroke-opacity:1;stroke:#000000;" d="M 8.192775,13.479078 L 8.192775,12.979078 "/>
        <path style="fill:none;stroke-width:0.010000;stroke-linecap:round;stroke-linejoin:round;stroke-opacity:1;stroke:#000000;" d="M 8.192775,13.479078 L 8.192775,13.229078 L 8.192775,12.979078 "/>
        <path style="fill:none;stroke-width:0.010000;stroke-linecap:round;stroke-linejoin:round;stroke-opacity:1;stroke:#000000;" d="M 9.442775,13.729078 L 9.442775,12.729078 "/>
        <path style="fill:none;stroke-width:0.010000;stroke-linecap:round;stroke-linejoin:round;stroke-opacity:1;stroke:#000000;" d="M 9.942775,12.729078 L 9.942775,13.729078 "/>
        <path style="fill:none;stroke-width:0.010000;stroke-linecap:round;stroke-linejoin:round;stroke-opacity:1;stroke:#000000;" d="M 9.692775,12.729078 L 9.692775,13.729078 "/>
        <path style="fill:none;stroke-width:0.010000;stroke-linecap:round;stroke-linejoin:round;stroke-opacity:1;stroke:#000000;" d="M 9.442775,13.729078 L 9.442775,12.729078 "/>
        <path style="fill:none;stroke-width:0.010000;stroke-linecap:round;stroke-linejoin:round;stroke-opacity:1;stroke:#000000;" d="M 9.942775,12.729078 L 9.942775,13.729078 "/>
        <path style="fill:none;stroke-width:0.010000;stroke-linecap:round;stroke-linejoin:round;stroke-opacity:1;stroke:#000000;" d="M 9.692775,12.729078 L 9.692775,13.729078 "/>
        <path style="fill:none;stroke-width:0.010000;stroke-linecap:round;stroke-linejoin:round;stroke-opacity:1;stroke:#000000;" d="M 9.192775,13.479078 L 9.192775,12.979078 "/>
        <path style="fill:none;stroke-width:0.010000;stroke-linecap:round;stroke-linejoin:round;stroke-opacity:1;stroke:#000000;" d="M 9.192775,13.479078 L 9.192775,13.229078 L 9.192775,12.979078 "/>
        <path style="fill:none;stroke-width:0.010000;stroke-linecap:round;stroke-linejoin:round;stroke-opacity:1;stroke:#000000;" d="M 10.192775,13.479078 L 10.192775,12.979078 "/>
        <path style="fill:none;stroke-width:0.010000;stroke-linecap:round;stroke-linejoin:round;stroke-opacity:1;stroke:#000000;" d="M 10.192775,13.479078 L 10.192775,13.229078 L 10.192775,12.979078 "/>
        <path style="fill:none;stroke-width:0.010000;stroke-linecap:round;stroke-linejoin:round;stroke-opacity:1;stroke:#000000;" d="M 9.442321,7.729078 L 9.442321,6.729078 "/>
        <path style="fill:none;stroke-width:0.010000;stroke-linecap:round;stroke-linejoin:round;stroke-opacity:1;stroke:#000000;" d="M 9.942321,6.729078 L 9.942321,7.729078 "/>
        <path style="fill:none;stroke-width:0.010000;stroke-linecap:round;stroke-linejoin:round;stroke-opacity:1;stroke:#000000;" d="M 9.692321,6.729078 L 9.692321,7.729078 "/>
        <path style="fill:none;stroke-width:0.010000;stroke-linecap:round;stroke-linejoin:round;stroke-opacity:1;stroke:#000000;" d="M 9.442321,7.729078 L 9.442321,6.729078 "/>
        <path style="fill:none;stroke-width:0.010000;stroke-linecap:round;stroke-linejoin:round;stroke-opacity:1;stroke:#000000;" d="M 9.942321,6.729078 L 9.942321,7.729078 "/>
        <path style="fill:none;stroke-width:0.010000;stroke-linecap:round;stroke-linejoin:round;stroke-opacity:1;stroke:#000000;" d="M 9.692321,6.729078 L 9.692321,7.729078 "/>
        <path style="fill:none;stroke-width:0.010000;stroke-linecap:round;stroke-linejoin:round;stroke-opacity:1;stroke:#000000;" d="M 9.192321,7.479078 L 9.192321,6.979078 "/>
        <path style="fill:none;stroke-width:0.010000;stroke-linecap:round;stroke-linejoin:round;stroke-opacity:1;stroke:#000000;" d="M 9.192321,7.479078 L 9.192321,7.229078 L 9.192321,6.979078 "/>
        <path style="fill:none;stroke-width:0.010000;stroke-linecap:round;stroke-linejoin:round;stroke-opacity:1;stroke:#000000;" d="M 10.192321,7.479078 L 10.192321,6.979078 "/>
        <path style="fill:none;stroke-width:0.010000;stroke-linecap:round;stroke-linejoin:round;stroke-opacity:1;stroke:#000000;" d="M 10.192321,7.479078 L 10.192321,7.229078 L 10.192321,6.979078 "/>
        <path style="fill:none;stroke-width:0.010000;stroke-linecap:round;stroke-linejoin:round;stroke-opacity:1;stroke:#000000;" d="M 7.979525,3.967665 L 7.272419,3.260558 "/>
        <path style="fill:none;stroke-width:0.010000;stroke-linecap:round;stroke-linejoin:round;stroke-opacity:1;stroke:#000000;" d="M 7.449195,3.083781 L 8.156302,3.790888 "/>
        <path style="fill:none;stroke-width:0.010000;stroke-linecap:round;stroke-linejoin:round;stroke-opacity:1;stroke:#000000;" d="M 7.979525,3.967665 L 7.272419,3.260558 "/>
        <path style="fill:none;stroke-width:0.010000;stroke-linecap:round;stroke-linejoin:round;stroke-opacity:1;stroke:#000000;" d="M 7.449195,3.083781 L 8.156302,3.790888 "/>
        <path style="fill:none;stroke-width:0.010000;stroke-linecap:round;stroke-linejoin:round;stroke-opacity:1;stroke:#000000;" d="M 9.442321,7.729078 L 9.442321,6.729078 "/>
        <path style="fill:none;stroke-width:0.010000;stroke-linecap:round;stroke-linejoin:round;stroke-opacity:1;stroke:#000000;" d="M 9.942321,6.729078 L 9.942321,7.729078 "/>
        <path style="fill:none;stroke-width:0.010000;stroke-linecap:round;stroke-linejoin:round;stroke-opacity:1;stroke:#000000;" d="M 9.692321,6.729078 L 9.692321,7.729078 "/>
        <path style="fill:none;stroke-width:0.010000;stroke-linecap:round;stroke-linejoin:round;stroke-opacity:1;stroke:#000000;" d="M 9.442321,7.729078 L 9.442321,6.729078 "/>
        <path style="fill:none;stroke-width:0.010000;stroke-linecap:round;stroke-linejoin:round;stroke-opacity:1;stroke:#000000;" d="M 9.942321,6.729078 L 9.942321,7.729078 "/>
        <path style="fill:none;stroke-width:0.010000;stroke-linecap:round;stroke-linejoin:round;stroke-opacity:1;stroke:#000000;" d="M 9.692321,6.729078 L 9.692321,7.729078 "/>
        <path style="fill:none;stroke-width:0.010000;stroke-linecap:round;stroke-linejoin:round;stroke-opacity:1;stroke:#000000;" d="M 9.192321,7.479078 L 9.192321,6.979078 "/>
        <path style="fill:none;stroke-width:0.010000;stroke-linecap:round;stroke-linejoin:round;stroke-opacity:1;stroke:#000000;" d="M 9.192321,7.479078 L 9.192321,7.229078 L 9.192321,6.979078 "/>
        <path style="fill:none;stroke-width:0.010000;stroke-linecap:round;stroke-linejoin:round;stroke-opacity:1;stroke:#000000;" d="M 10.192321,7.479078 L 10.192321,6.979078 "/>
        <path style="fill:none;stroke-width:0.010000;stroke-linecap:round;stroke-linejoin:round;stroke-opacity:1;stroke:#000000;" d="M 10.192321,7.479078 L 10.192321,7.229078 L 10.192321,6.979078 "/>
        <path style="fill:none;stroke-width:0.010000;stroke-linecap:round;stroke-linejoin:round;stroke-opacity:1;stroke:#000000;" d="M 9.943073,17.429118 L 9.235966,16.722012 "/>
        <path style="fill:none;stroke-width:0.010000;stroke-linecap:round;stroke-linejoin:round;stroke-opacity:1;stroke:#000000;" d="M 9.412743,16.545235 L 10.119849,17.252342 "/>
        <path style="fill:none;stroke-width:0.010000;stroke-linecap:round;stroke-linejoin:round;stroke-opacity:1;stroke:#000000;" d="M 9.943073,17.429118 L 9.235966,16.722012 "/>
        <path style="fill:none;stroke-width:0.010000;stroke-linecap:round;stroke-linejoin:round;stroke-opacity:1;stroke:#000000;" d="M 9.412743,16.545235 L 10.119849,17.252342 "/>
        <path style="fill:none;stroke-width:0.010000;stroke-linecap:round;stroke-linejoin:round;stroke-opacity:1;stroke:#000000;" d="M 10.113329,3.260558 L 9.406222,3.967664 "/>
        <path style="fill:none;stroke-width:0.010000;stroke-linecap:round;stroke-linejoin:round;stroke-opacity:1;stroke:#000000;" d="M 9.229446,3.790888 L 9.936553,3.083781 "/>
        <path style="fill:none;stroke-width:0.010000;stroke-linecap:round;stroke-linejoin:round;stroke-opacity:1;stroke:#000000;" d="M 10.113329,3.260558 L 9.406222,3.967664 "/>
        <path style="fill:none;stroke-width:0.010000;stroke-linecap:round;stroke-linejoin:round;stroke-opacity:1;stroke:#000000;" d="M 9.229446,3.790888 L 9.936553,3.083781 "/>
        <path style="fill:none;stroke-width:0.010000;stroke-linecap:round;stroke-linejoin:round;stroke-opacity:1;stroke:#000000;" d="M 8.149690,16.722021 L 7.442584,17.429128 "/>
        <path style="fill:none;stroke-width:0.010000;stroke-linecap:round;stroke-linejoin:round;stroke-opacity:1;stroke:#000000;" d="M 7.265807,17.252351 L 7.972914,16.545245 "/>
        <path style="fill:none;stroke-width:0.010000;stroke-linecap:round;stroke-linejoin:round;stroke-opacity:1;stroke:#000000;" d="M 8.149690,16.722021 L 7.442584,17.429128 "/>
        <path style="fill:none;stroke-width:0.010000;stroke-linecap:round;stroke-linejoin:round;stroke-opacity:1;stroke:#000000;" d="M 7.265807,17.252351 L 7.972914,16.545245 "/>
        <path style="fill:none;stroke-width:0.010000;stroke-linecap:round;stroke-linejoin:round;stroke-opacity:1;stroke:#000000;" d="M 5.818923,3.405855 L 5.818923,2.905855 L 6.318923,2.905855 L 6.318923,3.405855 L 6.318923,5.552301 L 5.818923,5.052301 L 5.818923,3.405855 "/>
        <path style="fill:none;stroke-width:0.010000;stroke-linecap:round;stroke-linejoin:round;stroke-opacity:1;stroke:#000000;" d="M 11.066586,3.405855 L 11.066586,5.552301 L 11.566586,5.052301 L 11.566586,3.405855 L 11.566586,2.905855 L 11.066586,2.905855 L 11.066586,3.405855 "/>
        <path style="fill:none;stroke-width:0.010000;stroke-linecap:round;stroke-linejoin:round;stroke-opacity:1;stroke:#000000;" d="M 11.066486,17.052301 L 11.066486,14.905855 L 11.566486,15.405855 L 11.566486,17.052301 L 11.566486,17.552301 L 11.066486,17.552301 L 11.066486,17.052301 "/>
        <path style="fill:none;stroke-width:0.010000;stroke-linecap:round;stroke-linejoin:round;stroke-opacity:1;stroke:#000000;" d="M 7.630864,4.666589 L 7.630864,5.604113 "/>
        <path style="fill:none;stroke-width:0.010000;stroke-linecap:round;stroke-linejoin:round;stroke-opacity:1;stroke:#000000;" d="M 9.754826,4.666589 L 9.754826,5.604113 "/>
        <path style="fill:none;stroke-width:0.010000;stroke-linecap:round;stroke-linejoin:round;stroke-opacity:1;stroke:#000000;" d="M 7.630864,14.916568 L 7.630864,15.791567 "/>
        <path style="fill:none;stroke-width:0.010000;stroke-linecap:round;stroke-linejoin:round;stroke-opacity:1;stroke:#000000;" d="M 9.754826,14.916568 L 9.754826,15.791567 "/>
        <path style="fill:none;stroke-width:0.010000;stroke-linecap:round;stroke-linejoin:round;stroke-opacity:1;stroke:#000000;" d="M 7.314075,10.229078 L 7.314075,9.229078 L 7.314075,11.229078 "/>
        <path style="fill:none;stroke-width:0.010000;stroke-linecap:round;stroke-linejoin:round;stroke-opacity:1;stroke:#000000;" d="M 8.251032,10.229128 L 8.251032,9.229128 L 8.251032,11.229128 "/>
        <path style="fill:none;stroke-width:0.010000;stroke-linecap:round;stroke-linejoin:round;stroke-opacity:1;stroke:#000000;" d="M 9.261635,10.227789 L 9.261635,9.227789 L 9.261635,11.227789 "/>
        <path style="fill:none;stroke-width:0.010000;stroke-linecap:round;stroke-linejoin:round;stroke-opacity:1;stroke:#000000;" d="M 10.102275,10.229078 L 10.102275,9.229078 L 10.102275,11.229078 "/>
        <path style="fill:none;stroke-width:0.010000;stroke-linecap:round;stroke-linejoin:round;stroke-opacity:1;stroke:#000000;" d="M 6.194123,17.916578 A 0.062500,0.062500 0 0,0 6.131623,17.854078 A 0.062500,0.062500 0 0,0 6.069123,17.916578 A 0.062500,0.062500 0 0,0 6.131623,17.979078 A 0.062500,0.062500 0 0,0 6.194123,17.916578 "/>
        <path style="fill:none;stroke-width:0.010000;stroke-linecap:round;stroke-linejoin:round;stroke-opacity:1;stroke:#000000;" d="M 6.631623,14.645778 A 0.062500,0.062500 0 0,0 6.569123,14.583278 A 0.062500,0.062500 0 0,0 6.506623,14.645778 A 0.062500,0.062500 0 0,0 6.569123,14.708278 A 0.062500,0.062500 0 0,0 6.631623,14.645778 "/>
        <path style="fill:none;stroke-width:0.010000;stroke-linecap:round;stroke-linejoin:round;stroke-opacity:1;stroke:#000000;" d="M 6.619823,16.235078 A 0.062500,0.062500 0 0,0 6.557323,16.172578 A 0.062500,0.062500 0 0,0 6.494823,16.235078 A 0.062500,0.062500 0 0,0 6.557323,16.297578 A 0.062500,0.062500 0 0,0 6.619823,16.235078 "/>
        <path style="fill:none;stroke-width:0.010000;stroke-linecap:round;stroke-linejoin:round;stroke-opacity:1;stroke:#000000;" d="M 5.813309,17.058301 L 5.813309,17.558301 L 6.313309,17.558301 L 6.313309,17.058301 L 6.313309,14.911855 L 5.813309,15.411855 L 5.813309,17.058301 "/>
        <path style="fill:none;stroke-width:0.010000;stroke-linecap:round;stroke-linejoin:round;stroke-opacity:1;stroke:#000000;" d="M 1.868714,0.527057 C 2.112354,0.625580 2.362893,0.704545 2.617991,0.763273 L 2.618030,1.902157 A 0.125000,0.125000 0 0,0 2.743030,2.027157 L 4.743030,2.027157 A 0.125000,0.125000 0 0,0 4.868030,1.902157 L 4.868071,0.763334 C 5.123130,0.704630 5.373761,0.625666 5.617614,0.527057 L 5.617614,0.527057 A 0.125000,0.125000 0 0,1 5.742614,0.652057 L 5.742614,0.652057 A 8.814928,8.814928 0 0,0 5.742614,7.152057 L 5.742614,7.152057 A 0.125000,0.125000 0 0,1 5.617614,7.277057 A 5.000000,5.000000 0 0,0 1.868714,7.277057 A 0.125000,0.125000 0 0,1 1.743714,7.152057 L 1.743714,7.152057 A 8.815588,8.815588 0 0,0 1.743714,0.652057 A 0.125000,0.125000 0 0,1 1.868714,0.527057 "/>
        <path style="fill:none;stroke-width:0.010000;stroke-linecap:round;stroke-linejoin:round;stroke-opacity:1;stroke:#000000;" d="M 5.368746,8.731864 L 5.368658,8.731864 "/>
        <path style="fill:none;stroke-width:0.010000;stroke-linecap:round;stroke-linejoin:round;stroke-opacity:1;stroke:#000000;" d="M 0.000000,24.000000 L 12.000000,24.000000 L 12.000000,0.000000 L 0.000000,0.000000 L 0.000000,24.000000 "/>
    </g>
</svg>
