<?xml version="1.0" encoding="UTF-8"?>
<!-- Created by Vectric (http://www.vectric.com/) -->
<svg width="1.49996004in" height="3.62500000in" viewBox="0 0 1.49996004 3.62500000" id="svg2" version="1.1" xmlns="http://www.w3.org/2000/svg" xmlns:xlink="http://www.w3.org/1999/xlink" xmlns:inkscape="http://www.inkscape.org/namespaces/inkscape">
    <g inkscape:groupmode="layer" id="b64523ff-bea3-4245-83bb-6be2a4537a19" inkscape:label="Layer 1">
        <path style="fill:none;stroke-width:0.010000;stroke-linecap:round;stroke-linejoin:round;stroke-opacity:1;stroke:#000000;" d="M 0.187460,3.312454 A 0.062500,0.062500 0 0,0 0.249960,3.374954 A 0.062500,0.062500 0 0,0 0.312460,3.312454 A 0.062500,0.062500 0 0,0 0.249960,3.249954 A 0.062500,0.062500 0 0,0 0.187460,3.312454 "/>
        <path style="fill:none;stroke-width:0.010000;stroke-linecap:round;stroke-linejoin:round;stroke-opacity:1;stroke:#000000;" d="M 1.187460,3.312454 A 0.062500,0.062500 0 0,0 1.249960,3.374954 A 0.062500,0.062500 0 0,0 1.312460,3.312454 A 0.062500,0.062500 0 0,0 1.249960,3.249954 A 0.062500,0.062500 0 0,0 1.187460,3.312454 "/>
        <path style="fill:none;stroke-width:0.010000;stroke-linecap:round;stroke-linejoin:round;stroke-opacity:1;stroke:#000000;" d="M 1.499960,3.625000 L 0.000000,3.625000 L 0.000000,3.000000 L 1.499960,3.000000 L 1.499960,3.625000 "/>
        <path style="fill:none;stroke-width:0.010000;stroke-linecap:round;stroke-linejoin:round;stroke-opacity:1;stroke:#000000;" d="M 1.499960,3.625000 L 1.499960,3.312454 "/>
        <path style="fill:none;stroke-width:0.010000;stroke-linecap:round;stroke-linejoin:round;stroke-opacity:1;stroke:#000000;" d="M 0.187460,3.312454 A 0.062500,0.062500 0 0,0 0.249960,3.374954 A 0.062500,0.062500 0 0,0 0.312460,3.312454 A 0.062500,0.062500 0 0,0 0.249960,3.249954 A 0.062500,0.062500 0 0,0 0.187460,3.312454 "/>
        <path style="fill:none;stroke-width:0.010000;stroke-linecap:round;stroke-linejoin:round;stroke-opacity:1;stroke:#000000;" d="M 1.187460,3.312454 A 0.062500,0.062500 0 0,0 1.249960,3.374954 A 0.062500,0.062500 0 0,0 1.312460,3.312454 A 0.062500,0.062500 0 0,0 1.249960,3.249954 A 0.062500,0.062500 0 0,0 1.187460,3.312454 "/>
        <path style="fill:none;stroke-width:0.010000;stroke-linecap:round;stroke-linejoin:round;stroke-opacity:1;stroke:#000000;" d="M 1.499960,3.625000 L 0.000000,3.625000 L 0.000000,3.000000 L 1.499960,3.000000 L 1.499960,3.625000 "/>
        <path style="fill:none;stroke-width:0.010000;stroke-linecap:round;stroke-linejoin:round;stroke-opacity:1;stroke:#000000;" d="M 1.499960,3.625000 L 1.499960,3.312454 "/>
        <path style="fill:none;stroke-width:0.010000;stroke-linecap:round;stroke-linejoin:round;stroke-opacity:1;stroke:#000000;" d="M 0.187460,2.312454 A 0.062500,0.062500 0 0,0 0.249960,2.374954 A 0.062500,0.062500 0 0,0 0.312460,2.312454 A 0.062500,0.062500 0 0,0 0.249960,2.249954 A 0.062500,0.062500 0 0,0 0.187460,2.312454 "/>
        <path style="fill:none;stroke-width:0.010000;stroke-linecap:round;stroke-linejoin:round;stroke-opacity:1;stroke:#000000;" d="M 1.187460,2.312454 A 0.062500,0.062500 0 0,0 1.249960,2.374954 A 0.062500,0.062500 0 0,0 1.312460,2.312454 A 0.062500,0.062500 0 0,0 1.249960,2.249954 A 0.062500,0.062500 0 0,0 1.187460,2.312454 "/>
        <path style="fill:none;stroke-width:0.010000;stroke-linecap:round;stroke-linejoin:round;stroke-opacity:1;stroke:#000000;" d="M 1.499960,2.625000 L 0.000000,2.625000 L 0.000000,2.000000 L 1.499960,2.000000 L 1.499960,2.625000 "/>
        <path style="fill:none;stroke-width:0.010000;stroke-linecap:round;stroke-linejoin:round;stroke-opacity:1;stroke:#000000;" d="M 1.499960,2.625000 L 1.499960,2.312454 "/>
        <path style="fill:none;stroke-width:0.010000;stroke-linecap:round;stroke-linejoin:round;stroke-opacity:1;stroke:#000000;" d="M 0.187460,2.312454 A 0.062500,0.062500 0 0,0 0.249960,2.374954 A 0.062500,0.062500 0 0,0 0.312460,2.312454 A 0.062500,0.062500 0 0,0 0.249960,2.249954 A 0.062500,0.062500 0 0,0 0.187460,2.312454 "/>
        <path style="fill:none;stroke-width:0.010000;stroke-linecap:round;stroke-linejoin:round;stroke-opacity:1;stroke:#000000;" d="M 1.187460,2.312454 A 0.062500,0.062500 0 0,0 1.249960,2.374954 A 0.062500,0.062500 0 0,0 1.312460,2.312454 A 0.062500,0.062500 0 0,0 1.249960,2.249954 A 0.062500,0.062500 0 0,0 1.187460,2.312454 "/>
        <path style="fill:none;stroke-width:0.010000;stroke-linecap:round;stroke-linejoin:round;stroke-opacity:1;stroke:#000000;" d="M 1.499960,2.625000 L 0.000000,2.625000 L 0.000000,2.000000 L 1.499960,2.000000 L 1.499960,2.625000 "/>
        <path style="fill:none;stroke-width:0.010000;stroke-linecap:round;stroke-linejoin:round;stroke-opacity:1;stroke:#000000;" d="M 1.499960,2.625000 L 1.499960,2.312454 "/>
        <path style="fill:none;stroke-width:0.010000;stroke-linecap:round;stroke-linejoin:round;stroke-opacity:1;stroke:#000000;" d="M 0.187460,1.312454 A 0.062500,0.062500 0 0,0 0.249960,1.374954 A 0.062500,0.062500 0 0,0 0.312460,1.312454 A 0.062500,0.062500 0 0,0 0.249960,1.249954 A 0.062500,0.062500 0 0,0 0.187460,1.312454 "/>
        <path style="fill:none;stroke-width:0.010000;stroke-linecap:round;stroke-linejoin:round;stroke-opacity:1;stroke:#000000;" d="M 1.187460,1.312454 A 0.062500,0.062500 0 0,0 1.249960,1.374954 A 0.062500,0.062500 0 0,0 1.312460,1.312454 A 0.062500,0.062500 0 0,0 1.249960,1.249954 A 0.062500,0.062500 0 0,0 1.187460,1.312454 "/>
        <path style="fill:none;stroke-width:0.010000;stroke-linecap:round;stroke-linejoin:round;stroke-opacity:1;stroke:#000000;" d="M 1.499960,1.625000 L 0.000000,1.625000 L 0.000000,1.000000 L 1.499960,1.000000 L 1.499960,1.625000 "/>
        <path style="fill:none;stroke-width:0.010000;stroke-linecap:round;stroke-linejoin:round;stroke-opacity:1;stroke:#000000;" d="M 1.499960,1.625000 L 1.499960,1.312454 "/>
        <path style="fill:none;stroke-width:0.010000;stroke-linecap:round;stroke-linejoin:round;stroke-opacity:1;stroke:#000000;" d="M 0.187460,1.312454 A 0.062500,0.062500 0 0,0 0.249960,1.374954 A 0.062500,0.062500 0 0,0 0.312460,1.312454 A 0.062500,0.062500 0 0,0 0.249960,1.249954 A 0.062500,0.062500 0 0,0 0.187460,1.312454 "/>
        <path style="fill:none;stroke-width:0.010000;stroke-linecap:round;stroke-linejoin:round;stroke-opacity:1;stroke:#000000;" d="M 1.187460,1.312454 A 0.062500,0.062500 0 0,0 1.249960,1.374954 A 0.062500,0.062500 0 0,0 1.312460,1.312454 A 0.062500,0.062500 0 0,0 1.249960,1.249954 A 0.062500,0.062500 0 0,0 1.187460,1.312454 "/>
        <path style="fill:none;stroke-width:0.010000;stroke-linecap:round;stroke-linejoin:round;stroke-opacity:1;stroke:#000000;" d="M 1.499960,1.625000 L 0.000000,1.625000 L 0.000000,1.000000 L 1.499960,1.000000 L 1.499960,1.625000 "/>
        <path style="fill:none;stroke-width:0.010000;stroke-linecap:round;stroke-linejoin:round;stroke-opacity:1;stroke:#000000;" d="M 1.499960,1.625000 L 1.499960,1.312454 "/>
        <path style="fill:none;stroke-width:0.010000;stroke-linecap:round;stroke-linejoin:round;stroke-opacity:1;stroke:#000000;" d="M 0.187460,0.312454 A 0.062500,0.062500 0 0,0 0.249960,0.374954 A 0.062500,0.062500 0 0,0 0.312460,0.312454 A 0.062500,0.062500 0 0,0 0.249960,0.249954 A 0.062500,0.062500 0 0,0 0.187460,0.312454 "/>
        <path style="fill:none;stroke-width:0.010000;stroke-linecap:round;stroke-linejoin:round;stroke-opacity:1;stroke:#000000;" d="M 1.187460,0.312454 A 0.062500,0.062500 0 0,0 1.249960,0.374954 A 0.062500,0.062500 0 0,0 1.312460,0.312454 A 0.062500,0.062500 0 0,0 1.249960,0.249954 A 0.062500,0.062500 0 0,0 1.187460,0.312454 "/>
        <path style="fill:none;stroke-width:0.010000;stroke-linecap:round;stroke-linejoin:round;stroke-opacity:1;stroke:#000000;" d="M 1.499960,0.625000 L 0.000000,0.625000 L 0.000000,0.000000 L 1.499960,0.000000 L 1.499960,0.625000 "/>
        <path style="fill:none;stroke-width:0.010000;stroke-linecap:round;stroke-linejoin:round;stroke-opacity:1;stroke:#000000;" d="M 1.499960,0.625000 L 1.499960,0.312454 "/>
        <path style="fill:none;stroke-width:0.010000;stroke-linecap:round;stroke-linejoin:round;stroke-opacity:1;stroke:#000000;" d="M 0.187460,0.312454 A 0.062500,0.062500 0 0,0 0.249960,0.374954 A 0.062500,0.062500 0 0,0 0.312460,0.312454 A 0.062500,0.062500 0 0,0 0.249960,0.249954 A 0.062500,0.062500 0 0,0 0.187460,0.312454 "/>
        <path style="fill:none;stroke-width:0.010000;stroke-linecap:round;stroke-linejoin:round;stroke-opacity:1;stroke:#000000;" d="M 1.187460,0.312454 A 0.062500,0.062500 0 0,0 1.249960,0.374954 A 0.062500,0.062500 0 0,0 1.312460,0.312454 A 0.062500,0.062500 0 0,0 1.249960,0.249954 A 0.062500,0.062500 0 0,0 1.187460,0.312454 "/>
        <path style="fill:none;stroke-width:0.010000;stroke-linecap:round;stroke-linejoin:round;stroke-opacity:1;stroke:#000000;" d="M 1.499960,0.625000 L 0.000000,0.625000 L 0.000000,0.000000 L 1.499960,0.000000 L 1.499960,0.625000 "/>
        <path style="fill:none;stroke-width:0.010000;stroke-linecap:round;stroke-linejoin:round;stroke-opacity:1;stroke:#000000;" d="M 1.499960,0.625000 L 1.499960,0.312454 "/>
    </g>
</svg>
