<?xml version="1.0" encoding="UTF-8"?>
<!-- Created by Vectric (http://www.vectric.com/) -->
<svg width="3.69851537in" height="7.08971384in" viewBox="0 0 3.69851537 7.08971384" id="svg2" version="1.1" xmlns="http://www.w3.org/2000/svg" xmlns:xlink="http://www.w3.org/1999/xlink" xmlns:inkscape="http://www.inkscape.org/namespaces/inkscape">
    <g inkscape:groupmode="layer" id="85667243-1302-4a85-b3ac-c7bf39b332ec" inkscape:label="Toolpath Previews"/>
    <g inkscape:groupmode="layer" id="c2c28673-e3d1-471b-bb2c-bdc9c496ac9d" inkscape:label="Layer 1">
        <path style="fill:none;stroke-width:0.010000;stroke-linecap:round;stroke-linejoin:round;stroke-opacity:1;stroke:#000000;" d="M 2.309832,0.234035 A 0.062500,0.062500 0 0,0 2.247332,0.296535 A 0.062500,0.062500 0 0,0 2.309832,0.359035 A 0.062500,0.062500 0 0,0 2.372332,0.296535 A 0.062500,0.062500 0 0,0 2.309832,0.234035 "/>
        <path style="fill:none;stroke-width:0.010000;stroke-linecap:round;stroke-linejoin:round;stroke-opacity:1;stroke:#000000;" d="M 2.309832,1.234035 A 0.062500,0.062500 0 0,0 2.247332,1.296535 A 0.062500,0.062500 0 0,0 2.309832,1.359035 A 0.062500,0.062500 0 0,0 2.372332,1.296535 A 0.062500,0.062500 0 0,0 2.309832,1.234035 "/>
        <path style="fill:none;stroke-width:0.010000;stroke-linecap:round;stroke-linejoin:round;stroke-opacity:1;stroke:#000000;" d="M 2.309832,5.481435 A 0.062500,0.062500 0 0,0 2.247332,5.543935 A 0.062500,0.062500 0 0,0 2.309832,5.606435 A 0.062500,0.062500 0 0,0 2.372332,5.543935 A 0.062500,0.062500 0 0,0 2.309832,5.481435 "/>
        <path style="fill:none;stroke-width:0.010000;stroke-linecap:round;stroke-linejoin:round;stroke-opacity:1;stroke:#000000;" d="M 2.309832,0.596535 A 0.200000,0.200000 0 0,0 2.109832,0.796535 A 0.200000,0.200000 0 0,0 2.309832,0.996535 A 0.200000,0.200000 0 0,0 2.509832,0.796535 A 0.200000,0.200000 0 0,0 2.309832,0.596535 "/>
        <path style="fill:none;stroke-width:0.010000;stroke-linecap:round;stroke-linejoin:round;stroke-opacity:1;stroke:#000000;" d="M 1.997286,0.046574 L 2.622286,0.046574 L 2.622286,7.043139 L 1.997286,7.043139 L 1.997286,0.046574 "/>
        <path style="fill:none;stroke-width:0.010000;stroke-linecap:round;stroke-linejoin:round;stroke-opacity:1;stroke:#000000;" d="M 2.632286,6.876363 L 2.632286,0.213351 A 0.125000,0.125000 0 0,0 2.455509,0.036574 L 2.164063,0.036574 A 0.125000,0.125000 0 0,0 1.987286,0.213351 L 1.987286,6.876363 A 0.125000,0.125000 0 0,0 2.164063,7.053139 L 2.455509,7.053139 A 0.125000,0.125000 0 0,0 2.632286,6.876363 "/>
        <path style="fill:none;stroke-width:0.010000;stroke-linecap:round;stroke-linejoin:round;stroke-opacity:1;stroke:#000000;" d="M 2.309786,1.171557 A 0.125000,0.125000 0 0,0 2.184786,1.296557 A 0.125000,0.125000 0 0,0 2.309786,1.421557 A 0.125000,0.125000 0 0,0 2.434786,1.296557 A 0.125000,0.125000 0 0,0 2.309786,1.171557 "/>
        <path style="fill:none;stroke-width:0.010000;stroke-linecap:round;stroke-linejoin:round;stroke-opacity:1;stroke:#000000;" d="M 2.309786,0.171557 A 0.125000,0.125000 0 0,0 2.184786,0.296557 A 0.125000,0.125000 0 0,0 2.309786,0.421557 A 0.125000,0.125000 0 0,0 2.434786,0.296557 A 0.125000,0.125000 0 0,0 2.309786,0.171557 "/>
        <path style="fill:none;stroke-width:0.010000;stroke-linecap:round;stroke-linejoin:round;stroke-opacity:1;stroke:#000000;" d="M 0.359121,0.234035 A 0.062500,0.062500 0 0,0 0.296621,0.296535 A 0.062500,0.062500 0 0,0 0.359121,0.359035 A 0.062500,0.062500 0 0,0 0.421621,0.296535 A 0.062500,0.062500 0 0,0 0.359121,0.234035 "/>
        <path style="fill:none;stroke-width:0.010000;stroke-linecap:round;stroke-linejoin:round;stroke-opacity:1;stroke:#000000;" d="M 0.359121,1.234035 A 0.062500,0.062500 0 0,0 0.296621,1.296535 A 0.062500,0.062500 0 0,0 0.359121,1.359035 A 0.062500,0.062500 0 0,0 0.421621,1.296535 A 0.062500,0.062500 0 0,0 0.359121,1.234035 "/>
        <path style="fill:none;stroke-width:0.010000;stroke-linecap:round;stroke-linejoin:round;stroke-opacity:1;stroke:#000000;" d="M 0.359121,5.481435 A 0.062500,0.062500 0 0,0 0.296621,5.543935 A 0.062500,0.062500 0 0,0 0.359121,5.606435 A 0.062500,0.062500 0 0,0 0.421621,5.543935 A 0.062500,0.062500 0 0,0 0.359121,5.481435 "/>
        <path style="fill:none;stroke-width:0.010000;stroke-linecap:round;stroke-linejoin:round;stroke-opacity:1;stroke:#000000;" d="M 0.359121,0.596535 A 0.200000,0.200000 0 0,0 0.159121,0.796535 A 0.200000,0.200000 0 0,0 0.359121,0.996535 A 0.200000,0.200000 0 0,0 0.559121,0.796535 A 0.200000,0.200000 0 0,0 0.359121,0.596535 "/>
        <path style="fill:none;stroke-width:0.010000;stroke-linecap:round;stroke-linejoin:round;stroke-opacity:1;stroke:#000000;" d="M 0.046574,0.046574 L 0.671574,0.046574 L 0.671574,7.043139 L 0.046574,7.043139 L 0.046574,0.046574 "/>
        <path style="fill:none;stroke-width:0.010000;stroke-linecap:round;stroke-linejoin:round;stroke-opacity:1;stroke:#000000;" d="M 0.681574,6.876363 L 0.681574,0.213351 A 0.125000,0.125000 0 0,0 0.504798,0.036574 L 0.213351,0.036574 A 0.125000,0.125000 0 0,0 0.036574,0.213351 L 0.036574,6.876363 A 0.125000,0.125000 0 0,0 0.213351,7.053139 L 0.504798,7.053139 A 0.125000,0.125000 0 0,0 0.681574,6.876363 "/>
        <path style="fill:none;stroke-width:0.010000;stroke-linecap:round;stroke-linejoin:round;stroke-opacity:1;stroke:#000000;" d="M 0.359074,1.171557 A 0.125000,0.125000 0 0,0 0.234074,1.296557 A 0.125000,0.125000 0 0,0 0.359074,1.421557 A 0.125000,0.125000 0 0,0 0.484074,1.296557 A 0.125000,0.125000 0 0,0 0.359074,1.171557 "/>
        <path style="fill:none;stroke-width:0.010000;stroke-linecap:round;stroke-linejoin:round;stroke-opacity:1;stroke:#000000;" d="M 0.359074,0.171557 A 0.125000,0.125000 0 0,0 0.234074,0.296557 A 0.125000,0.125000 0 0,0 0.359074,0.421557 A 0.125000,0.125000 0 0,0 0.484074,0.296557 A 0.125000,0.125000 0 0,0 0.359074,0.171557 "/>
        <path style="fill:none;stroke-width:0.010000;stroke-linecap:round;stroke-linejoin:round;stroke-opacity:1;stroke:#000000;" d="M 1.288340,0.234035 A 0.062500,0.062500 0 0,0 1.225840,0.296535 A 0.062500,0.062500 0 0,0 1.288340,0.359035 A 0.062500,0.062500 0 0,0 1.350840,0.296535 A 0.062500,0.062500 0 0,0 1.288340,0.234035 "/>
        <path style="fill:none;stroke-width:0.010000;stroke-linecap:round;stroke-linejoin:round;stroke-opacity:1;stroke:#000000;" d="M 1.288340,1.234035 A 0.062500,0.062500 0 0,0 1.225840,1.296535 A 0.062500,0.062500 0 0,0 1.288340,1.359035 A 0.062500,0.062500 0 0,0 1.350840,1.296535 A 0.062500,0.062500 0 0,0 1.288340,1.234035 "/>
        <path style="fill:none;stroke-width:0.010000;stroke-linecap:round;stroke-linejoin:round;stroke-opacity:1;stroke:#000000;" d="M 1.288340,5.481435 A 0.062500,0.062500 0 0,0 1.225840,5.543935 A 0.062500,0.062500 0 0,0 1.288340,5.606435 A 0.062500,0.062500 0 0,0 1.350840,5.543935 A 0.062500,0.062500 0 0,0 1.288340,5.481435 "/>
        <path style="fill:none;stroke-width:0.010000;stroke-linecap:round;stroke-linejoin:round;stroke-opacity:1;stroke:#000000;" d="M 1.288340,0.596535 A 0.200000,0.200000 0 0,0 1.088340,0.796535 A 0.200000,0.200000 0 0,0 1.288340,0.996535 A 0.200000,0.200000 0 0,0 1.488340,0.796535 A 0.200000,0.200000 0 0,0 1.288340,0.596535 "/>
        <path style="fill:none;stroke-width:0.010000;stroke-linecap:round;stroke-linejoin:round;stroke-opacity:1;stroke:#000000;" d="M 0.975793,0.046574 L 1.600793,0.046574 L 1.600793,7.043139 L 0.975793,7.043139 L 0.975793,0.046574 "/>
        <path style="fill:none;stroke-width:0.010000;stroke-linecap:round;stroke-linejoin:round;stroke-opacity:1;stroke:#000000;" d="M 1.610793,6.876363 L 1.610793,0.213351 A 0.125000,0.125000 0 0,0 1.434017,0.036574 L 1.142570,0.036574 A 0.125000,0.125000 0 0,0 0.965793,0.213351 L 0.965793,6.876363 A 0.125000,0.125000 0 0,0 1.142570,7.053139 L 1.434017,7.053139 A 0.125000,0.125000 0 0,0 1.610793,6.876363 "/>
        <path style="fill:none;stroke-width:0.010000;stroke-linecap:round;stroke-linejoin:round;stroke-opacity:1;stroke:#000000;" d="M 1.288293,1.171557 A 0.125000,0.125000 0 0,0 1.163293,1.296557 A 0.125000,0.125000 0 0,0 1.288293,1.421557 A 0.125000,0.125000 0 0,0 1.413293,1.296557 A 0.125000,0.125000 0 0,0 1.288293,1.171557 "/>
        <path style="fill:none;stroke-width:0.010000;stroke-linecap:round;stroke-linejoin:round;stroke-opacity:1;stroke:#000000;" d="M 1.288293,0.171557 A 0.125000,0.125000 0 0,0 1.163293,0.296557 A 0.125000,0.125000 0 0,0 1.288293,0.421557 A 0.125000,0.125000 0 0,0 1.413293,0.296557 A 0.125000,0.125000 0 0,0 1.288293,0.171557 "/>
        <path style="fill:none;stroke-width:0.010000;stroke-linecap:round;stroke-linejoin:round;stroke-opacity:1;stroke:#000000;" d="M 3.339487,0.234035 A 0.062500,0.062500 0 0,0 3.276987,0.296535 A 0.062500,0.062500 0 0,0 3.339487,0.359035 A 0.062500,0.062500 0 0,0 3.401987,0.296535 A 0.062500,0.062500 0 0,0 3.339487,0.234035 "/>
        <path style="fill:none;stroke-width:0.010000;stroke-linecap:round;stroke-linejoin:round;stroke-opacity:1;stroke:#000000;" d="M 3.339487,1.234035 A 0.062500,0.062500 0 0,0 3.276987,1.296535 A 0.062500,0.062500 0 0,0 3.339487,1.359035 A 0.062500,0.062500 0 0,0 3.401987,1.296535 A 0.062500,0.062500 0 0,0 3.339487,1.234035 "/>
        <path style="fill:none;stroke-width:0.010000;stroke-linecap:round;stroke-linejoin:round;stroke-opacity:1;stroke:#000000;" d="M 3.339487,5.481435 A 0.062500,0.062500 0 0,0 3.276987,5.543935 A 0.062500,0.062500 0 0,0 3.339487,5.606435 A 0.062500,0.062500 0 0,0 3.401987,5.543935 A 0.062500,0.062500 0 0,0 3.339487,5.481435 "/>
        <path style="fill:none;stroke-width:0.010000;stroke-linecap:round;stroke-linejoin:round;stroke-opacity:1;stroke:#000000;" d="M 3.339487,0.596535 A 0.200000,0.200000 0 0,0 3.139487,0.796535 A 0.200000,0.200000 0 0,0 3.339487,0.996535 A 0.200000,0.200000 0 0,0 3.539487,0.796535 A 0.200000,0.200000 0 0,0 3.339487,0.596535 "/>
        <path style="fill:none;stroke-width:0.010000;stroke-linecap:round;stroke-linejoin:round;stroke-opacity:1;stroke:#000000;" d="M 3.026941,0.046574 L 3.651941,0.046574 L 3.651941,7.043139 L 3.026941,7.043139 L 3.026941,0.046574 "/>
        <path style="fill:none;stroke-width:0.010000;stroke-linecap:round;stroke-linejoin:round;stroke-opacity:1;stroke:#000000;" d="M 3.661941,6.876363 L 3.661941,0.213351 A 0.125000,0.125000 0 0,0 3.485164,0.036574 L 3.193718,0.036574 A 0.125000,0.125000 0 0,0 3.016941,0.213351 L 3.016941,6.876363 A 0.125000,0.125000 0 0,0 3.193718,7.053139 L 3.485164,7.053139 A 0.125000,0.125000 0 0,0 3.661941,6.876363 "/>
        <path style="fill:none;stroke-width:0.010000;stroke-linecap:round;stroke-linejoin:round;stroke-opacity:1;stroke:#000000;" d="M 3.339441,1.171557 A 0.125000,0.125000 0 0,0 3.214441,1.296557 A 0.125000,0.125000 0 0,0 3.339441,1.421557 A 0.125000,0.125000 0 0,0 3.464441,1.296557 A 0.125000,0.125000 0 0,0 3.339441,1.171557 "/>
        <path style="fill:none;stroke-width:0.010000;stroke-linecap:round;stroke-linejoin:round;stroke-opacity:1;stroke:#000000;" d="M 3.339441,0.171557 A 0.125000,0.125000 0 0,0 3.214441,0.296557 A 0.125000,0.125000 0 0,0 3.339441,0.421557 A 0.125000,0.125000 0 0,0 3.464441,0.296557 A 0.125000,0.125000 0 0,0 3.339441,0.171557 "/>
    </g>
</svg>
